<svg width="144" height="125" viewBox="0 0 144 125" fill="none" xmlns="http://www.w3.org/2000/svg">
<path d="M53.0058 122.495L-1.92646e-08 84.5184V-1.92646e-08H106.012V84.5184L53.0058 122.495Z" transform="translate(1.13086 1.13086)" fill="black"/>
<path d="M54.137 125L53.4906 124.515L0 86.2153V0H108.274V86.2153L107.789 86.5385L54.137 125ZM2.26244 85.0032L54.137 122.253L106.012 85.0032V2.26244H2.26244V85.0032Z" fill="url(#paint0_linear)"/>
<path d="M78.7815 34.3407L36.3607 65.6109L41.6128 67.5501L38.9463 69.4085L12.605 88.3161L3.47447 81.7712L1.23293e-06 79.1047L42.8248 33.9366L46.1377 30.4622H40.6432L67.9541 6.16467e-07" transform="translate(41.5332 22.7852)" fill="white"/>
<path d="M78.7815 34.3407L36.3607 65.6109L41.6128 67.5501L38.9463 69.4085L12.605 88.3161L3.47447 81.7712L1.23293e-06 79.1047L42.8248 33.9366L46.1377 30.4622H40.6432L67.9541 6.16467e-07" transform="translate(41.5332 22.7852)" stroke="white" stroke-width="2.7724" stroke-miterlimit="10"/>
<path d="M25.6949 0L7.91855 21.574L14.7059 20.1196L0 37.2495L35.0679 13.8171" transform="translate(77.5703 40.8047)" fill="black"/>
<path d="M8.48416 16.2411L5.89851 10.9082L-2.46587e-06 10.1002L4.28248 5.89851L3.23206 6.16467e-07L8.48416 2.82805L13.8171 6.16467e-07L12.7666 5.89851L17.0491 10.1002L11.1506 10.9082L8.48416 16.2411Z" transform="translate(67.2266 26.8262)" fill="#DBB66B"/>
<path d="M0 7.83775L19.554 -2.46587e-06H7.19133" transform="translate(107.467 58.7422)" fill="white"/>
<path d="M4.93174e-06 2.43963C4.93174e-06 2.43963 24.7253 -8.22618 32.967 15.0447L4.93174e-06 8.17654" transform="translate(107.143 11.6191)" fill="#DBB66B"/>
<path d="M30.2198 90.5785L0 69.0853V23.6749V0H85.7304V26.2605" transform="translate(11.3125 11.3125)" stroke="white" stroke-width="2.7724" stroke-miterlimit="10"/>
<path d="M3.05176e-06 6.16467e-07V52.4402" transform="translate(54.7832 19.1484)" stroke="white" stroke-width="2.7724" stroke-miterlimit="10"/>
<path d="M19.7964 39.5928C30.7296 39.5928 39.5928 30.7296 39.5928 19.7964C39.5928 8.86314 30.7296 0 19.7964 0C8.86314 0 0 8.86314 0 19.7964C0 30.7296 8.86314 39.5928 19.7964 39.5928Z" transform="translate(100.518 17.5332)" fill="#EED1A2"/>
<path d="M39.5928 19.7964C39.5928 30.7296 30.7296 39.5928 19.7964 39.5928C8.86314 39.5928 1.23293e-06 30.7296 1.23293e-06 19.7964C1.23293e-06 8.86314 8.86314 6.16467e-07 19.7964 6.16467e-07C30.7296 6.16467e-07 39.5928 8.86314 39.5928 19.7964Z" transform="translate(100.518 17.5332)" stroke="black" stroke-width="6.5741" stroke-miterlimit="10"/>
<path d="M10.989 29.2502C17.0581 29.2502 21.978 22.7023 21.978 14.6251C21.978 6.54787 17.0581 0 10.989 0C4.91995 0 0 6.54787 0 14.6251C0 22.7023 4.91995 29.2502 10.989 29.2502Z" transform="translate(105.668 29.707) rotate(-37.5323)" fill="white"/>
<path d="M0.2424 12.6858L9.29218 15.3523L14.7059 7.51455L8.88818 -1.23293e-06L4.93174e-06 3.23206L0.2424 12.6858Z" transform="translate(114.014 29.168)" fill="black"/>
<path d="M7.11054 0.969619C6.86813 1.13122 6.70653 1.29282 6.54493 1.37363C3.55527 3.71687 1.45443 6.78733 0.404005 10.4234L-2.46587e-06 11.9586L8.64576 8.88817L8.40337 -6.16467e-07L7.11054 0.969619Z" transform="translate(103.186 22.0566)" fill="black"/>
<path d="M2.46587e-06 0L0.484804 1.45443C0.565606 1.69683 0.64641 1.93924 0.727212 2.18164C1.37362 3.95928 2.18164 5.4945 3.31286 6.94893C4.44408 8.40336 5.81771 9.77699 7.43374 10.8274L8.72657 11.7162L8.48417 2.50485L2.46587e-06 0Z" transform="translate(103.266 40.8047)" fill="black"/>
<path d="M12.605 3.55527L13.8171 2.58565L5.0097 0L4.93174e-06 7.27214H1.53523C1.77763 7.27214 2.02003 7.27214 2.26244 7.27214C6.06011 7.19134 9.61538 5.89851 12.605 3.55527Z" transform="translate(118.457 47.2676)" fill="black"/>
<path d="M5.4137 14.5443L5.89852 13.0899C5.97932 12.8474 6.06011 12.605 6.14091 12.3626C7.19133 8.72657 7.11053 4.92889 5.73691 1.45443L5.1713 -6.16467e-07L2.46587e-06 7.59535L5.4137 14.5443Z" transform="translate(130.738 29.7344)" fill="black"/>
<path d="M13.8979 4.29869L12.6858 3.40987C12.4434 3.24827 12.2818 3.08667 12.1202 3.00587C8.96897 0.905026 5.3329 -0.145395 1.61603 0.0162079L0 0.0970098L5.5753 7.36915L13.8979 4.29869Z" transform="translate(117.973 20.0215)" fill="black"/>
<path d="M18.9884 10.1002V3.95928L15.1099 6.16467e-07H3.87847L6.16467e-07 3.95928V28.4421L3.87847 32.3206H15.1099L18.9884 28.4421V22.2204H13.3323V26.6645H5.65611V5.65611H13.3323V10.1002H18.9884Z" transform="translate(23.998 27.6328)" fill="white"/>
<path d="M8.32256 0.808016L2.66645 6.16467e-07H1.23293e-06L2.66645 3.63607" transform="translate(26.9883 33.2891)" fill="black"/>
<defs>
<linearGradient id="paint0_linear" x2="1" gradientUnits="userSpaceOnUse" gradientTransform="translate(-8.3531 124.995) scale(124.995) rotate(-90)">
<stop stop-color="#D18246"/>
<stop offset="1" stop-color="#DBB66B"/>
</linearGradient>
</defs>
</svg>
