<svg id="Layer_1" data-name="Layer 1" xmlns="http://www.w3.org/2000/svg" viewBox="0 0 343.98 344.07"><defs><style>.cls-1{fill:#9451cf;}</style></defs><title>Artboard 2 copy 12</title><path class="cls-1" d="M172.5,0A171.5,171.5,0,1,0,344,171.5,171.5,171.5,0,0,0,172.5,0ZM146.23,247.68c-21.51,1.22-43-11.76-44.17-32.82-1.15-20.7,15-34.55,41.68-36.05,19.69-1.11,32,3.37,51.72,2.26A84.57,84.57,0,0,0,210,179C207.06,214.58,181.28,245.71,146.23,247.68Zm55.2-77.76c-20.56,1.18-33.44-3.61-54-2.42a85.36,85.36,0,0,0-15.14,2.21c3-38,29.94-71.28,66.53-73.39,22.45-1.29,44.89,12.57,46.11,35.07C246.14,153.51,229.27,168.31,201.43,169.92Z"/></svg>