<svg id="Layer_1" data-name="Layer 1" xmlns="http://www.w3.org/2000/svg" viewBox="0 0 343.98 344.07"><defs><style>.cls-1{fill:#fff;}.cls-2{fill:#4360df;fill-rule:evenodd;}</style></defs><title>Artboard 2 copy 10</title><g id="Page-1"><g id="Icons"><g id="status-logo-blue-circle"><circle id="bg" class="cls-1" cx="172.11" cy="172" r="171.5"/></g></g></g><path class="cls-2" d="M143.35,179.31c-26.67,1.5-42.83,15.35-41.69,36.05,1.17,21.06,22.67,34,44.18,32.82,35-2,60.82-33.1,63.73-68.68a84.57,84.57,0,0,1-14.5,2.07C175.38,182.68,163,178.2,143.35,179.31Z"/><path class="cls-2" d="M201,170.41c27.85-1.6,44.71-16.4,43.52-38.52-1.22-22.5-23.66-36.37-46.11-35.07-36.59,2.11-63.5,35.37-66.53,73.39A85.39,85.39,0,0,1,147,168C167.6,166.81,180.48,171.6,201,170.41Z"/></svg>