<svg width="128" height="40" viewBox="0 0 128 40" fill="none" xmlns="http://www.w3.org/2000/svg">
<path d="M124 0H4C1.79086 0 0 1.79086 0 4V36C0 38.2091 1.79086 40 4 40H124C126.209 40 128 38.2091 128 36V4C128 1.79086 126.209 0 124 0Z" fill="black"/>
<path fill-rule="evenodd" clip-rule="evenodd" d="M25.1721 9.72088L24.8965 10.1262C26.988 11.0755 28.4038 12.8734 28.4038 14.9308H14.5964C14.5964 12.8734 16.0122 11.0755 18.1052 10.1262L17.828 9.72088L17.5523 9.32136L16.9381 8.42312C16.8632 8.31232 16.8946 8.1636 17.007 8.09072C17.1209 8.01776 17.2737 8.04696 17.3501 8.15776L18.0093 9.12016L18.2865 9.524L18.5666 9.9352C19.4581 9.5984 20.4529 9.41032 21.5001 9.41032C22.5489 9.41032 23.5421 9.5984 24.4336 9.9352L24.7153 9.524L25.6531 8.15776C25.7265 8.04696 25.8809 8.01632 25.9932 8.09072C26.107 8.1636 26.1385 8.31232 26.0621 8.42312L25.4478 9.32136L25.1721 9.72088ZM14.5964 15.8904H14.7028H28.4038V26.4503C28.4038 27.2887 27.7057 27.9711 26.8427 27.9711H25.7145C25.7535 28.098 25.776 28.2307 25.776 28.3706V31.4109C25.776 32.2056 25.1122 32.8501 24.2942 32.8501C23.4777 32.8501 22.8155 32.2056 22.8155 31.4109V28.3706C22.8155 28.2307 22.8365 28.098 22.8739 27.9711H20.1262C20.1637 28.098 20.1861 28.2307 20.1861 28.3706V31.4109C20.1861 32.2056 19.5225 32.8501 18.706 32.8501C17.8894 32.8501 17.2257 32.2056 17.2257 31.4109V28.3706C17.2257 28.2307 17.2467 28.098 17.2857 27.9711H16.159C15.2961 27.9711 14.5964 27.2887 14.5964 26.4503V15.8904ZM12.1301 15.8904C11.3121 15.8904 10.6499 16.535 10.6499 17.3296V23.4902C10.6499 24.285 11.3121 24.9294 12.1301 24.9294C12.9466 24.9294 13.6089 24.285 13.6089 23.4902V17.3296C13.6089 16.535 12.9466 15.8904 12.1301 15.8904ZM29.3909 17.3296C29.3909 16.535 30.0531 15.8904 30.8712 15.8904C31.6877 15.8904 32.3499 16.535 32.3499 17.3296V23.4902C32.3499 24.285 31.6877 24.9294 30.8712 24.9294C30.0531 24.9294 29.3909 24.285 29.3909 23.4902V17.3296ZM17.3405 13.0103C16.9316 13.0103 16.6006 12.6882 16.6006 12.2902C16.6006 11.8922 16.9316 11.5715 17.3405 11.5715C17.7494 11.5715 18.0805 11.8922 18.0805 12.2902C18.0805 12.6882 17.7494 13.0103 17.3405 13.0103ZM22.5188 12.2902C22.5188 12.6882 22.8497 13.0103 23.2587 13.0103C23.6676 13.0103 23.9986 12.6882 23.9986 12.2902C23.9986 11.8922 23.6676 11.5715 23.2587 11.5715C22.8497 11.5715 22.5188 11.8922 22.5188 12.2902Z" fill="white"/>
<path d="M40.5273 13.6V8.8012H42.2183C42.5957 8.8012 42.9226 8.85976 43.1992 8.97696C43.4781 9.09176 43.7008 9.25704 43.8672 9.47264C44.0336 9.68832 44.1554 9.93904 44.2328 10.225C44.3125 10.5086 44.3523 10.8309 44.3523 11.1918C44.3523 11.4778 44.3289 11.7402 44.282 11.9793C44.2351 12.216 44.1578 12.4363 44.05 12.6402C43.9421 12.8418 43.8062 13.0129 43.6421 13.1535C43.4805 13.2942 43.2789 13.4043 43.0375 13.484C42.7961 13.5614 42.523 13.6 42.2183 13.6H40.5273ZM41.3781 12.8898H42.1164C42.5711 12.8898 42.9109 12.755 43.1359 12.4855C43.3633 12.216 43.4769 11.7894 43.4769 11.2058C43.4769 10.9457 43.4535 10.716 43.4066 10.5168C43.3597 10.3176 43.2848 10.1406 43.1817 9.98592C43.0785 9.83128 42.9367 9.71288 42.7562 9.63088C42.5781 9.5488 42.3649 9.50784 42.1164 9.50784H41.3781V12.8898ZM45.5471 11.5398V10.9C45.5471 10.2203 45.7276 9.6848 46.0885 9.29336C46.4494 8.90192 46.9416 8.70624 47.565 8.70624C48.1885 8.70624 48.6795 8.90192 49.0381 9.29336C49.3967 9.6848 49.576 10.2203 49.576 10.9V11.5398C49.576 12.2149 49.3955 12.7434 49.0345 13.1254C48.676 13.505 48.1826 13.695 47.5545 13.695C46.9287 13.695 46.4377 13.505 46.0814 13.1254C45.7252 12.7457 45.5471 12.2172 45.5471 11.5398ZM46.4049 11.5434C46.4049 12.0121 46.5104 12.3683 46.7213 12.6121C46.9322 12.8535 47.2123 12.9742 47.5615 12.9742C47.9084 12.9742 48.1873 12.8535 48.3982 12.6121C48.6092 12.3683 48.7146 12.0121 48.7146 11.5434V10.893C48.7146 10.4218 48.608 10.0598 48.3947 9.80664C48.1838 9.55352 47.9061 9.42696 47.5615 9.42696C47.2146 9.42696 46.9345 9.55352 46.7213 9.80664C46.5104 10.0598 46.4049 10.4218 46.4049 10.893V11.5434ZM50.5211 8.8012H51.4563L52.2297 12.3238H52.2613L53.1403 8.8012H53.9102L54.7856 12.3238H54.8207L55.5906 8.8012H56.5258L55.2426 13.6H54.4621L53.5375 10.1442H53.5059L52.5813 13.6H51.8008L50.5211 8.8012ZM57.6608 13.6V8.8012H58.3956L60.5998 12.1586H60.628V8.8012H61.4365V13.6H60.7089L58.4975 10.232H58.4729V13.6H57.6608ZM63.0743 13.6V8.8012H63.9251V12.8687H66.0133V13.6H63.0743ZM66.8777 11.5398V10.9C66.8777 10.2203 67.0581 9.6848 67.419 9.29336C67.78 8.90192 68.2721 8.70624 68.8956 8.70624C69.519 8.70624 70.0101 8.90192 70.3686 9.29336C70.7273 9.6848 70.9065 10.2203 70.9065 10.9V11.5398C70.9065 12.2149 70.7261 12.7434 70.3651 13.1254C70.0065 13.505 69.5132 13.695 68.885 13.695C68.2593 13.695 67.7683 13.505 67.412 13.1254C67.0557 12.7457 66.8777 12.2172 66.8777 11.5398ZM67.7354 11.5434C67.7354 12.0121 67.8409 12.3683 68.0518 12.6121C68.2628 12.8535 68.5429 12.9742 68.8921 12.9742C69.2389 12.9742 69.5179 12.8535 69.7288 12.6121C69.9397 12.3683 70.0452 12.0121 70.0452 11.5434V10.893C70.0452 10.4218 69.9385 10.0598 69.7253 9.80664C69.5144 9.55352 69.2366 9.42696 68.8921 9.42696C68.5452 9.42696 68.2651 9.55352 68.0518 9.80664C67.8409 10.0598 67.7354 10.4218 67.7354 10.893V11.5434ZM71.8025 13.6L73.4408 8.8012H74.4076L76.0423 13.6H75.1317L74.724 12.3062H73.0681L72.6603 13.6H71.8025ZM73.2544 11.6594H74.5411L73.9153 9.66248H73.8837L73.2544 11.6594ZM77.2125 13.6V8.8012H78.9035C79.2808 8.8012 79.6077 8.85976 79.8843 8.97696C80.1632 9.09176 80.3856 9.25704 80.552 9.47264C80.7184 9.68832 80.8408 9.93904 80.9176 10.225C80.9976 10.5086 81.0376 10.8309 81.0376 11.1918C81.0376 11.4778 81.0144 11.7402 80.9672 11.9793C80.92 12.216 80.8432 12.4363 80.7352 12.6402C80.6272 12.8418 80.4912 13.0129 80.3272 13.1535C80.1656 13.2942 79.964 13.4043 79.7226 13.484C79.4812 13.5614 79.2081 13.6 78.9035 13.6H77.2125ZM78.0633 12.8898H78.8015C79.2562 12.8898 79.5961 12.755 79.821 12.4855C80.0488 12.216 80.1624 11.7894 80.1624 11.2058C80.1624 10.9457 80.1384 10.716 80.092 10.5168C80.0448 10.3176 79.9699 10.1406 79.8668 9.98592C79.7637 9.83128 79.6218 9.71288 79.4413 9.63088C79.2633 9.5488 79.05 9.50784 78.8015 9.50784H78.0633V12.8898ZM83.9576 13.6L85.596 8.8012H86.5632L88.1976 13.6H87.2872L86.8792 12.3062H85.2232L84.816 13.6H83.9576ZM85.4096 11.6594H86.6968L86.0704 9.66248H86.0392L85.4096 11.6594ZM89.368 13.6V8.8012H91.2384C91.728 8.8012 92.116 8.94768 92.4016 9.24064C92.688 9.5336 92.8304 9.90976 92.8304 10.3691C92.8304 10.8309 92.6864 11.2058 92.3984 11.4942C92.112 11.7824 91.7232 11.9266 91.2312 11.9266H90.2184V13.6H89.368ZM90.2184 11.2446H90.8336C91.2136 11.2446 91.4968 11.1813 91.6848 11.0547C91.872 10.9258 91.9656 10.6973 91.9656 10.3691C91.9656 10.0902 91.8896 9.87464 91.7376 9.72224C91.5848 9.56992 91.372 9.49376 91.0976 9.49376H90.2184V11.2446ZM94.1064 13.6V8.8012H94.9568V11.0019H94.996L96.8944 8.8012H97.84L96.1064 10.8614L97.9208 13.6H96.8872L95.4808 11.4344L94.9568 12.0145V13.6H94.1064ZM100.792 11.3324C100.792 10.4886 100.959 9.84176 101.294 9.39176C101.632 8.93944 102.087 8.71328 102.658 8.71328C102.89 8.71328 103.104 8.7508 103.298 8.82576C103.495 8.9008 103.656 9.0004 103.78 9.12464C103.905 9.24648 104.003 9.38008 104.075 9.52536C104.148 9.67072 104.19 9.81832 104.202 9.96832H103.39C103.374 9.82536 103.298 9.69416 103.162 9.57464C103.028 9.45504 102.854 9.39528 102.638 9.39528C102.323 9.39528 102.073 9.55 101.886 9.85936C101.7 10.1687 101.604 10.6023 101.597 11.1602H101.629C101.704 10.9703 101.841 10.8062 102.04 10.668C102.242 10.5297 102.489 10.4606 102.782 10.4606C102.981 10.4606 103.171 10.4957 103.351 10.566C103.534 10.6363 103.697 10.7359 103.84 10.8649C103.986 10.9914 104.102 11.1566 104.188 11.3606C104.274 11.5621 104.318 11.7848 104.318 12.0285C104.318 12.3707 104.241 12.6695 104.086 12.925C103.931 13.1805 103.725 13.3726 103.467 13.5016C103.212 13.6282 102.925 13.6914 102.606 13.6914C102.043 13.6914 101.601 13.4898 101.277 13.0867C100.954 12.6836 100.792 12.0988 100.792 11.3324ZM101.702 12.0672C101.702 12.3602 101.79 12.591 101.966 12.7598C102.142 12.9262 102.358 13.0094 102.613 13.0094C102.864 13.0094 103.074 12.9274 103.246 12.7633C103.417 12.5992 103.502 12.3672 103.502 12.0672C103.502 11.7695 103.414 11.5375 103.238 11.3711C103.066 11.2023 102.854 11.118 102.606 11.118C102.35 11.118 102.136 11.2035 101.962 11.3746C101.789 11.5457 101.702 11.7766 101.702 12.0672ZM105.629 13.5332C105.533 13.4418 105.485 13.3234 105.485 13.1782C105.485 13.0328 105.531 12.9156 105.626 12.8266C105.722 12.7375 105.84 12.693 105.981 12.693C106.126 12.693 106.246 12.7386 106.342 12.8301C106.438 12.9191 106.486 13.0351 106.486 13.1782C106.486 13.3234 106.438 13.4418 106.342 13.5332C106.246 13.6222 106.126 13.6668 105.981 13.6668C105.842 13.6668 105.725 13.6222 105.629 13.5332ZM107.632 11.3746V11.0301C107.632 10.3199 107.79 9.75504 108.103 9.33552C108.418 8.916 108.857 8.70624 109.422 8.70624C109.986 8.70624 110.422 8.91488 110.73 9.332C111.037 9.7492 111.19 10.3152 111.19 11.0301V11.3746C111.19 11.8317 111.124 12.2336 110.993 12.5805C110.862 12.925 110.66 13.1969 110.389 13.3961C110.117 13.5953 109.79 13.695 109.407 13.695C108.842 13.695 108.406 13.4863 108.096 13.0691C107.787 12.6519 107.632 12.0871 107.632 11.3746ZM108.483 11.3676C108.483 11.8902 108.565 12.2922 108.729 12.5734C108.895 12.8523 109.123 12.9918 109.411 12.9918C109.699 12.9918 109.926 12.8512 110.093 12.5699C110.259 12.2886 110.342 11.8879 110.342 11.3676V11.0336C110.342 10.5133 110.259 10.1137 110.093 9.8348C109.926 9.55352 109.699 9.41288 109.411 9.41288C109.123 9.41288 108.895 9.55352 108.729 9.8348C108.565 10.1137 108.483 10.5133 108.483 11.0336V11.3676ZM112.325 12.0215V11.3254H113.724V9.87344H114.427V11.3254H115.834V12.0215H114.427V13.5332H113.724V12.0215H112.325Z" fill="white"/>
<path d="M39.3528 30.8L43.5395 18.5363H46.0102L50.188 30.8H47.861L46.8188 27.4938H42.5872L41.545 30.8H39.3528ZM43.0633 25.8406H46.3517L44.7524 20.7375H44.6716L43.0633 25.8406ZM51.5133 30.8V21.2946H53.5977V22.6332H53.6785C53.8582 22.2259 54.1877 21.8755 54.6669 21.582C55.146 21.2886 55.73 21.1418 56.4188 21.1418C57.3951 21.1418 58.1917 21.4383 58.8086 22.0313C59.4316 22.6182 59.743 23.4478 59.743 24.5199V30.8H57.6137V25.1848C57.6137 23.7114 56.9578 22.9746 55.6461 22.9746C55.0173 22.9746 54.5231 23.1693 54.1637 23.5586C53.8103 23.9479 53.6337 24.511 53.6337 25.2477V30.8H51.5133ZM61.5536 26.5774V25.4992C61.5536 24.1755 61.871 23.1214 62.5059 22.3367C63.1408 21.5521 64.0362 21.1598 65.1922 21.1598C65.899 21.1598 66.4889 21.3006 66.9621 21.582C67.4353 21.8575 67.7557 22.217 67.9235 22.6602H68.0043V17.8894H70.1246V30.8H68.0493V29.3446H67.9684C67.8366 29.7878 67.5221 30.1621 67.025 30.4676C66.5279 30.773 65.9169 30.9258 65.1922 30.9258C64.0422 30.9258 63.1468 30.5365 62.5059 29.7578C61.871 28.9732 61.5536 27.913 61.5536 26.5774ZM63.7188 26.3617C63.7188 27.2482 63.9015 27.946 64.2669 28.455C64.6322 28.9582 65.1653 29.2098 65.8661 29.2098C66.5309 29.2098 67.052 28.9642 67.4293 28.473C67.8126 27.9759 68.0043 27.2782 68.0043 26.3797V25.6699C68.0043 24.8074 67.8097 24.1276 67.4204 23.6305C67.037 23.1334 66.5069 22.8848 65.8301 22.8848C65.1413 22.8848 64.6172 23.1394 64.2578 23.6484C63.8985 24.1575 63.7188 24.8494 63.7188 25.7238V26.3617ZM72.5551 30.8V21.2946H74.6754V22.5254H74.7563C75.1157 21.609 75.8673 21.1508 77.0113 21.1508C77.2569 21.1508 77.4905 21.1718 77.7121 21.2137V23.0734C77.5624 23.0255 77.2689 23.0016 76.8317 23.0016C75.4181 23.0016 74.7113 23.7383 74.7113 25.2117V30.8H72.5551ZM78.4805 26.3707V25.6969C78.4805 24.8104 78.6332 24.0288 78.9387 23.3519C79.2501 22.6751 79.7323 22.1361 80.3849 21.7348C81.0377 21.3334 81.8289 21.1328 82.7569 21.1328C84.1465 21.1328 85.2041 21.5461 85.9289 22.3726C86.6593 23.1932 87.0249 24.2983 87.0249 25.6879V26.3707C87.0249 27.7962 86.6625 28.9193 85.9377 29.7398C85.2129 30.5544 84.1529 30.9617 82.7569 30.9617C81.3617 30.9617 80.2985 30.5544 79.5676 29.7398C78.8429 28.9253 78.4805 27.8022 78.4805 26.3707ZM80.6097 26.3168C80.6097 26.7241 80.6457 27.0954 80.7177 27.4309C80.7897 27.7662 80.9033 28.0778 81.0593 28.3652C81.2145 28.6467 81.4361 28.8683 81.7241 29.0301C82.0113 29.1918 82.3561 29.2726 82.7569 29.2726C83.1521 29.2726 83.4937 29.1948 83.7809 29.039C84.0689 28.8774 84.2873 28.6527 84.4369 28.3652C84.5929 28.0778 84.7033 27.7662 84.7697 27.4309C84.8417 27.0954 84.8777 26.7241 84.8777 26.3168V25.7687C84.8777 25.3554 84.8417 24.9811 84.7697 24.6457C84.7033 24.3103 84.5929 23.9988 84.4369 23.7114C84.2817 23.4238 84.0601 23.2022 83.7721 23.0465C83.4905 22.8848 83.1521 22.8039 82.7569 22.8039C82.3617 22.8039 82.0177 22.8848 81.7241 23.0465C81.4361 23.2082 81.2145 23.4328 81.0593 23.7203C80.9033 24.0018 80.7897 24.3133 80.7177 24.6547C80.6457 24.9901 80.6097 25.3614 80.6097 25.7687V26.3168ZM89.1857 19.7582C88.9521 19.5426 88.8353 19.2701 88.8353 18.9406C88.8353 18.6112 88.9521 18.3417 89.1857 18.132C89.4249 17.9164 89.7273 17.8086 90.0929 17.8086C90.4761 17.8086 90.7849 17.9164 91.0185 18.132C91.2577 18.3417 91.3777 18.6112 91.3777 18.9406C91.3777 19.2701 91.2609 19.5426 91.0273 19.7582C90.7937 19.9678 90.4825 20.0726 90.0929 20.0726C89.7273 20.0726 89.4249 19.9678 89.1857 19.7582ZM89.0505 30.8V21.2946H91.1713V30.8H89.0505ZM93.2153 26.5774V25.4992C93.2153 24.1755 93.5329 23.1214 94.1673 22.3367C94.8025 21.5521 95.6977 21.1598 96.8537 21.1598C97.5609 21.1598 98.1505 21.3006 98.6241 21.582C99.0969 21.8575 99.4177 22.217 99.5849 22.6602H99.6657V17.8894H101.786V30.8H99.7113V29.3446H99.6297C99.4985 29.7878 99.1841 30.1621 98.6865 30.4676C98.1897 30.773 97.5785 30.9258 96.8537 30.9258C95.7041 30.9258 94.8081 30.5365 94.1673 29.7578C93.5329 28.9732 93.2153 27.913 93.2153 26.5774ZM95.3801 26.3617C95.3801 27.2482 95.5633 27.946 95.9289 28.455C96.2937 28.9582 96.8273 29.2098 97.5281 29.2098C98.1929 29.2098 98.7137 28.9642 99.0913 28.473C99.4745 27.9759 99.6657 27.2782 99.6657 26.3797V25.6699C99.6657 24.8074 99.4713 24.1276 99.0817 23.6305C98.6985 23.1334 98.1689 22.8848 97.4921 22.8848C96.8033 22.8848 96.2793 23.1394 95.9193 23.6484C95.5601 24.1575 95.3801 24.8494 95.3801 25.7238V26.3617Z" fill="white"/>
</svg>
