<svg width="131" height="40" viewBox="0 0 131 40" fill="none" xmlns="http://www.w3.org/2000/svg">
<path d="M126.48 0H4.08C1.82668 0 0 1.82668 0 4.08V35.92C0 38.1733 1.82668 40 4.08 40H126.48C128.733 40 130.56 38.1733 130.56 35.92V4.08C130.56 1.82668 128.733 0 126.48 0Z" fill="black"/>
<path fill-rule="evenodd" clip-rule="evenodd" d="M25.6516 6.8C25.8705 8.25776 25.2653 9.68584 24.4669 10.6962C23.6128 11.78 22.1405 12.6182 20.7141 12.5745C20.4536 11.1789 21.1203 9.74088 21.9316 8.77424C22.8215 7.70736 24.3467 6.88888 25.6516 6.8ZM29.9368 27.3185C30.6722 26.2135 30.9469 25.6562 31.5178 24.4086C27.3657 22.8606 26.7004 17.0734 30.8096 14.8522C29.5562 13.3112 27.7949 12.418 26.1324 12.418C24.9344 12.418 24.1137 12.7245 23.3674 13.0031C22.7457 13.2353 22.1757 13.4482 21.4823 13.4482C20.7332 13.4482 20.0697 13.2149 19.3751 12.9707C18.6117 12.7024 17.8107 12.4208 16.8166 12.4208C14.9509 12.4208 12.965 13.5384 11.7059 15.4491C9.93601 18.1402 10.2379 23.1993 13.108 27.509C14.1339 29.0514 15.5046 30.7843 17.2974 30.7998C18.0413 30.807 18.5362 30.5894 19.0719 30.3538C19.685 30.0842 20.3514 29.7912 21.5053 29.7852C22.6659 29.7784 23.3218 30.075 23.9267 30.3486C24.4487 30.5846 24.9327 30.8034 25.6702 30.7956C27.4644 30.7815 28.9109 28.8609 29.9368 27.3185Z" fill="white"/>
<path d="M41.7461 13.2V8.4012H43.4709C43.8558 8.4012 44.1893 8.45976 44.4714 8.57696C44.7559 8.69176 44.983 8.85704 45.1527 9.07264C45.3225 9.28832 45.4467 9.53904 45.5256 9.82496C45.6069 10.1086 45.6476 10.4309 45.6476 10.7918C45.6476 11.0778 45.6236 11.3402 45.5758 11.5793C45.528 11.816 45.4492 12.0363 45.3392 12.2402C45.2292 12.4418 45.0906 12.6129 44.9232 12.7535C44.7583 12.8942 44.5526 13.0043 44.3065 13.084C44.0602 13.1614 43.7817 13.2 43.4709 13.2H41.7461ZM42.6139 12.4898H43.3669C43.8307 12.4898 44.1774 12.355 44.4068 12.0855C44.6387 11.816 44.7547 11.3894 44.7547 10.8058C44.7547 10.5457 44.7308 10.316 44.683 10.1168C44.6351 9.9176 44.5587 9.74064 44.4535 9.58592C44.3482 9.43128 44.2036 9.31288 44.0196 9.23088C43.8379 9.1488 43.6204 9.10784 43.3669 9.10784H42.6139V12.4898ZM46.8662 11.1398V10.5C46.8662 9.82032 47.0503 9.2848 47.4184 8.89336C47.7866 8.50192 48.2886 8.30624 48.9245 8.30624C49.5604 8.30624 50.0613 8.50192 50.427 8.89336C50.7928 9.2848 50.9757 9.82032 50.9757 10.5V11.1398C50.9757 11.8149 50.7916 12.3434 50.4234 12.7254C50.0577 13.105 49.5545 13.295 48.9138 13.295C48.2755 13.295 47.7746 13.105 47.4113 12.7254C47.0479 12.3457 46.8662 11.8172 46.8662 11.1398ZM47.7412 11.1434C47.7412 11.6121 47.8488 11.9683 48.0639 12.2121C48.2791 12.4535 48.5648 12.5742 48.9209 12.5742C49.2748 12.5742 49.5593 12.4535 49.7744 12.2121C49.9896 11.9683 50.0971 11.6121 50.0971 11.1434V10.493C50.0971 10.0218 49.9883 9.65976 49.7708 9.40664C49.5557 9.15352 49.2724 9.02696 48.9209 9.02696C48.5671 9.02696 48.2814 9.15352 48.0639 9.40664C47.8488 9.65976 47.7412 10.0218 47.7412 10.493V11.1434ZM51.9397 8.4012H52.8936L53.6825 11.9238H53.7148L54.6113 8.4012H55.3966L56.2895 11.9238H56.3253L57.1106 8.4012H58.0645L56.7557 13.2H55.9596L55.0165 9.74416H54.9842L54.0411 13.2H53.245L51.9397 8.4012ZM59.2222 13.2V8.4012H59.9717L62.22 11.7586H62.2488V8.4012H63.0735V13.2H62.3312L60.0757 9.832H60.0506V13.2H59.2222ZM64.744 13.2V8.4012H65.6118V12.4687H67.7418V13.2H64.744ZM68.6234 11.1398V10.5C68.6234 9.82032 68.8075 9.2848 69.1756 8.89336C69.5438 8.50192 70.0458 8.30624 70.6817 8.30624C71.3176 8.30624 71.8185 8.50192 72.1842 8.89336C72.55 9.2848 72.7329 9.82032 72.7329 10.5V11.1398C72.7329 11.8149 72.5488 12.3434 72.1806 12.7254C71.8149 13.105 71.3117 13.295 70.6709 13.295C70.0327 13.295 69.5319 13.105 69.1684 12.7254C68.8051 12.3457 68.6234 11.8172 68.6234 11.1398ZM69.4983 11.1434C69.4983 11.6121 69.606 11.9683 69.8211 12.2121C70.0362 12.4535 70.3219 12.5742 70.6781 12.5742C71.0319 12.5742 71.3165 12.4535 71.5316 12.2121C71.7467 11.9683 71.8543 11.6121 71.8543 11.1434V10.493C71.8543 10.0218 71.7455 9.65976 71.528 9.40664C71.3129 9.15352 71.0296 9.02696 70.6781 9.02696C70.3243 9.02696 70.0386 9.15352 69.8211 9.40664C69.606 9.65976 69.4983 10.0218 69.4983 10.493V11.1434ZM73.6467 13.2L75.3178 8.4012H76.3039L77.9714 13.2H77.0426L76.6267 11.9062H74.9376L74.5217 13.2H73.6467ZM75.1277 11.2594H76.4401L75.8019 9.26248H75.7696L75.1277 11.2594ZM79.1649 13.2V8.4012H80.8898C81.2746 8.4012 81.6084 8.45976 81.8899 8.57696C82.1747 8.69176 82.4015 8.85704 82.5712 9.07264C82.741 9.28832 82.8658 9.53904 82.9441 9.82496C83.0257 10.1086 83.0665 10.4309 83.0665 10.7918C83.0665 11.0778 83.0429 11.3402 82.9947 11.5793C82.9466 11.816 82.8683 12.0363 82.7581 12.2402C82.6479 12.4418 82.5092 12.6129 82.3419 12.7535C82.1771 12.8942 81.9715 13.0043 81.725 13.084C81.479 13.1614 81.2005 13.2 80.8898 13.2H79.1649ZM80.0327 12.4898H80.7857C81.2496 12.4898 81.5962 12.355 81.8254 12.0855C82.058 11.816 82.1738 11.3894 82.1738 10.8058C82.1738 10.5457 82.1494 10.316 82.102 10.1168C82.0539 9.9176 81.9772 9.74064 81.8719 9.58592C81.7675 9.43128 81.6222 9.31288 81.4384 9.23088C81.2567 9.1488 81.0392 9.10784 80.7857 9.10784H80.0327V12.4898ZM86.3281 11.1398V10.5C86.3281 9.82032 86.5125 9.2848 86.8805 8.89336C87.2485 8.50192 87.7512 8.30624 88.3869 8.30624C89.0225 8.30624 89.5235 8.50192 89.8891 8.89336C90.2547 9.2848 90.4383 9.82032 90.4383 10.5V11.1398C90.4383 11.8149 90.2539 12.3434 89.8859 12.7254C89.5203 13.105 89.0168 13.295 88.3763 13.295C87.7381 13.295 87.2371 13.105 86.8732 12.7254C86.5101 12.3457 86.3281 11.8172 86.3281 11.1398ZM87.2037 11.1434C87.2037 11.6121 87.3114 11.9683 87.526 12.2121C87.7414 12.4535 88.027 12.5742 88.3836 12.5742C88.7369 12.5742 89.0217 12.4535 89.2363 12.2121C89.4517 11.9683 89.5595 11.6121 89.5595 11.1434V10.493C89.5595 10.0218 89.4509 9.65976 89.2331 9.40664C89.0176 9.15352 88.7345 9.02696 88.3836 9.02696C88.0295 9.02696 87.7439 9.15352 87.526 9.40664C87.3114 9.65976 87.2037 10.0218 87.2037 10.493V11.1434ZM91.9079 13.2V8.4012H92.657L94.9051 11.7586H94.9345V8.4012H95.7586V13.2H95.0169L92.7614 9.832H92.7361V13.2H91.9079ZM98.9957 9.12184V8.4012H102.7V9.12184H101.276V13.2H100.416V9.12184H98.9957ZM103.89 13.2V8.4012H104.758V10.3805H106.938V8.4012H107.806V13.2H106.938V11.0977H104.758V13.2H103.89ZM109.469 13.2V8.4012H112.56V9.11136H110.333V10.4297H112.428V11.1012H110.333V12.4898H112.56V13.2H109.469Z" fill="white"/>
<path d="M40.1396 30.8L44.4101 18.5363H46.9302L51.1916 30.8H48.8181L47.755 27.4938H43.4387L42.3757 30.8H40.1396ZM43.9244 25.8406H47.2785L45.6472 20.7375H45.5648L43.9244 25.8406ZM52.5526 34.0074V21.2855H54.6695V22.6602H54.7519C54.9536 22.205 55.3018 21.8426 55.7967 21.573C56.2915 21.2975 56.9024 21.1598 57.6295 21.1598C58.7352 21.1598 59.6181 21.5401 60.2779 22.3008C60.9438 23.0614 61.2767 24.1216 61.2767 25.4813V26.6222C61.2767 27.9819 60.9438 29.039 60.2779 29.7938C59.6181 30.5484 58.7231 30.9258 57.5928 30.9258C56.8841 30.9258 56.2976 30.791 55.8333 30.5215C55.369 30.2519 55.0268 29.8986 54.8069 29.4614H54.7153V34.0074H52.5526ZM54.7153 26.5054C54.7153 27.2901 54.9138 27.937 55.311 28.4461C55.7142 28.9492 56.2548 29.2008 56.933 29.2008C57.5806 29.2008 58.0968 28.9672 58.4817 28.5C58.8727 28.0268 59.0682 27.341 59.0682 26.4426V25.643C59.0682 24.7565 58.8757 24.0767 58.4909 23.6035C58.106 23.1243 57.5745 22.8848 56.8964 22.8848C56.2243 22.8848 55.6928 23.1274 55.3018 23.6125C54.9108 24.0917 54.7153 24.7326 54.7153 25.5351V26.5054ZM63.1785 34.0074V21.2855H65.2954V22.6602H65.3779C65.5794 22.205 65.9277 21.8426 66.4226 21.573C66.9174 21.2975 67.5284 21.1598 68.2553 21.1598C69.3612 21.1598 70.244 21.5401 70.9038 22.3008C71.5697 23.0614 71.9027 24.1216 71.9027 25.4813V26.6222C71.9027 27.9819 71.5697 29.039 70.9038 29.7938C70.244 30.5484 69.3489 30.9258 68.2187 30.9258C67.51 30.9258 66.9235 30.791 66.4592 30.5215C65.9949 30.2519 65.6528 29.8986 65.4329 29.4614H65.3412V34.0074H63.1785ZM65.3412 26.5054C65.3412 27.2901 65.5398 27.937 65.9368 28.4461C66.3401 28.9492 66.8808 29.2008 67.5589 29.2008C68.2065 29.2008 68.7227 28.9672 69.1077 28.5C69.4986 28.0268 69.6941 27.341 69.6941 26.4426V25.643C69.6941 24.7565 69.5017 24.0767 69.1168 23.6035C68.7319 23.1243 68.2004 22.8848 67.5222 22.8848C66.8502 22.8848 66.3187 23.1274 65.9277 23.6125C65.5367 24.0917 65.3412 24.7326 65.3412 25.5351V26.5054ZM76.6225 27.368H78.7761C78.825 27.913 79.0877 28.3682 79.5642 28.7336C80.0407 29.093 80.6913 29.2726 81.5162 29.2726C82.2984 29.2726 82.9087 29.1079 83.3486 28.7785C83.7949 28.4491 84.0177 28.0029 84.0177 27.4398C84.0177 26.9966 83.8594 26.6432 83.5411 26.3797C83.2294 26.1162 82.7349 25.9035 82.0568 25.7418L80.0499 25.2656C79.6161 25.1698 79.219 25.038 78.8585 24.8703C78.5042 24.6966 78.1774 24.481 77.878 24.2234C77.5848 23.9599 77.3557 23.6334 77.1907 23.2442C77.0258 22.8548 76.9433 22.4176 76.9433 21.9324C76.9433 21.1718 77.1541 20.5099 77.5756 19.9469C77.9972 19.3778 78.5501 18.9556 79.2343 18.6801C79.9185 18.4046 80.6792 18.2668 81.5162 18.2668C82.3596 18.2668 83.1201 18.4075 83.7982 18.689C84.482 18.9706 85.0263 19.3898 85.4294 19.9469C85.8382 20.4979 86.0495 21.1388 86.0618 21.8695H83.954C83.9108 21.3365 83.679 20.8962 83.2572 20.5488C82.8361 20.2014 82.2494 20.0278 81.4978 20.0278C80.7952 20.0278 80.2301 20.1834 79.8025 20.495C79.3809 20.8004 79.1702 21.2226 79.1702 21.7617C79.1702 22.5583 79.7445 23.0884 80.893 23.3519L82.9087 23.8282C83.4098 23.9419 83.8496 24.0827 84.229 24.2504C84.6077 24.4181 84.9528 24.6338 85.2645 24.8973C85.582 25.1608 85.8235 25.4902 85.9883 25.8855C86.1532 26.2809 86.2356 26.7361 86.2356 27.2512C86.2356 28.4371 85.79 29.3655 84.8973 30.0363C84.012 30.7072 82.8329 31.0426 81.3604 31.0426C80.6822 31.0426 80.0682 30.9677 79.5183 30.818C78.9746 30.6682 78.5256 30.4736 78.1713 30.234C77.823 29.9944 77.5298 29.7129 77.2915 29.3894C77.0532 29.06 76.8822 28.7306 76.7783 28.4012C76.6805 28.0658 76.6286 27.7214 76.6225 27.368ZM87.4229 23.0285V21.3664H88.8158V18.9946H90.9235V21.3664H92.8109V23.0285H90.9235V27.907C90.9235 28.4042 91.0304 28.7456 91.2442 28.9313C91.4637 29.111 91.8456 29.2008 92.3898 29.2008C92.6281 29.2008 92.7864 29.1948 92.8664 29.1828V30.791C92.5547 30.839 92.2185 30.8629 91.8578 30.8629C91.0696 30.8629 90.4494 30.7641 89.9973 30.5664C89.5453 30.3687 89.2278 30.0782 89.0442 29.695C88.8672 29.3056 88.779 28.7815 88.779 28.1226V23.0285H87.4229ZM94.0618 26.3707V25.6969C94.0618 24.8104 94.2177 24.0288 94.5294 23.3519C94.8468 22.6751 95.3389 22.1361 96.0047 21.7348C96.6706 21.3334 97.4776 21.1328 98.4242 21.1328C99.8416 21.1328 100.919 21.5461 101.659 22.3726C102.405 23.1932 102.778 24.2983 102.778 25.6879V26.3707C102.778 27.7962 102.408 28.9193 101.669 29.7398C100.929 30.5544 99.8481 30.9617 98.4242 30.9617C97.0011 30.9617 95.9166 30.5544 95.1708 29.7398C94.4315 28.9253 94.0618 27.8022 94.0618 26.3707ZM96.234 26.3168C96.234 26.7241 96.2707 27.0954 96.3442 27.4309C96.4176 27.7662 96.5335 28.0778 96.6918 28.3652C96.8509 28.6467 97.077 28.8683 97.3707 29.0301C97.6637 29.1918 98.0145 29.2726 98.4242 29.2726C98.8273 29.2726 99.1757 29.1948 99.4687 29.039C99.7624 28.8774 99.9852 28.6527 100.138 28.3652C100.297 28.0778 100.409 27.7662 100.477 27.4309C100.551 27.0954 100.587 26.7241 100.587 26.3168V25.7687C100.587 25.3554 100.551 24.9811 100.477 24.6457C100.409 24.3103 100.297 23.9988 100.138 23.7114C99.9786 23.4238 99.7526 23.2022 99.4597 23.0465C99.1724 22.8848 98.8273 22.8039 98.4242 22.8039C98.0211 22.8039 97.6694 22.8848 97.3707 23.0465C97.077 23.2082 96.8509 23.4328 96.6918 23.7203C96.5335 24.0018 96.4176 24.3133 96.3442 24.6547C96.2707 24.9901 96.234 25.3614 96.234 25.7687V26.3168ZM104.761 30.8V21.2946H106.924V22.5254H107.007C107.373 21.609 108.139 21.1508 109.306 21.1508C109.557 21.1508 109.795 21.1718 110.021 21.2137V23.0734C109.869 23.0255 109.569 23.0016 109.124 23.0016C107.682 23.0016 106.96 23.7383 106.96 25.2117V30.8H104.761ZM110.805 26.4695V25.6699C110.805 24.2803 111.178 23.1782 111.923 22.3637C112.668 21.5431 113.698 21.1328 115.012 21.1328C116.349 21.1328 117.382 21.5431 118.109 22.3637C118.842 23.1842 119.209 24.2834 119.209 25.661V26.5145H112.941V26.811C112.941 27.5117 113.13 28.0987 113.509 28.5718C113.887 29.045 114.428 29.2817 115.131 29.2817C115.687 29.2817 116.121 29.1618 116.432 28.9222C116.75 28.6827 116.945 28.3802 117.018 28.0149H119.108C119.077 28.2844 119.007 28.5509 118.897 28.8145C118.793 29.078 118.637 29.3415 118.43 29.605C118.222 29.8686 117.971 30.0992 117.679 30.2969C117.391 30.4946 117.027 30.6562 116.588 30.782C116.148 30.9018 115.665 30.9617 115.14 30.9617C113.759 30.9617 112.69 30.5634 111.932 29.7668C111.181 28.9642 110.805 27.8651 110.805 26.4695ZM112.941 25.0859H117.101V25.068C117.101 24.3851 116.915 23.8311 116.542 23.4058C116.169 22.9806 115.665 22.768 115.03 22.768C114.388 22.768 113.878 22.9836 113.5 23.4149C113.127 23.8401 112.941 24.3911 112.941 25.068V25.0859Z" fill="white"/>
</svg>
