<svg width="128" height="40" viewBox="0 0 128 40" fill="none" xmlns="http://www.w3.org/2000/svg">
<path d="M124 0H4C1.79086 0 0 1.79086 0 4V36C0 38.2091 1.79086 40 4 40H124C126.209 40 128 38.2091 128 36V4C128 1.79086 126.209 0 124 0Z" fill="black"/>
<path d="M65.0248 21.5888C62.8189 21.5888 61.0169 23.248 61.0169 25.5376C61.0169 27.808 62.8189 29.4848 65.0248 29.4848C67.2353 29.4848 69.0373 27.808 69.0373 25.5376C69.0373 23.248 67.2353 21.5888 65.0248 21.5888ZM65.0248 27.9296C63.8144 27.9296 62.7732 26.9424 62.7732 25.5376C62.7732 24.1136 63.8144 23.144 65.0248 23.144C66.2351 23.144 67.2811 24.1136 67.2811 25.5376C67.2811 26.9424 66.2351 27.9296 65.0248 27.9296ZM56.28 21.5888C54.0696 21.5888 52.2722 23.248 52.2722 25.5376C52.2722 27.808 54.0696 29.4848 56.28 29.4848C58.4894 29.4848 60.2879 27.808 60.2879 25.5376C60.2879 23.248 58.4894 21.5888 56.28 21.5888ZM56.28 27.9296C55.0685 27.9296 54.0237 26.9424 54.0237 25.5376C54.0237 24.1136 55.0685 23.144 56.28 23.144C57.4904 23.144 58.5317 24.1136 58.5317 25.5376C58.5317 26.9424 57.4904 27.9296 56.28 27.9296ZM45.8742 22.7992V24.4768H49.9279C49.8093 25.4144 49.4924 26.1032 49.0063 26.584C48.4146 27.164 47.4931 27.808 45.8742 27.808C43.3796 27.808 41.4261 25.8184 41.4261 23.3528C41.4261 20.8872 43.3796 18.8968 45.8742 18.8968C47.2231 18.8968 48.2045 19.4176 48.9288 20.0936L50.1251 18.9112C49.112 17.9552 47.7643 17.22 45.8742 17.22C42.4533 17.22 39.5784 19.9712 39.5784 23.3528C39.5784 26.7336 42.4533 29.4848 45.8742 29.4848C47.7232 29.4848 49.112 28.8856 50.2037 27.7624C51.3225 26.6568 51.6712 25.1024 51.6712 23.8464C51.6712 23.4568 51.6383 23.0984 51.5796 22.7992H45.8742ZM88.4248 24.1C88.0952 23.2168 87.0776 21.5888 85.004 21.5888C82.9496 21.5888 81.2393 23.1888 81.2393 25.5376C81.2393 27.7488 82.932 29.4848 85.2016 29.4848C87.036 29.4848 88.0953 28.3792 88.5305 27.7352L87.1688 26.8384C86.7144 27.4944 86.096 27.9296 85.2016 27.9296C84.3128 27.9296 83.6752 27.5272 83.2664 26.7336L88.6097 24.5488L88.4248 24.1ZM82.9776 25.4144C82.932 23.892 84.1745 23.112 85.0641 23.112C85.7617 23.112 86.3529 23.4568 86.5505 23.9504L82.9776 25.4144ZM78.6355 29.2448H80.392V17.6416H78.6355V29.2448ZM75.7593 22.468H75.7006C75.3062 22.0064 74.5537 21.5888 73.6005 21.5888C71.6001 21.5888 69.7711 23.3248 69.7711 25.5504C69.7711 27.7624 71.6001 29.4848 73.6005 29.4848C74.5537 29.4848 75.3062 29.0632 75.7006 28.588H75.7593V29.1536C75.7593 30.6632 74.9435 31.4744 73.6275 31.4744C72.5545 31.4744 71.8889 30.7088 71.6141 30.0648L70.0868 30.6952C70.5271 31.7416 71.6928 33.0296 73.6275 33.0296C75.6865 33.0296 77.424 31.832 77.424 28.9184V21.8288H75.7593V22.468ZM73.7507 27.9296C72.5404 27.9296 71.5272 26.9288 71.5272 25.5504C71.5272 24.1592 72.5404 23.144 73.7507 23.144C74.9435 23.144 75.8838 24.1592 75.8838 25.5504C75.8838 26.9288 74.9435 27.9296 73.7507 27.9296ZM96.6472 17.6416H92.4472V29.2448H94.1985V24.848H96.6472C98.5928 24.848 100.5 23.4568 100.5 21.244C100.5 19.0328 98.588 17.6416 96.6472 17.6416ZM96.6928 23.2344H94.1985V19.2552H96.6928C98.0008 19.2552 98.7472 20.3288 98.7472 21.244C98.7472 22.1424 98.0008 23.2344 96.6928 23.2344ZM107.52 21.5672C106.255 21.5672 104.939 22.1192 104.398 23.3432L105.952 23.9872C106.286 23.3432 106.902 23.1344 107.552 23.1344C108.461 23.1344 109.382 23.6736 109.396 24.6264V24.748C109.079 24.5672 108.401 24.2992 107.566 24.2992C105.892 24.2992 104.186 25.2104 104.186 26.9096C104.186 28.4648 105.558 29.4664 107.099 29.4664C108.278 29.4664 108.928 28.9408 109.337 28.3288H109.396V29.2256H111.088V24.7752C111.088 22.7176 109.534 21.5672 107.52 21.5672ZM107.309 27.9248C106.736 27.9248 105.938 27.6448 105.938 26.9424C105.938 26.044 106.934 25.7 107.795 25.7C108.566 25.7 108.928 25.868 109.396 26.0896C109.259 27.164 108.323 27.9248 107.309 27.9248ZM117.251 21.8208L115.238 26.8504H115.178L113.097 21.8208H111.208L114.335 28.8496L112.55 32.7616H114.381L119.2 21.8208H117.251ZM101.463 29.2448H103.219V17.6416H101.463V29.2448Z" fill="white"/>
<mask id="mask0" mask-type="alpha" maskUnits="userSpaceOnUse" x="38" y="16" width="82" height="19">
<path d="M119.77 16.1872H38.5759V34.0203H119.77V16.1872Z" fill="white"/>
</mask>
<g mask="url(#mask0)">
<path fill-rule="evenodd" clip-rule="evenodd" d="M65.0248 21.5888C62.8189 21.5888 61.0169 23.248 61.0169 25.5376C61.0169 27.808 62.8189 29.4848 65.0248 29.4848C67.2353 29.4848 69.0373 27.808 69.0373 25.5376C69.0373 23.248 67.2353 21.5888 65.0248 21.5888ZM65.0248 27.9296C63.8144 27.9296 62.7732 26.9424 62.7732 25.5376C62.7732 24.1136 63.8144 23.144 65.0248 23.144C66.2351 23.144 67.2811 24.1136 67.2811 25.5376C67.2811 26.9424 66.2351 27.9296 65.0248 27.9296ZM56.28 21.5888C54.0696 21.5888 52.2722 23.248 52.2722 25.5376C52.2722 27.808 54.0696 29.4848 56.28 29.4848C58.4894 29.4848 60.2879 27.808 60.2879 25.5376C60.2879 23.248 58.4894 21.5888 56.28 21.5888ZM56.28 27.9296C55.0685 27.9296 54.0237 26.9424 54.0237 25.5376C54.0237 24.1136 55.0685 23.144 56.28 23.144C57.4904 23.144 58.5317 24.1136 58.5317 25.5376C58.5317 26.9424 57.4904 27.9296 56.28 27.9296ZM45.8742 22.7992V24.4768H49.9279C49.8093 25.4144 49.4924 26.1032 49.0063 26.584C48.4146 27.164 47.4931 27.808 45.8742 27.808C43.3796 27.808 41.4261 25.8184 41.4261 23.3528C41.4261 20.8872 43.3796 18.8968 45.8742 18.8968C47.2231 18.8968 48.2045 19.4176 48.9288 20.0936L50.1251 18.9112C49.112 17.9552 47.7643 17.22 45.8742 17.22C42.4533 17.22 39.5784 19.9712 39.5784 23.3528C39.5784 26.7336 42.4533 29.4848 45.8742 29.4848C47.7232 29.4848 49.112 28.8856 50.2037 27.7624C51.3225 26.6568 51.6712 25.1024 51.6712 23.8464C51.6712 23.4568 51.6383 23.0984 51.5796 22.7992H45.8742ZM88.4248 24.1C88.0952 23.2168 87.0777 21.5888 85.0041 21.5888C82.9497 21.5888 81.2392 23.1888 81.2392 25.5376C81.2392 27.7488 82.932 29.4848 85.2016 29.4848C87.036 29.4848 88.0952 28.3792 88.5304 27.7352L87.1688 26.8384C86.7144 27.4944 86.096 27.9296 85.2016 27.9296C84.3128 27.9296 83.6752 27.5272 83.2664 26.7336L88.6097 24.5488L88.4248 24.1ZM82.9776 25.4144C82.932 23.892 84.1745 23.112 85.0641 23.112C85.7617 23.112 86.3528 23.4568 86.5504 23.9504L82.9776 25.4144ZM78.6355 29.2448H80.3921V17.6416H78.6355V29.2448ZM75.7593 22.468H75.7006C75.3062 22.0064 74.5537 21.5888 73.6004 21.5888C71.6 21.5888 69.7711 23.3248 69.7711 25.5504C69.7711 27.7624 71.6 29.4848 73.6004 29.4848C74.5537 29.4848 75.3062 29.0632 75.7006 28.588H75.7593V29.1536C75.7593 30.6632 74.9435 31.4744 73.6275 31.4744C72.5545 31.4744 71.8889 30.7088 71.6141 30.0648L70.0869 30.6952C70.5271 31.7416 71.6928 33.0296 73.6275 33.0296C75.6865 33.0296 77.424 31.832 77.424 28.9184V21.8288H75.7593V22.468ZM73.7507 27.9296C72.5404 27.9296 71.5272 26.9288 71.5272 25.5504C71.5272 24.1592 72.5404 23.144 73.7507 23.144C74.9435 23.144 75.8838 24.1592 75.8838 25.5504C75.8838 26.9288 74.9435 27.9296 73.7507 27.9296ZM96.6472 17.6416H92.4472V29.2448H94.1985V24.848H96.6472C98.5928 24.848 100.5 23.4568 100.5 21.244C100.5 19.0328 98.588 17.6416 96.6472 17.6416ZM96.6928 23.2344H94.1985V19.2552H96.6928C98.0008 19.2552 98.7472 20.3288 98.7472 21.244C98.7472 22.1424 98.0008 23.2344 96.6928 23.2344ZM107.52 21.5672C106.255 21.5672 104.939 22.1192 104.398 23.3432L105.952 23.9872C106.286 23.3432 106.902 23.1344 107.552 23.1344C108.461 23.1344 109.382 23.6736 109.396 24.6264V24.748C109.079 24.5672 108.401 24.2992 107.566 24.2992C105.892 24.2992 104.186 25.2104 104.186 26.9096C104.186 28.4648 105.558 29.4664 107.099 29.4664C108.278 29.4664 108.928 28.9408 109.337 28.3288H109.396V29.2256H111.088V24.7752C111.088 22.7176 109.534 21.5672 107.52 21.5672ZM107.309 27.9248C106.736 27.9248 105.938 27.6448 105.938 26.9424C105.938 26.044 106.934 25.7 107.795 25.7C108.566 25.7 108.928 25.868 109.396 26.0896C109.259 27.164 108.323 27.9248 107.309 27.9248ZM117.251 21.8208L115.238 26.8504H115.178L113.097 21.8208H111.208L114.335 28.8496L112.55 32.7616H114.381L119.2 21.8208H117.251ZM101.463 29.2448H103.219V17.6416H101.463V29.2448Z" stroke="white" stroke-width="0.1"/>
</g>
<mask id="mask1" mask-type="alpha" maskUnits="userSpaceOnUse" x="39" y="17" width="81" height="17">
<path d="M65.0248 21.5888C62.8189 21.5888 61.0169 23.248 61.0169 25.5376C61.0169 27.808 62.8189 29.4848 65.0248 29.4848C67.2353 29.4848 69.0373 27.808 69.0373 25.5376C69.0373 23.248 67.2353 21.5888 65.0248 21.5888ZM65.0248 27.9296C63.8144 27.9296 62.7732 26.9424 62.7732 25.5376C62.7732 24.1136 63.8144 23.144 65.0248 23.144C66.2351 23.144 67.2811 24.1136 67.2811 25.5376C67.2811 26.9424 66.2351 27.9296 65.0248 27.9296ZM56.28 21.5888C54.0696 21.5888 52.2722 23.248 52.2722 25.5376C52.2722 27.808 54.0696 29.4848 56.28 29.4848C58.4894 29.4848 60.2879 27.808 60.2879 25.5376C60.2879 23.248 58.4894 21.5888 56.28 21.5888ZM56.28 27.9296C55.0685 27.9296 54.0237 26.9424 54.0237 25.5376C54.0237 24.1136 55.0685 23.144 56.28 23.144C57.4904 23.144 58.5317 24.1136 58.5317 25.5376C58.5317 26.9424 57.4904 27.9296 56.28 27.9296ZM45.8742 22.7992V24.4768H49.9279C49.8093 25.4144 49.4924 26.1032 49.0063 26.584C48.4146 27.164 47.4931 27.808 45.8742 27.808C43.3796 27.808 41.4261 25.8184 41.4261 23.3528C41.4261 20.8872 43.3796 18.8968 45.8742 18.8968C47.2231 18.8968 48.2045 19.4176 48.9288 20.0936L50.1251 18.9112C49.112 17.9552 47.7643 17.22 45.8742 17.22C42.4533 17.22 39.5784 19.9712 39.5784 23.3528C39.5784 26.7336 42.4533 29.4848 45.8742 29.4848C47.7232 29.4848 49.112 28.8856 50.2037 27.7624C51.3225 26.6568 51.6712 25.1024 51.6712 23.8464C51.6712 23.4568 51.6383 23.0984 51.5796 22.7992H45.8742ZM88.4248 24.1C88.0952 23.2168 87.0777 21.5888 85.0041 21.5888C82.9497 21.5888 81.2392 23.1888 81.2392 25.5376C81.2392 27.7488 82.932 29.4848 85.2016 29.4848C87.036 29.4848 88.0952 28.3792 88.5304 27.7352L87.1688 26.8384C86.7144 27.4944 86.096 27.9296 85.2016 27.9296C84.3128 27.9296 83.6752 27.5272 83.2664 26.7336L88.6097 24.5488L88.4248 24.1ZM82.9776 25.4144C82.932 23.892 84.1745 23.112 85.0641 23.112C85.7617 23.112 86.3528 23.4568 86.5504 23.9504L82.9776 25.4144ZM78.6355 29.2448H80.3921V17.6416H78.6355V29.2448ZM75.7593 22.468H75.7006C75.3062 22.0064 74.5537 21.5888 73.6004 21.5888C71.6 21.5888 69.7711 23.3248 69.7711 25.5504C69.7711 27.7624 71.6 29.4848 73.6004 29.4848C74.5537 29.4848 75.3062 29.0632 75.7006 28.588H75.7593V29.1536C75.7593 30.6632 74.9435 31.4744 73.6275 31.4744C72.5545 31.4744 71.8889 30.7088 71.6141 30.0648L70.0869 30.6952C70.5271 31.7416 71.6928 33.0296 73.6275 33.0296C75.6865 33.0296 77.424 31.832 77.424 28.9184V21.8288H75.7593V22.468ZM73.7507 27.9296C72.5404 27.9296 71.5272 26.9288 71.5272 25.5504C71.5272 24.1592 72.5404 23.144 73.7507 23.144C74.9435 23.144 75.8838 24.1592 75.8838 25.5504C75.8838 26.9288 74.9435 27.9296 73.7507 27.9296ZM96.6472 17.6416H92.4472V29.2448H94.1985V24.848H96.6472C98.5928 24.848 100.5 23.4568 100.5 21.244C100.5 19.0328 98.588 17.6416 96.6472 17.6416ZM96.6928 23.2344H94.1985V19.2552H96.6928C98.0008 19.2552 98.7472 20.3288 98.7472 21.244C98.7472 22.1424 98.0008 23.2344 96.6928 23.2344ZM107.52 21.5672C106.255 21.5672 104.939 22.1192 104.398 23.3432L105.952 23.9872C106.286 23.3432 106.902 23.1344 107.552 23.1344C108.461 23.1344 109.382 23.6736 109.396 24.6264V24.748C109.079 24.5672 108.401 24.2992 107.566 24.2992C105.892 24.2992 104.186 25.2104 104.186 26.9096C104.186 28.4648 105.558 29.4664 107.099 29.4664C108.278 29.4664 108.928 28.9408 109.337 28.3288H109.396V29.2256H111.088V24.7752C111.088 22.7176 109.534 21.5672 107.52 21.5672ZM107.309 27.9248C106.736 27.9248 105.938 27.6448 105.938 26.9424C105.938 26.044 106.934 25.7 107.795 25.7C108.566 25.7 108.928 25.868 109.396 26.0896C109.259 27.164 108.323 27.9248 107.309 27.9248ZM117.251 21.8208L115.238 26.8504H115.178L113.097 21.8208H111.208L114.335 28.8496L112.55 32.7616H114.381L119.2 21.8208H117.251ZM101.463 29.2448H103.219V17.6416H101.463V29.2448Z" fill="white"/>
</mask>
<g mask="url(#mask1)">
</g>
<path fill-rule="evenodd" clip-rule="evenodd" d="M10.8354 8.3952C10.5596 8.6808 10.3999 9.1256 10.3999 9.7008V30.2288C10.3999 30.804 10.5596 31.248 10.8354 31.5336L10.9035 31.5968L22.542 20.0984V19.8264L10.9035 8.328L10.8354 8.3952Z" fill="url(#paint0_linear)"/>
<path fill-rule="evenodd" clip-rule="evenodd" d="M26.4172 23.9328L22.542 20.0984V19.8264L26.4218 15.992L26.5087 16.0416L31.1035 18.6256C32.4149 19.3592 32.4149 20.5656 31.1035 21.304L26.5087 23.8832L26.4172 23.9328Z" fill="url(#paint1_linear)"/>
<path fill-rule="evenodd" clip-rule="evenodd" d="M26.5088 23.8832L22.5421 19.9624L10.8354 31.5336C11.271 31.9864 11.9812 32.0408 12.7889 31.5888L26.5088 23.8832Z" fill="url(#paint2_linear)"/>
<path fill-rule="evenodd" clip-rule="evenodd" d="M26.5088 16.0416L12.7889 8.336C11.9812 7.888 11.271 7.9432 10.8354 8.3952L22.5421 19.9624L26.5088 16.0416Z" fill="url(#paint3_linear)"/>
<path d="M40.7749 10.864V10.1728C40.7749 9.42801 40.9742 8.84081 41.3726 8.41121C41.7736 7.97841 42.3192 7.76241 43.0093 7.76241C43.3323 7.76241 43.6239 7.81201 43.8843 7.91121C44.1473 8.00961 44.3622 8.14401 44.5288 8.31361C44.6955 8.48001 44.8244 8.66881 44.9155 8.88001C45.0093 9.09041 45.0614 9.31441 45.0718 9.55121H44.1499C44.1109 9.23681 43.9859 8.99441 43.7749 8.82481C43.564 8.65281 43.3049 8.56721 42.9976 8.56721C42.6174 8.56721 42.3101 8.70161 42.0757 8.96961C41.8414 9.23761 41.7242 9.64001 41.7242 10.1768V10.864C41.7242 11.3744 41.8296 11.7752 42.0406 12.0672C42.2541 12.356 42.5731 12.5008 42.9976 12.5008C43.3491 12.5008 43.6343 12.4048 43.8531 12.212C44.0718 12.0168 44.1812 11.772 44.1812 11.4776V11.0904H43.0015V10.356H45.0835V11.4304C45.0835 11.5968 45.0614 11.764 45.0171 11.9304C44.9728 12.0968 44.8987 12.2648 44.7945 12.4344C44.6903 12.6008 44.5601 12.748 44.4039 12.876C44.2476 13.0032 44.0471 13.1072 43.8023 13.188C43.5601 13.2664 43.2893 13.3056 42.9898 13.3056C42.258 13.3056 41.7059 13.0856 41.3335 12.6456C40.9611 12.2056 40.7749 11.6112 40.7749 10.864ZM46.6883 13.2V7.86801H50.0555V8.65681H47.6298V10.1216H49.9111V10.868H47.6298V12.4112H50.0555V13.2H46.6883ZM51.176 8.66881V7.86801H55.2112V8.66881H53.6604V13.2H52.7229V8.66881H51.176ZM58.7334 13.2V7.86801H59.6787V13.2H58.7334ZM60.9788 8.66881V7.86801H65.014V8.66881H63.4632V13.2H62.5257V8.66881H60.9788ZM68.3252 10.9112V10.2C68.3252 9.44481 68.5258 8.84961 68.9268 8.41521C69.3279 7.98001 69.8747 7.76241 70.5675 7.76241C71.2602 7.76241 71.8057 7.98001 72.2042 8.41521C72.6026 8.84961 72.8018 9.44481 72.8018 10.2V10.9112C72.8018 11.6608 72.6013 12.248 72.2003 12.6728C71.8018 13.0944 71.2536 13.3056 70.5557 13.3056C69.8604 13.3056 69.3148 13.0944 68.919 12.6728C68.5231 12.2504 68.3252 11.6632 68.3252 10.9112ZM69.2783 10.9152C69.2783 11.436 69.3955 11.8312 69.6299 12.1024C69.8643 12.3704 70.1755 12.5048 70.5635 12.5048C70.949 12.5048 71.2588 12.3704 71.4932 12.1024C71.7276 11.8312 71.8448 11.436 71.8448 10.9152V10.192C71.8448 9.66881 71.7263 9.26641 71.4893 8.98481C71.2549 8.70401 70.9463 8.56321 70.5635 8.56321C70.1781 8.56321 69.8669 8.70401 69.6299 8.98481C69.3955 9.26641 69.2783 9.66881 69.2783 10.192V10.9152ZM74.4027 13.2V7.86801H75.2191L77.6683 11.5984H77.6996V7.86801H78.5981V13.2H77.7895L75.3324 9.45761H75.3051V13.2H74.4027Z" fill="white"/>
<defs>
<linearGradient id="paint0_linear" x1="21.5086" y1="30.4424" x2="2.99513" y2="25.342" gradientUnits="userSpaceOnUse">
<stop stop-color="#00A0FF"/>
<stop offset="0.0066" stop-color="#00A1FF"/>
<stop offset="0.2601" stop-color="#00BEFF"/>
<stop offset="0.5122" stop-color="#00D2FF"/>
<stop offset="0.7604" stop-color="#00DFFF"/>
<stop offset="1" stop-color="#00E3FF"/>
</linearGradient>
<linearGradient id="paint1_linear" x1="32.811" y1="19.9608" x2="10.0864" y2="19.9608" gradientUnits="userSpaceOnUse">
<stop stop-color="#FFE000"/>
<stop offset="0.4087" stop-color="#FFBD00"/>
<stop offset="0.7754" stop-color="#FFA500"/>
<stop offset="1" stop-color="#FF9C00"/>
</linearGradient>
<linearGradient id="paint2_linear" x1="24.3518" y1="17.8312" x2="9.89986" y2="-7.36737" gradientUnits="userSpaceOnUse">
<stop stop-color="#FF3A44"/>
<stop offset="1" stop-color="#C31162"/>
</linearGradient>
<linearGradient id="paint3_linear" x1="7.88869" y1="38.3632" x2="14.3388" y2="27.1104" gradientUnits="userSpaceOnUse">
<stop stop-color="#32A071"/>
<stop offset="0.0685" stop-color="#2DA771"/>
<stop offset="0.4762" stop-color="#15CF74"/>
<stop offset="0.8009" stop-color="#06E775"/>
<stop offset="1" stop-color="#00F076"/>
</linearGradient>
</defs>
</svg>
