<svg width="39" height="35" viewBox="0 0 39 35" fill="none" xmlns="http://www.w3.org/2000/svg">
<path opacity="0.5" d="M38.9 11.7V7.90002H35.1V4.09998C35.1 1.99998 33.4 0.299988 31.3 0.299988H4.70001C2.60001 0.299988 0.900024 1.99998 0.900024 4.09998V30.7C0.900024 32.8 2.60001 34.5 4.70001 34.5H31.3C33.4 34.5 35.1 32.8 35.1 30.7V26.9H38.9V23.1H35.1V19.3H38.9V15.5H35.1V11.7H38.9V11.7ZM31.3 30.7H4.70001V4.09998H31.3V30.7ZM8.5 19.3H18V26.9H8.5V19.3ZM19.9 7.90002H27.5V13.6H19.9V7.90002ZM8.5 7.90002H18V17.4H8.5V7.90002ZM19.9 15.5H27.5V26.9H19.9V15.5Z" fill="white"/>
<path d="M18 7.90002H8.5V17.4H18V7.90002Z" fill="white"/>
<path d="M18 19.3H8.5V26.9H18V19.3Z" fill="white"/>
<path d="M27.5 7.90002H19.9V13.6H27.5V7.90002Z" fill="white"/>
<path d="M27.5 15.5H19.9V26.9H27.5V15.5Z" fill="white"/>
</svg>
