<svg width="19" height="18" viewBox="0 0 19 18" fill="none" xmlns="http://www.w3.org/2000/svg">
<path fill-rule="evenodd" clip-rule="evenodd" d="M0 9.22856C-0.000255138 13.2012 2.58649 16.7282 6.42154 17.9843C6.89141 18.0685 7.06268 17.7839 7.06268 17.5391C7.06268 17.3199 7.05479 16.7396 7.05028 15.97C4.4384 16.527 3.8874 14.7331 3.8874 14.7331C3.45922 13.6668 2.844 13.3822 2.844 13.3822C1.99103 12.8108 2.90823 12.8219 2.90823 12.8219C3.85135 12.8872 4.34713 13.7731 4.34713 13.7731C5.18433 15.1827 6.54436 14.7752 7.07958 14.5394C7.16522 13.9436 7.40747 13.5372 7.67677 13.3058C5.5911 13.0732 3.39838 12.2815 3.39838 8.74576C3.39838 7.73808 3.76458 6.91422 4.36516 6.26975C4.26826 6.0361 3.946 5.09707 4.45755 3.82695C4.45755 3.82695 5.2463 3.57891 7.03902 4.77373C7.80546 4.5684 8.5962 4.46377 9.39061 4.46257C10.1846 4.46361 10.9749 4.56787 11.7411 4.77262C13.5327 3.57891 14.3214 3.82695 14.3214 3.82695C14.833 5.09707 14.5107 6.0361 14.4138 6.26975C15.0166 6.91422 15.3795 7.73808 15.3795 8.74576C15.3795 12.2904 13.1834 13.071 11.0921 13.2991C11.429 13.5837 11.7298 14.1474 11.7298 15.0078C11.7298 16.2413 11.7185 17.2368 11.7185 17.5391C11.7185 17.7861 11.8876 18.0729 12.3631 17.9832C16.9132 16.4911 19.5876 11.8687 18.5656 7.263C17.5437 2.65725 13.1539 -0.451254 8.38478 0.0536596C3.61564 0.558573 0.00030301 4.51459 0 9.22856H0Z" fill="white"/>
</svg>
