<svg width="20" height="20" viewBox="0 0 20 20" fill="none" xmlns="http://www.w3.org/2000/svg">
<path d="M14.5 4.10795C15.6738 3.91931 16.8602 3.82053 18.049 3.81245C18.1512 3.81088 18.2498 3.84969 18.3235 3.92045C18.3958 3.99053 18.4369 4.08675 18.4375 4.18745V16.0134C18.4355 16.2197 18.2688 16.3864 18.0625 16.3884C11.8428 16.4657 10 18.4374 10 18.4374V5.86145C10 5.86145 8.15875 3.89195 1.951 3.81245C1.84833 3.81048 1.74907 3.84932 1.675 3.92045C1.60324 3.99078 1.56272 4.08697 1.5625 4.18745V16.0134C1.56453 16.2197 1.73124 16.3864 1.9375 16.3884C8.15725 16.4657 10 18.4374 10 18.4374" stroke="#7B7C7E" stroke-width="2" stroke-linecap="round" stroke-linejoin="round"/>
<path d="M10 18.0677C10.1185 17.0957 10.549 16.1883 11.227 15.4817C12.0994 14.5407 13.2435 13.895 14.5 13.6345V1.93224C14.4977 1.80968 14.4333 1.69669 14.329 1.63224C14.2185 1.5628 14.0833 1.54474 13.9585 1.58274C12.9061 1.88514 11.9597 2.47682 11.227 3.29049C10.5493 3.99667 10.1188 4.90348 10 5.87499" stroke="#090909" stroke-width="2" stroke-linecap="round" stroke-linejoin="round"/>
</svg>
