<svg width="27" height="24" viewBox="0 0 27 24" fill="none" xmlns="http://www.w3.org/2000/svg">
<path fill-rule="evenodd" clip-rule="evenodd" d="M4.5105 0C2.0205 0 0 2.01345 0 4.50375V19.4963C0 21.9765 2.022 24 4.5105 24H22.4895C24.9795 24 27 21.9865 27 19.4963V4.50375C27 2.0235 24.978 0 22.4895 0H4.5105ZM3 19.4963V9H24V19.4963C24 20.3268 23.325 21 22.4895 21H4.5105C3.6765 21 3 20.3163 3 19.4963ZM24 6H3V4.50375C3 3.6732 3.675 3 4.5105 3H22.4895C23.3235 3 24 3.6837 24 4.50375V6ZM19.5 12C18.666 12 18 12.6778 18 13.5141V16.4859C18 17.3349 18.672 18 19.5 18C20.334 18 21 17.3221 21 16.4859V13.5141C21 12.6651 20.328 12 19.5 12Z" fill="#939BA1"/>
</svg>
