<svg width="20" height="20" viewBox="0 0 20 20" fill="none" xmlns="http://www.w3.org/2000/svg">
<path d="M14.5 4.10807C15.6738 3.91944 16.8602 3.82065 18.049 3.81257C18.1512 3.811 18.2498 3.84981 18.3235 3.92057C18.3958 3.99066 18.4369 4.08688 18.4375 4.18757V16.0136C18.4355 16.2198 18.2688 16.3865 18.0625 16.3886C11.8428 16.4658 10 18.4376 10 18.4376V5.86157C10 5.86157 8.15875 3.89207 1.951 3.81257C1.84833 3.8106 1.74907 3.84944 1.675 3.92057C1.60324 3.99091 1.56272 4.08709 1.5625 4.18757V16.0136C1.56453 16.2198 1.73124 16.3865 1.9375 16.3886C8.15725 16.4658 10 18.4376 10 18.4376" stroke="#7B7C7E" stroke-width="2" stroke-linecap="round" stroke-linejoin="round"/>
<path d="M10 18.0677C10.1185 17.0957 10.549 16.1883 11.227 15.4817C12.0994 14.5407 13.2435 13.895 14.5 13.6345V1.93224C14.4977 1.80968 14.4333 1.69669 14.329 1.63224C14.2185 1.5628 14.0833 1.54474 13.9585 1.58274C12.9061 1.88514 11.9597 2.47682 11.227 3.29049C10.5493 3.99667 10.1188 4.90348 10 5.87499" stroke="white" stroke-width="2" stroke-linecap="round" stroke-linejoin="round"/>
</svg>
