<svg width="24" height="24" viewBox="0 0 24 24" fill="none" xmlns="http://www.w3.org/2000/svg">
<path fill-rule="evenodd" clip-rule="evenodd" d="M8.769 3H12.276C14.484 3 16.0215 3.41025 17.214 4.0479C18.402 4.68345 19.317 5.598 19.9515 6.7863C20.589 7.9785 21 9.5163 21 11.724V12.276C21 14.4837 20.589 16.0215 19.9515 17.2137C19.317 18.402 18.402 19.3166 17.214 19.9521C16.0215 20.5898 14.484 21 12.276 21H8.769C7.8465 21 7.38 20.9497 7.1265 20.901C6.945 20.8659 6.864 20.8323 6.717 20.7535C6.507 20.6409 6.3585 20.4936 6.246 20.2831C6.168 20.1358 6.1335 20.0547 6.099 19.8731C6.0495 19.6203 6 19.1539 6 18.2313V16.5H3V18.2313C3 20.2373 3.2085 20.9646 3.6015 21.698C3.993 22.4313 4.569 23.0067 5.3025 23.399C6.036 23.7912 6.7635 24 8.769 24H12.276C14.8725 24 16.917 23.5126 18.6285 22.5975C20.34 21.6825 21.6825 20.3396 22.5975 18.6285C23.5125 16.9173 24 14.8728 24 12.276V11.724C24 9.1272 23.5125 7.0827 22.5975 5.3715C21.6825 3.66045 20.34 2.3175 18.6285 1.4025C16.917 0.48735 14.8725 0 12.276 0H8.769C6.7635 0 6.036 0.2088 5.3025 0.60105C4.569 0.9933 3.993 1.5687 3.6015 2.30205C3.2085 3.0354 3 3.76275 3 5.7687V7.5H6V5.7687C6 4.84605 6.0495 4.3797 6.099 4.12695C6.1335 3.9453 6.168 3.86415 6.246 3.71685C6.3585 3.5064 6.507 3.3591 6.717 3.24645C6.864 3.1677 6.945 3.1341 7.1265 3.099C7.38 3.05025 7.8465 3 8.769 3ZM0 12C0 11.1715 0.672 10.5 1.5 10.5H10.5C11.328 10.5 12 11.1715 12 12C12 12.8285 11.328 13.5 10.5 13.5H1.5C0.672 13.5 0 12.8285 0 12Z" fill="#939BA1"/>
</svg>
