<svg width="16" height="16" viewBox="0 0 16 16" fill="none" xmlns="http://www.w3.org/2000/svg">
<path fill-rule="evenodd" clip-rule="evenodd" d="M0 8C0 3.58177 3.58171 0 8 0C12.4183 0 16 3.58177 16 8C16 12.4183 12.4183 16 8 16C3.58171 16 0 12.4183 0 8ZM9.56597 7.70546C9.07209 7.73297 8.67037 7.69117 8.26866 7.64934L8.26864 7.64934C7.86693 7.60754 7.46522 7.56574 6.97131 7.59326C6.73429 7.60646 6.48294 7.63986 6.24414 7.6958C6.38977 5.93134 7.6828 4.38757 9.44117 4.2896C10.5201 4.22943 11.5985 4.87294 11.6571 5.91746C11.7147 6.94406 10.9041 7.63086 9.56597 7.70546ZM6.921 11.425C5.89877 11.4802 4.87714 10.8903 4.82166 9.9328C4.76709 8.99174 5.53506 8.3622 6.80269 8.29383C7.27057 8.2686 7.65117 8.30691 8.03174 8.34523C8.41234 8.38357 8.79294 8.42189 9.26086 8.39666C9.48543 8.38457 9.72351 8.35391 9.94974 8.30263C9.81183 9.92006 8.5868 11.3352 6.921 11.425Z" fill="#4360DF"/>
</svg>
