<svg width="200" height="65" viewBox="0 0 200 65" fill="none" xmlns="http://www.w3.org/2000/svg">
<g clip-path="url(#clip0)">
<path d="M48.1554 61.5331C47.3356 62.3533 46.152 62.9807 44.6029 63.4186C43.0531 63.8577 41.1956 64.0763 39.0331 64.0763C36.8692 64.0763 34.823 63.755 32.893 63.112C30.9637 62.4691 29.3848 60.9184 28.1568 58.4628L19.4726 40.7444C18.5955 38.9322 17.8064 37.2216 17.1045 35.6129C16.4025 34.0048 15.6417 32.1475 14.8235 30.0424L14.2974 30.1304C14.53 33.2883 14.6615 36.5045 14.692 39.778C14.7211 43.0544 14.7363 46.2699 14.7363 49.427V63.0228C14.0918 63.1984 13.1138 63.3727 11.7978 63.5495C10.4819 63.7247 9.17971 63.8127 7.89427 63.8127C6.60737 63.8127 5.46653 63.7247 4.47322 63.5495C3.47845 63.3735 2.65952 63.0228 2.01717 62.4973C1.37336 61.9706 0.877061 61.256 0.526088 60.3487C0.175121 59.443 0 58.2586 0 56.7958V12.9387C0.817474 11.771 2.07457 10.8932 3.77128 10.3075C5.46653 9.724 7.28025 9.43045 9.20947 9.43045C11.3727 9.43045 13.4335 9.76834 15.3932 10.4398C17.3515 11.1126 18.9153 12.6473 20.0859 15.0445L28.8572 32.763C29.735 34.5767 30.5234 36.2872 31.2253 37.8945C31.9273 39.504 32.6867 41.3599 33.5063 43.4645L33.9452 43.3765C33.7112 40.2184 33.5644 37.0618 33.5063 33.9046C33.4475 30.7465 33.4184 27.5893 33.4184 24.4313V10.2188C34.0614 10.0445 35.041 9.86859 36.3569 9.69276C37.6729 9.51765 38.9736 9.42969 40.2605 9.42969C42.8337 9.42969 44.7912 9.88388 46.1377 10.7893C47.4817 11.6961 48.1545 13.5825 48.1545 16.4469V61.5331H48.1554Z" fill="#2E348D"/>
<path d="M93.2901 10.2188C93.6985 10.8633 94.0648 11.7251 94.3873 12.807C94.7078 13.8883 94.8699 15.0139 94.8699 16.183C94.8699 18.464 94.3873 20.0858 93.4223 21.0508C92.4572 22.0158 91.1553 22.4983 89.5187 22.4983H71.0985V32.4105H90.3082C90.7751 33.055 91.1697 33.9022 91.4918 34.9537C91.8122 36.0066 91.9743 37.1184 91.9743 38.2875C91.9743 40.5103 91.4918 42.1024 90.5276 43.0673C89.5625 44.0323 88.2602 44.5149 86.624 44.5149H71.2737V63.0227C70.6299 63.1982 69.6206 63.3726 68.2471 63.5494C66.8724 63.7246 65.5128 63.8126 64.1684 63.8126C62.8219 63.8126 61.6383 63.709 60.616 63.5052C59.592 63.3014 58.7301 62.9355 58.0282 62.4083C57.3263 61.8816 56.8004 61.1519 56.4492 60.2147C56.0985 59.2812 55.9233 58.0521 55.9233 56.5321V18.3768C55.9233 15.8633 56.6534 13.8752 58.1162 12.4125C59.5777 10.9512 61.5663 10.2188 64.0804 10.2188H93.2901Z" fill="#2E348D"/>
<path d="M101.271 22.4994C100.861 21.8563 100.482 20.9793 100.13 19.8682C99.7806 18.7586 99.6042 17.5873 99.6042 16.3593C99.6042 14.079 100.116 12.4426 101.139 11.4471C102.162 10.4538 103.491 9.95605 105.129 9.95605H143.373C143.782 10.6006 144.162 11.4777 144.513 12.5873C144.864 13.6983 145.041 14.8682 145.041 16.0955C145.041 18.3764 144.527 20.0143 143.506 21.0076C142.482 22.0031 141.151 22.4994 139.514 22.4994H129.778V63.0236C129.133 63.1996 128.125 63.3739 126.752 63.5503C125.377 63.7255 124.017 63.8135 122.674 63.8135C121.328 63.8135 120.143 63.7103 119.122 63.5061C118.096 63.3027 117.235 62.9364 116.534 62.4097C115.832 61.883 115.305 61.1533 114.955 60.216C114.604 59.2821 114.429 58.0535 114.429 56.5331V22.4994H101.271Z" fill="#2E348D"/>
<path d="M159.341 9.95703L164.686 18.546H164.722V9.95703H167.357V22.7605H164.543L159.216 14.189H159.181V22.7605H156.544V9.95703H159.341Z" fill="#2E348D"/>
<path d="M168.451 9.95703H171.608L174.603 15.0137L177.58 9.95703H180.718L175.965 17.8462V22.7605H173.151V17.7757L168.451 9.95703Z" fill="#2E348D"/>
<path d="M190.007 13.3728C189.84 13.1032 189.629 12.8678 189.378 12.6643C189.128 12.4608 188.843 12.3024 188.526 12.1891C188.21 12.0757 187.877 12.019 187.532 12.019C186.897 12.019 186.36 12.1411 185.918 12.3867C185.475 12.6316 185.115 12.96 184.842 13.3728C184.567 13.7848 184.367 14.2542 184.241 14.781C184.116 15.3071 184.053 15.8513 184.053 16.4123C184.053 16.95 184.116 17.4732 184.241 17.9811C184.367 18.4891 184.567 18.9468 184.842 19.3538C185.116 19.76 185.475 20.0862 185.918 20.3311C186.359 20.576 186.897 20.6988 187.532 20.6988C188.392 20.6988 189.064 20.4358 189.548 19.9097C190.033 19.3835 190.328 18.6896 190.437 17.83H193.163C193.091 18.6307 192.905 19.3545 192.606 19.9998C192.307 20.645 191.912 21.1951 191.423 21.6492C190.931 22.1034 190.358 22.4507 189.701 22.6898C189.045 22.9281 188.321 23.0488 187.532 23.0488C186.551 23.0488 185.67 22.8787 184.886 22.5372C184.103 22.1964 183.443 21.7277 182.904 21.1297C182.367 20.5317 181.953 19.829 181.667 19.0224C181.381 18.2158 181.237 17.3453 181.237 16.413C181.237 15.4575 181.38 14.5688 181.667 13.7499C181.954 12.931 182.367 12.2174 182.904 11.607C183.442 10.9974 184.102 10.52 184.886 10.1719C185.669 9.82527 186.551 9.65234 187.532 9.65234C188.237 9.65234 188.904 9.75407 189.531 9.95752C190.158 10.1603 190.721 10.4567 191.217 10.8448C191.713 11.2335 192.123 11.7145 192.445 12.2879C192.768 12.8627 192.971 13.5195 193.055 14.2607H190.328C190.28 13.9381 190.174 13.6409 190.007 13.3728Z" fill="#2E348D"/>
<path d="M194.352 32.699H155.355C152.35 32.699 149.905 30.2546 149.905 27.2491V5.44981C149.905 2.44443 152.35 0 155.355 0H194.352C197.357 0 199.803 2.44443 199.803 5.44981V27.2491C199.803 30.2546 197.357 32.699 194.352 32.699ZM155.355 2.17993C153.553 2.17993 152.085 3.64703 152.085 5.44981V27.2491C152.085 29.052 153.553 30.5191 155.355 30.5191H194.352C196.155 30.5191 197.622 29.052 197.622 27.2491V5.44981C197.622 3.64703 196.155 2.17993 194.352 2.17993H155.355Z" fill="#2E348D"/>
</g>
<defs>
<clipPath id="clip0">
<rect width="200" height="64.4211" fill="white"/>
</clipPath>
</defs>
</svg>
