<svg width="654" height="399" viewBox="0 0 654 399" fill="none" xmlns="http://www.w3.org/2000/svg">
<path d="M537.35 167.503V190.926L560.074 196.607C595.88 205.559 624 240.731 624 280.973C624 328.36 583.791 368.569 536.404 368.569H535.666H534.927H534.187H533.446H532.703H531.96H531.216H530.47H529.724H528.976H528.228H527.478H526.728H525.976H525.223H524.47H523.715H522.959H522.202H521.445H520.686H519.926H519.166H518.404H517.641H516.878H516.113H515.348H514.581H513.814H513.045H512.276H511.506H510.734H509.962H509.189H508.415H507.64H506.864H506.087H505.31H504.531H503.752H502.971H502.19H501.408H500.625H499.841H499.056H498.271H497.484H496.697H495.909H495.12H494.33H493.539H492.748H491.955H491.162H490.368H489.573H488.777H487.981H487.184H486.386H485.587H484.787H483.987H483.186H482.384H481.581H480.777H479.973H479.168H478.362H477.556H476.749H475.941H475.132H474.323H473.512H472.701H471.89H471.077H470.264H469.451H468.636H467.821H467.005H466.189H465.372H464.554H463.735H462.916H462.096H461.276H460.455H459.633H458.81H457.987H457.164H456.339H455.514H454.689H453.862H453.036H452.208H451.38H450.551H449.722H448.892H448.062H447.231H446.4H445.567H444.735H443.901H443.068H442.233H441.398H440.563H439.727H438.89H438.053H437.216H436.378H435.539H434.7H433.86H433.02H432.179H431.338H430.497H429.655H428.812H427.969H427.125H426.281H425.437H424.592H423.747H422.901H422.054H421.208H420.361H419.513H418.665H417.817H416.968H416.118H415.269H414.419H413.568H412.717H411.866H411.014H410.162H409.31H408.457H407.604H406.751H405.897H405.043H404.188H403.333H402.478H401.622H400.766H399.91H399.054H398.197H397.339H396.482H395.624H394.766H393.908H393.049H392.19H391.331H390.471H389.611H388.751H387.891H387.03H386.169H385.308H384.447H383.585H382.724H381.862H380.999H380.137H379.274H378.411H377.548H376.685H375.821H374.957H374.093H373.229H372.365H371.5H370.636H369.771H368.906H368.041H367.175H366.31H365.444H364.579H363.713H362.847H361.98H361.114H360.248H359.381H358.515H357.648H356.781H355.914H355.047H354.18H353.313H352.446H351.578H350.711H349.843H348.976H348.108H347.241H346.373H345.505H344.638H343.77H342.902H342.034H341.166H340.298H339.43H338.563H337.695H336.827H335.959H335.091H334.223H333.355H332.487H331.62H330.752H329.884H329.017H328.149H327.281H326.414H325.546H324.679H323.812H322.944H322.077H321.21H320.343H319.476H318.61H317.743H316.876H316.01H315.144H314.277H313.411H312.545H311.679H310.814H309.948H309.083H308.217H307.352H306.487H305.623H304.758H303.894H303.029H302.165H301.301H300.438H299.574H298.711H297.848H296.985H296.122H295.26H294.398H293.536H292.674H291.812H290.951H290.09H289.229H288.369H287.509H286.649H285.789H284.929H284.07H283.211H282.353H281.494H280.636H279.779H278.921H278.064H277.208H276.351H275.495H274.639H273.784H272.929H272.074H271.219H270.365H269.511H268.658H267.805H266.952H266.1H265.248H264.397H263.546H262.695H261.845H260.995H260.145H259.296H258.447H257.599H256.751H255.904H255.057H254.21H253.364H252.518H251.673H250.828H249.984H249.14H248.297H247.454H246.612H245.77H244.928H244.087H243.247H242.407H241.567H240.728H239.89H239.052H238.215H237.378H236.541H235.705H234.87H234.035H233.201H232.368H231.535H230.702H229.87H229.039H228.208H227.378H226.548H225.719H224.891H224.063H223.236H222.409H221.583H220.758H219.933H219.109H218.285H217.463H216.64H215.819H214.998H214.178H213.358H212.539H211.721H210.903H210.086H209.27H208.454H207.639H206.825H206.012H205.199H204.387H203.575H202.765H201.955H201.146H200.337H199.529H198.722H197.916H197.111H196.306H195.502H194.699H193.896H193.095H192.294H191.493H190.694H189.896H189.098H188.301H187.505H186.709H185.915H185.121H184.328H183.536H182.745H181.954H181.165H180.376H179.588H178.801H178.015H177.23H176.445H175.662H174.879H174.097H173.316H172.536H171.757H170.979H170.201H169.425H168.649H167.875H167.101H166.328H165.556H164.785H164.015H163.246H162.478H161.711H160.945H160.18H159.416H158.652H157.89H157.129H156.368H155.609H154.851H154.093H153.337H152.581H151.827H151.074H150.321H149.57H148.82H148.071H147.322H146.575H145.829H145.084H144.34H143.597H142.855H142.115H141.375H140.636H139.899H139.162H138.427H137.693H136.959H136.227H135.496H134.766H134.038H133.31H132.584H131.858H131.134H130.411H129.689H128.968H128.249H127.53H126.813H126.097H125.382H124.668H123.956H123.244H122.534H121.825H121.117H120.41H119.705H119.001H118.298H117.596C70.2089 368.569 30 328.36 30 280.973C30 228.873 74.2971 188.581 127.338 193.261L150.664 195.319L158.324 173.19C172.292 132.838 214.185 106.913 256.739 114.512L278.183 118.341L288.463 99.1355C352.049 -19.671 537.35 25.231 537.35 163.377V163.377V163.378V163.379V163.38V163.38V163.381V163.381V163.382V163.383V163.383V163.384V163.385V163.386V163.387V163.388V163.389V163.39V163.391V163.392V163.394V163.395V163.396V163.398V163.399V163.4V163.402V163.403V163.405V163.407V163.408V163.41V163.412V163.413V163.415V163.417V163.419V163.421V163.423V163.425V163.427V163.429V163.432V163.434V163.436V163.438V163.441V163.443V163.446V163.448V163.451V163.453V163.456V163.458V163.461V163.464V163.467V163.469V163.472V163.475V163.478V163.481V163.484V163.487V163.49V163.493V163.497V163.5V163.503V163.506V163.51V163.513V163.516V163.52V163.523V163.527V163.531V163.534V163.538V163.542V163.545V163.549V163.553V163.557V163.561V163.565V163.569V163.573V163.577V163.581V163.585V163.589V163.593V163.597V163.602V163.606V163.61V163.615V163.619V163.624V163.628V163.633V163.637V163.642V163.647V163.651V163.656V163.661V163.666V163.67V163.675V163.68V163.685V163.69V163.695V163.7V163.705V163.71V163.716V163.721V163.726V163.731V163.737V163.742V163.747V163.753V163.758V163.764V163.769V163.775V163.78V163.786V163.792V163.797V163.803V163.809V163.815V163.82V163.826V163.832V163.838V163.844V163.85V163.856V163.862V163.868V163.874V163.88V163.887V163.893V163.899V163.905V163.912V163.918V163.925V163.931V163.937V163.944V163.95V163.957V163.964V163.97V163.977V163.984V163.99V163.997V164.004V164.011V164.017V164.024V164.031V164.038V164.045V164.052V164.059V164.066V164.073V164.08V164.087V164.095V164.102V164.109V164.116V164.124V164.131V164.138V164.146V164.153V164.16V164.168V164.175V164.183V164.191V164.198V164.206V164.213V164.221V164.229V164.236V164.244V164.252V164.26V164.268V164.276V164.283V164.291V164.299V164.307V164.315V164.323V164.331V164.339V164.348V164.356V164.364V164.372V164.38V164.389V164.397V164.405V164.414V164.422V164.43V164.439V164.447V164.456V164.464V164.473V164.481V164.49V164.498V164.507V164.515V164.524V164.533V164.542V164.55V164.559V164.568V164.577V164.585V164.594V164.603V164.612V164.621V164.63V164.639V164.648V164.657V164.666V164.675V164.684V164.693V164.703V164.712V164.721V164.73V164.739V164.749V164.758V164.767V164.777V164.786V164.795V164.805V164.814V164.824V164.833V164.843V164.852V164.862V164.871V164.881V164.89V164.9V164.91V164.919V164.929V164.939V164.948V164.958V164.968V164.978V164.987V164.997V165.007V165.017V165.027V165.037V165.047V165.057V165.067V165.077V165.087V165.097V165.107V165.117V165.127V165.137V165.147V165.157V165.167V165.178V165.188V165.198V165.208V165.218V165.229V165.239V165.249V165.26V165.27V165.28V165.291V165.301V165.312V165.322V165.332V165.343V165.353V165.364V165.374V165.385V165.395V165.406V165.417V165.427V165.438V165.448V165.459V165.47V165.48V165.491V165.502V165.513V165.523V165.534V165.545V165.556V165.567V165.577V165.588V165.599V165.61V165.621V165.632V165.643V165.654V165.664V165.675V165.686V165.697V165.708V165.719V165.73V165.742V165.753V165.764V165.775V165.786V165.797V165.808V165.819V165.83V165.842V165.853V165.864V165.875V165.886V165.898V165.909V165.92V165.931V165.943V165.954V165.965V165.976V165.988V165.999V166.01V166.022V166.033V166.045V166.056V166.067V166.079V166.09V166.102V166.113V166.125V166.136V166.148V166.159V166.171V166.182V166.194V166.205V166.217V166.228V166.24V166.251V166.263V166.275V166.286V166.298V166.309V166.321V166.333V166.344V166.356V166.368V166.379V166.391V166.403V166.414V166.426V166.438V166.45V166.461V166.473V166.485V166.497V166.508V166.52V166.532V166.544V166.555V166.567V166.579V166.591V166.603V166.615V166.626V166.638V166.65V166.662V166.674V166.686V166.698V166.709V166.721V166.733V166.745V166.757V166.769V166.781V166.793V166.805V166.817V166.829V166.841V166.853V166.864V166.876V166.888V166.9V166.912V166.924V166.936V166.948V166.96V166.972V166.984V166.996V167.008V167.02V167.032V167.044V167.056V167.068V167.08V167.092V167.105V167.117V167.129V167.141V167.153V167.165V167.177V167.189V167.201V167.213V167.225V167.237V167.249V167.261V167.273V167.285V167.297V167.31V167.322V167.334V167.346V167.358V167.37V167.382V167.394V167.406V167.418V167.43V167.442V167.455V167.467V167.479V167.491V167.503Z" stroke="#FF9C02" stroke-width="60"/>
</svg>
