<svg width="589" height="511" viewBox="0 0 589 511" fill="none" xmlns="http://www.w3.org/2000/svg">
<path d="M294.5 255.445L220.875 383.169L294.5 510.891L368.125 383.169L294.5 255.445Z" fill="#333333"/>
<path d="M368.125 127.724L294.5 255.445L368.125 383.169L441.75 255.445L368.125 127.724Z" fill="#666666"/>
<path d="M220.875 127.724L147.25 255.445L220.875 383.169L294.5 255.445L220.875 127.724Z" fill="#666666"/>
<path d="M441.75 0L368.125 127.724L441.75 255.445L515.375 127.724L441.75 0Z" fill="#8C8C8C"/>
<path d="M331.312 63.8606H257.688L220.875 127.724L294.5 255.445L368.125 127.724L331.312 63.8606Z" fill="#8C8C8C"/>
<path d="M147.25 0L73.625 127.724L147.25 255.445L220.875 127.724L147.25 0Z" fill="#8C8C8C"/>
<path d="M589 0H441.75L515.375 127.721L589 0Z" fill="#B2B2B2"/>
<path d="M147.25 0H0L73.625 127.721L147.25 0Z" fill="#B2B2B2"/>
</svg>
