<svg width="702" height="702" viewBox="0 0 702 702" fill="none" xmlns="http://www.w3.org/2000/svg">
<path fill-rule="evenodd" clip-rule="evenodd" d="M351 284C313.997 284 284 313.997 284 351C284 388.003 313.997 418 351 418C388.003 418 418 388.003 418 351C418 313.997 388.003 284 351 284Z" fill="#4360DF"/>
<path fill-rule="evenodd" clip-rule="evenodd" d="M353.177 348.063C356.537 348.414 359.898 348.764 364.03 348.533C375.225 347.908 382.006 342.156 381.525 333.559C381.035 324.811 372.013 319.421 362.986 319.925C348.275 320.746 337.458 333.675 336.239 348.452C338.237 347.984 340.34 347.704 342.323 347.594C346.455 347.363 349.816 347.713 353.177 348.063ZM324.339 367.187C324.803 375.206 333.35 380.146 341.902 379.684C355.838 378.932 366.087 367.08 367.241 353.535C365.348 353.964 363.356 354.221 361.478 354.322C357.563 354.533 354.379 354.212 351.195 353.891C348.011 353.57 344.827 353.25 340.912 353.461C330.307 354.033 323.882 359.306 324.339 367.187Z" fill="white"/>
<path opacity="0.8" fill-rule="evenodd" clip-rule="evenodd" d="M351 201C268.157 201 201 268.158 201 351C201 433.843 268.157 501 351 501C433.843 501 501 433.843 501 351C501 268.158 433.843 201 351 201Z" stroke="#4360DF"/>
<path opacity="0.6" fill-rule="evenodd" clip-rule="evenodd" d="M351 161C246.066 161 161 246.067 161 351C161 455.934 246.066 541 351 541C455.934 541 541 455.934 541 351C541 246.067 455.934 161 351 161Z" stroke="#4360DF"/>
<path opacity="0.4" fill-rule="evenodd" clip-rule="evenodd" d="M351 121C223.974 121 121 223.976 121 351C121 478.026 223.974 581 351 581C478.026 581 581 478.026 581 351C581 223.976 478.026 121 351 121Z" stroke="#4360DF"/>
<path opacity="0.2" fill-rule="evenodd" clip-rule="evenodd" d="M351 81C201.883 81 81 201.885 81 351C81 500.117 201.883 621 351 621C500.117 621 621 500.117 621 351C621 201.885 500.117 81 351 81Z" stroke="#4360DF"/>
<path opacity="0.1" fill-rule="evenodd" clip-rule="evenodd" d="M351 41C179.791 41 41 179.794 41 351C41 522.209 179.791 661 351 661C522.209 661 661 522.209 661 351C661 179.794 522.209 41 351 41Z" stroke="#4360DF"/>
<path opacity="0.05" fill-rule="evenodd" clip-rule="evenodd" d="M351 1C157.7 1 1 157.702 1 351C1 544.3 157.7 701 351 701C544.3 701 701 544.3 701 351C701 157.702 544.3 1 351 1Z" stroke="#4360DF"/>
<path fill-rule="evenodd" clip-rule="evenodd" d="M493.5 309C495.985 309 498 306.985 498 304.5C498 302.015 495.985 300 493.5 300C491.015 300 489 302.015 489 304.5C489 306.985 491.015 309 493.5 309Z" fill="#4360DF"/>
<path fill-rule="evenodd" clip-rule="evenodd" d="M332.5 206C334.985 206 337 203.985 337 201.5C337 199.015 334.985 197 332.5 197C330.015 197 328 199.015 328 201.5C328 203.985 330.015 206 332.5 206Z" fill="#4360DF"/>
<path fill-rule="evenodd" clip-rule="evenodd" d="M351.5 207C355.09 207 358 204.09 358 200.5C358 196.91 355.09 194 351.5 194C347.91 194 345 196.91 345 200.5C345 204.09 347.91 207 351.5 207Z" fill="#B7C2C4"/>
<path fill-rule="evenodd" clip-rule="evenodd" d="M255.5 471C257.985 471 260 468.985 260 466.5C260 464.015 257.985 462 255.5 462C253.015 462 251 464.015 251 466.5C251 468.985 253.015 471 255.5 471Z" fill="#090909"/>
<path fill-rule="evenodd" clip-rule="evenodd" d="M166.5 399C168.985 399 171 396.985 171 394.5C171 392.015 168.985 390 166.5 390C164.015 390 162 392.015 162 394.5C162 396.985 164.015 399 166.5 399Z" fill="#4360DF"/>
<path fill-rule="evenodd" clip-rule="evenodd" d="M163 385C166.314 385 169 382.314 169 379C169 375.686 166.314 373 163 373C159.686 373 157 375.686 157 379C157 382.314 159.686 385 163 385Z" fill="#4360DF"/>
<path fill-rule="evenodd" clip-rule="evenodd" d="M161.5 360C163.985 360 166 357.985 166 355.5C166 353.015 163.985 351 161.5 351C159.015 351 157 353.015 157 355.5C157 357.985 159.015 360 161.5 360Z" fill="#090909"/>
<path fill-rule="evenodd" clip-rule="evenodd" d="M502.5 470C504.985 470 507 467.985 507 465.5C507 463.015 504.985 461 502.5 461C500.015 461 498 463.015 498 465.5C498 467.985 500.015 470 502.5 470Z" fill="#090909"/>
<path fill-rule="evenodd" clip-rule="evenodd" d="M334 586C337.314 586 340 583.314 340 580C340 576.686 337.314 574 334 574C330.686 574 328 576.686 328 580C328 583.314 330.686 586 334 586Z" fill="#4360DF"/>
<path fill-rule="evenodd" clip-rule="evenodd" d="M152.5 471C154.985 471 157 468.985 157 466.5C157 464.015 154.985 462 152.5 462C150.015 462 148 464.015 148 466.5C148 468.985 150.015 471 152.5 471Z" fill="#4360DF"/>
<path fill-rule="evenodd" clip-rule="evenodd" d="M181.5 201C183.985 201 186 198.985 186 196.5C186 194.015 183.985 192 181.5 192C179.015 192 177 194.015 177 196.5C177 198.985 179.015 201 181.5 201Z" fill="#B7C2C4"/>
<path fill-rule="evenodd" clip-rule="evenodd" d="M443.5 145C445.985 145 448 142.985 448 140.5C448 138.015 445.985 136 443.5 136C441.015 136 439 138.015 439 140.5C439 142.985 441.015 145 443.5 145Z" fill="#B7C2C4"/>
<path fill-rule="evenodd" clip-rule="evenodd" d="M581.5 356C583.985 356 586 353.985 586 351.5C586 349.015 583.985 347 581.5 347C579.015 347 577 349.015 577 351.5C577 353.985 579.015 356 581.5 356Z" fill="#4360DF"/>
<path fill-rule="evenodd" clip-rule="evenodd" d="M560.5 185C562.985 185 565 182.985 565 180.5C565 178.015 562.985 176 560.5 176C558.015 176 556 178.015 556 180.5C556 182.985 558.015 185 560.5 185Z" fill="#4360DF"/>
<path fill-rule="evenodd" clip-rule="evenodd" d="M273 98C276.314 98 279 95.3137 279 92C279 88.6863 276.314 86 273 86C269.686 86 267 88.6863 267 92C267 95.3137 269.686 98 273 98Z" fill="#4360DF"/>
<path fill-rule="evenodd" clip-rule="evenodd" d="M42.5 330C44.9853 330 47 327.985 47 325.5C47 323.015 44.9853 321 42.5 321C40.0147 321 38 323.015 38 325.5C38 327.985 40.0147 330 42.5 330Z" fill="#B7C2C4"/>
<path fill-rule="evenodd" clip-rule="evenodd" d="M529.5 558C531.985 558 534 555.985 534 553.5C534 551.015 531.985 549 529.5 549C527.015 549 525 551.015 525 553.5C525 555.985 527.015 558 529.5 558Z" fill="#B7C2C4"/>
<path fill-rule="evenodd" clip-rule="evenodd" d="M631 491C634.314 491 637 488.314 637 485C637 481.686 634.314 479 631 479C627.686 479 625 481.686 625 485C625 488.314 627.686 491 631 491Z" fill="#4360DF"/>
<path fill-rule="evenodd" clip-rule="evenodd" d="M355.5 46C357.985 46 360 43.9853 360 41.5C360 39.0147 357.985 37 355.5 37C353.015 37 351 39.0147 351 41.5C351 43.9853 353.015 46 355.5 46Z" fill="#4360DF"/>
</svg>
