<svg width="654" height="316" viewBox="0 0 654 316" fill="none" xmlns="http://www.w3.org/2000/svg">
<path opacity="0.2" fill-rule="evenodd" clip-rule="evenodd" d="M320.668 314.912C401.753 314.912 467.485 249.363 467.485 168.505C467.485 87.6462 401.753 22.0974 320.668 22.0974C239.584 22.0974 173.852 87.6462 173.852 168.505C173.852 249.363 239.584 314.912 320.668 314.912Z" stroke="#4360DF" stroke-width="1.24439"/>
<path opacity="0.4" fill-rule="evenodd" clip-rule="evenodd" d="M320.15 272.49C378.026 272.49 424.944 225.703 424.944 167.987C424.944 110.272 378.026 63.4846 320.15 63.4846C262.273 63.4846 215.355 110.272 215.355 167.987C215.355 225.703 262.273 272.49 320.15 272.49Z" stroke="#4360DF" stroke-width="1.24439"/>
<path opacity="0.6" fill-rule="evenodd" clip-rule="evenodd" d="M320.15 242.485C361.408 242.485 394.855 209.131 394.855 167.988C394.855 126.844 361.408 93.4905 320.15 93.4905C278.891 93.4905 245.444 126.844 245.444 167.988C245.444 209.131 278.891 242.485 320.15 242.485Z" stroke="#4360DF" stroke-width="1.24439"/>
<path fill-rule="evenodd" clip-rule="evenodd" d="M320.15 209.375C343.071 209.375 361.653 190.845 361.653 167.988C361.653 145.13 343.071 126.6 320.15 126.6C297.228 126.6 278.647 145.13 278.647 167.988C278.647 190.845 297.228 209.375 320.15 209.375Z" fill="#4360DF"/>
<path fill-rule="evenodd" clip-rule="evenodd" d="M320.585 167.073C322.715 167.294 324.844 167.515 327.461 167.37C334.554 166.975 338.85 163.341 338.545 157.91C338.234 152.383 332.519 148.978 326.8 149.297C317.48 149.815 310.627 157.983 309.855 167.319C311.121 167.023 312.453 166.846 313.709 166.776C316.327 166.631 318.456 166.852 320.585 167.073ZM302.316 179.155C302.61 184.221 308.025 187.342 313.443 187.05C322.272 186.575 328.764 179.087 329.495 170.53C328.296 170.801 327.034 170.963 325.844 171.027C323.364 171.161 321.347 170.958 319.33 170.755C317.313 170.552 315.295 170.349 312.816 170.483C306.097 170.845 302.027 174.176 302.316 179.155Z" fill="white"/>
<path opacity="0.2" fill-rule="evenodd" clip-rule="evenodd" d="M542.137 288.857C590.925 288.857 630.476 249.416 630.476 200.764C630.476 152.112 590.925 112.672 542.137 112.672C493.349 112.672 453.799 152.112 453.799 200.764C453.799 249.416 493.349 288.857 542.137 288.857Z" stroke="#090909" stroke-width="1.24439"/>
<path opacity="0.4" fill-rule="evenodd" clip-rule="evenodd" d="M541.825 263.332C576.649 263.332 604.88 235.18 604.88 200.453C604.88 165.726 576.649 137.574 541.825 137.574C507.001 137.574 478.771 165.726 478.771 200.453C478.771 235.18 507.001 263.332 541.825 263.332Z" stroke="#090909" stroke-width="1.24439"/>
<path opacity="0.6" fill-rule="evenodd" clip-rule="evenodd" d="M541.825 245.277C566.65 245.277 586.775 225.209 586.775 200.453C586.775 175.697 566.65 155.628 541.825 155.628C517 155.628 496.875 175.697 496.875 200.453C496.875 225.209 517 245.277 541.825 245.277Z" stroke="#090909" stroke-width="1.24439"/>
<path fill-rule="evenodd" clip-rule="evenodd" d="M541.825 225.356C555.617 225.356 566.797 214.206 566.797 200.453C566.797 186.7 555.617 175.551 541.825 175.551C528.033 175.551 516.853 186.7 516.853 200.453C516.853 214.206 528.033 225.356 541.825 225.356Z" fill="#090909"/>
<path fill-rule="evenodd" clip-rule="evenodd" d="M542.087 199.903C543.368 200.036 544.65 200.169 546.225 200.081C550.492 199.844 553.077 197.657 552.893 194.389C552.706 191.064 549.267 189.015 545.827 189.207C540.219 189.519 536.095 194.433 535.631 200.051C536.393 199.872 537.194 199.766 537.95 199.724C539.525 199.636 540.806 199.77 542.087 199.903ZM531.095 207.172C531.272 210.22 534.53 212.098 537.79 211.923C543.102 211.637 547.009 207.132 547.448 201.982C546.727 202.146 545.968 202.243 545.252 202.282C543.759 202.362 542.546 202.24 541.332 202.118C540.118 201.996 538.904 201.874 537.412 201.954C533.37 202.172 530.921 204.176 531.095 207.172Z" fill="white"/>
<path opacity="0.2" fill-rule="evenodd" clip-rule="evenodd" d="M634.831 149.894C659.225 149.894 679 130.174 679 105.848C679 81.5215 659.225 61.8013 634.831 61.8013C610.437 61.8013 590.661 81.5215 590.661 105.848C590.661 130.174 610.437 149.894 634.831 149.894Z" stroke="#BBBFC5" stroke-width="1.24439"/>
<path opacity="0.4" fill-rule="evenodd" clip-rule="evenodd" d="M634.66 137.117C652.072 137.117 666.187 123.041 666.187 105.677C666.187 88.3137 652.072 74.2378 634.66 74.2378C617.248 74.2378 603.133 88.3137 603.133 105.677C603.133 123.041 617.248 137.117 634.66 137.117Z" stroke="#BBBFC5" stroke-width="1.24439"/>
<path opacity="0.6" fill-rule="evenodd" clip-rule="evenodd" d="M634.675 128.104C647.087 128.104 657.149 118.07 657.149 105.692C657.149 93.3141 647.087 83.2798 634.675 83.2798C622.262 83.2798 612.2 93.3141 612.2 105.692C612.2 118.07 622.262 128.104 634.675 128.104Z" stroke="#BBBFC5" stroke-width="1.24439"/>
<path fill-rule="evenodd" clip-rule="evenodd" d="M634.675 118.143C641.57 118.143 647.161 112.569 647.161 105.692C647.161 98.8153 641.57 93.2407 634.675 93.2407C627.779 93.2407 622.189 98.8153 622.189 105.692C622.189 112.569 627.779 118.143 634.675 118.143Z" fill="#9DA4AE"/>
<path fill-rule="evenodd" clip-rule="evenodd" d="M634.806 105.417C635.446 105.483 636.087 105.55 636.874 105.506C639.008 105.387 640.3 104.294 640.209 102.66C640.115 100.997 638.396 99.9731 636.675 100.069C633.871 100.225 631.81 102.682 631.577 105.491C631.958 105.402 632.359 105.349 632.737 105.328C633.525 105.284 634.165 105.35 634.806 105.417ZM629.309 109.052C629.398 110.576 631.027 111.515 632.657 111.427C635.313 111.284 637.266 109.031 637.486 106.457C637.125 106.538 636.746 106.587 636.388 106.606C635.642 106.647 635.035 106.586 634.428 106.525C633.821 106.464 633.214 106.403 632.468 106.443C630.447 106.552 629.222 107.554 629.309 109.052Z" fill="white"/>
<path opacity="0.2" fill-rule="evenodd" clip-rule="evenodd" d="M137.77 192.079C196.178 192.079 243.528 144.862 243.528 86.616C243.528 28.3704 196.178 -18.8469 137.77 -18.8469C79.3618 -18.8469 32.0125 28.3704 32.0125 86.616C32.0125 144.862 79.3618 192.079 137.77 192.079Z" stroke="#BBBFC5" stroke-width="1.24439"/>
<path opacity="0.4" fill-rule="evenodd" clip-rule="evenodd" d="M137.396 161.521C179.087 161.521 212.884 127.818 212.884 86.2433C212.884 44.6687 179.087 10.9658 137.396 10.9658C95.7056 10.9658 61.9086 44.6687 61.9086 86.2433C61.9086 127.818 95.7056 161.521 137.396 161.521Z" stroke="#BBBFC5" stroke-width="1.24439"/>
<path opacity="0.6" fill-rule="evenodd" clip-rule="evenodd" d="M137.396 139.907C167.116 139.907 191.209 115.881 191.209 86.2435C191.209 56.6061 167.116 32.5803 137.396 32.5803C107.676 32.5803 83.5833 56.6061 83.5833 86.2435C83.5833 115.881 107.676 139.907 137.396 139.907Z" stroke="#BBBFC5" stroke-width="1.24439"/>
<path fill-rule="evenodd" clip-rule="evenodd" d="M137.396 116.056C153.908 116.056 167.292 102.708 167.292 86.2433C167.292 69.7781 153.908 56.4304 137.396 56.4304C120.885 56.4304 107.5 69.7781 107.5 86.2433C107.5 102.708 120.885 116.056 137.396 116.056Z" fill="#BBBFC5"/>
<path fill-rule="evenodd" clip-rule="evenodd" d="M137.71 85.5844C139.244 85.7439 140.778 85.9032 142.663 85.7983C147.772 85.514 150.867 82.8964 150.647 78.9837C150.423 75.0027 146.306 72.5501 142.187 72.7794C135.474 73.1528 130.537 79.0366 129.981 85.7615C130.893 85.5483 131.852 85.421 132.757 85.3707C134.643 85.2658 136.177 85.4251 137.71 85.5844ZM124.55 94.2874C124.762 97.9367 128.662 100.185 132.565 99.9746C138.925 99.6322 143.602 94.2388 144.128 88.0743C143.265 88.2698 142.356 88.3866 141.498 88.4327C139.712 88.5288 138.259 88.3828 136.806 88.2367C135.353 88.0906 133.9 87.9446 132.113 88.0408C127.274 88.3014 124.342 90.7007 124.55 94.2874Z" fill="white"/>
<path opacity="0.2" fill-rule="evenodd" clip-rule="evenodd" d="M33.8788 259.079C63.0829 259.079 86.7576 235.47 86.7576 206.347C86.7576 177.225 63.0829 153.616 33.8788 153.616C4.67464 153.616 -19 177.225 -19 206.347C-19 235.47 4.67464 259.079 33.8788 259.079Z" stroke="#090909" stroke-width="1.24439"/>
<path opacity="0.4" fill-rule="evenodd" clip-rule="evenodd" d="M33.6919 243.8C54.5373 243.8 71.4358 226.948 71.4358 206.161C71.4358 185.374 54.5373 168.522 33.6919 168.522C12.8466 168.522 -4.05193 185.374 -4.05193 206.161C-4.05193 226.948 12.8466 243.8 33.6919 243.8Z" stroke="#090909" stroke-width="1.24439"/>
<path opacity="0.6" fill-rule="evenodd" clip-rule="evenodd" d="M33.6919 232.993C48.552 232.993 60.5985 220.98 60.5985 206.161C60.5985 191.342 48.552 179.33 33.6919 179.33C18.8319 179.33 6.78542 191.342 6.78542 206.161C6.78542 220.98 18.8319 232.993 33.6919 232.993Z" stroke="#090909" stroke-width="1.24439"/>
<path fill-rule="evenodd" clip-rule="evenodd" d="M33.6919 221.067C41.9475 221.067 48.64 214.394 48.64 206.161C48.64 197.928 41.9475 191.255 33.6919 191.255C25.4363 191.255 18.7439 197.928 18.7439 206.161C18.7439 214.394 25.4363 221.067 33.6919 221.067Z" fill="#090909"/>
<path fill-rule="evenodd" clip-rule="evenodd" d="M33.8489 205.832C34.6157 205.911 35.3826 205.991 36.3254 205.938C38.8798 205.796 40.4271 204.487 40.3173 202.531C40.2054 200.541 38.1469 199.314 36.0872 199.429C32.7305 199.616 30.2622 202.558 29.9842 205.92C30.44 205.813 30.9198 205.75 31.3723 205.725C32.3152 205.672 33.082 205.752 33.8489 205.832ZM27.2687 210.183C27.3746 212.008 29.3249 213.132 31.2763 213.027C34.4562 212.855 36.7947 210.159 37.058 207.076C36.6261 207.174 36.1716 207.233 35.7429 207.256C34.8497 207.304 34.1232 207.231 33.3966 207.158C32.6701 207.085 31.9436 207.012 31.0504 207.06C28.6306 207.19 27.1646 208.39 27.2687 210.183Z" fill="white"/>
<path fill-rule="evenodd" clip-rule="evenodd" d="M186.916 110.19C188.634 110.19 190.027 108.801 190.027 107.088C190.027 105.375 188.634 103.986 186.916 103.986C185.198 103.986 183.806 105.375 183.806 107.088C183.806 108.801 185.198 110.19 186.916 110.19Z" fill="#67778E"/>
<path fill-rule="evenodd" clip-rule="evenodd" d="M211.8 74.2086C213.518 74.2086 214.911 72.8198 214.911 71.1067C214.911 69.3936 213.518 68.0049 211.8 68.0049C210.082 68.0049 208.69 69.3936 208.69 71.1067C208.69 72.8198 210.082 74.2086 211.8 74.2086Z" fill="#4360DF"/>
<path fill-rule="evenodd" clip-rule="evenodd" d="M236.684 51.8753C238.402 51.8753 239.795 50.4866 239.795 48.7735C239.795 47.0604 238.402 45.6716 236.684 45.6716C234.967 45.6716 233.574 47.0604 233.574 48.7735C233.574 50.4866 234.967 51.8753 236.684 51.8753Z" fill="#67778E"/>
<path fill-rule="evenodd" clip-rule="evenodd" d="M242.906 100.264C244.623 100.264 246.016 98.8755 246.016 97.1624C246.016 95.4493 244.623 94.0605 242.906 94.0605C241.188 94.0605 239.795 95.4493 239.795 97.1624C239.795 98.8755 241.188 100.264 242.906 100.264Z" fill="#4360DF"/>
<path fill-rule="evenodd" clip-rule="evenodd" d="M466.863 157.338C468.581 157.338 469.973 155.949 469.973 154.236C469.973 152.523 468.581 151.135 466.863 151.135C465.145 151.135 463.752 152.523 463.752 154.236C463.752 155.949 465.145 157.338 466.863 157.338Z" fill="#090909"/>
<path fill-rule="evenodd" clip-rule="evenodd" d="M456.909 225.579C458.627 225.579 460.02 224.19 460.02 222.477C460.02 220.764 458.627 219.375 456.909 219.375C455.191 219.375 453.799 220.764 453.799 222.477C453.799 224.19 455.191 225.579 456.909 225.579Z" fill="#4360DF"/>
<path fill-rule="evenodd" clip-rule="evenodd" d="M603.726 139.968C605.443 139.968 606.836 138.579 606.836 136.866C606.836 135.153 605.443 133.764 603.726 133.764C602.008 133.764 600.615 135.153 600.615 136.866C600.615 138.579 602.008 139.968 603.726 139.968Z" fill="#090909"/>
<path fill-rule="evenodd" clip-rule="evenodd" d="M216.777 159.82C218.495 159.82 219.888 158.431 219.888 156.718C219.888 155.005 218.495 153.616 216.777 153.616C215.059 153.616 213.667 155.005 213.667 156.718C213.667 158.431 215.059 159.82 216.777 159.82Z" fill="#67778E"/>
<path fill-rule="evenodd" clip-rule="evenodd" d="M174.474 153.616C176.192 153.616 177.585 152.227 177.585 150.514C177.585 148.801 176.192 147.412 174.474 147.412C172.756 147.412 171.364 148.801 171.364 150.514C171.364 152.227 172.756 153.616 174.474 153.616Z" fill="#67778E"/>
<path fill-rule="evenodd" clip-rule="evenodd" d="M174.474 188.357C176.192 188.357 177.585 186.968 177.585 185.255C177.585 183.542 176.192 182.153 174.474 182.153C172.756 182.153 171.364 183.542 171.364 185.255C171.364 186.968 172.756 188.357 174.474 188.357Z" fill="#4360DF"/>
<path fill-rule="evenodd" clip-rule="evenodd" d="M68.7166 169.746C70.4345 169.746 71.8271 168.357 71.8271 166.644C71.8271 164.931 70.4345 163.542 68.7166 163.542C66.9987 163.542 65.6061 164.931 65.6061 166.644C65.6061 168.357 66.9987 169.746 68.7166 169.746Z" fill="#090909"/>
</svg>
