<svg width="90" height="90" viewBox="0 0 90 90" fill="none" xmlns="http://www.w3.org/2000/svg">
<g clip-path="url(#clip0)">
<path d="M44.7 89.62C69.3871 89.62 89.4 69.5579 89.4 44.81C89.4 20.0621 69.3871 0 44.7 0C20.0129 0 0 20.0621 0 44.81C0 69.5579 20.0129 89.62 44.7 89.62Z" fill="#4360DF"/>
<path d="M21.0002 44.37H15.9002V49.1H21.5802V50.53H14.2402V37.39H21.3302V38.82H15.9402V43H21.0002V44.37Z" fill="white"/>
<path d="M23.5296 48.77C24.2098 49.192 24.9895 49.4266 25.7896 49.45C27.0396 49.45 27.6296 48.83 27.6296 48.05C27.6296 47.27 27.1396 46.78 25.8696 46.32C24.1796 45.71 23.3796 44.78 23.3796 43.65C23.3796 42.13 24.5996 40.88 26.6296 40.88C27.4413 40.8695 28.2415 41.0729 28.9496 41.47L28.5196 42.71C27.9382 42.3559 27.2704 42.1691 26.5896 42.17C25.5896 42.17 25.0096 42.75 25.0096 43.45C25.0096 44.15 25.5796 44.58 26.8096 45.05C28.4396 45.67 29.2796 46.49 29.2796 47.89C29.2796 49.55 27.9996 50.72 25.7496 50.72C24.8261 50.7369 23.9137 50.5165 23.0996 50.08L23.5296 48.77Z" fill="white"/>
<path d="M31.4804 44.17C31.4804 42.97 31.4804 41.99 31.4004 41.1H32.9404L33.0004 42.71C33.3397 42.1293 33.8309 41.652 34.4212 41.3296C35.0114 41.0072 35.6784 40.8517 36.3504 40.88C38.6304 40.88 40.3504 42.81 40.3504 45.67C40.3504 49.06 38.2804 50.74 36.0604 50.74C35.4903 50.7651 34.9234 50.6419 34.4152 50.3825C33.9069 50.1231 33.4746 49.7363 33.1604 49.26V49.26V54.38H31.4604L31.4804 44.17ZM33.1804 46.69C33.1856 46.9253 33.2123 47.1596 33.2604 47.39C33.4035 47.9627 33.7344 48.4709 34.2003 48.8334C34.6661 49.196 35.2401 49.3919 35.8304 49.39C37.6404 49.39 38.6904 47.9 38.6904 45.74C38.6904 43.85 37.6904 42.23 35.8904 42.23C35.2825 42.2475 34.6976 42.4661 34.2271 42.8515C33.7567 43.2369 33.4272 43.7674 33.2904 44.36C33.2279 44.5885 33.191 44.8233 33.1804 45.06V46.69Z" fill="white"/>
<path d="M47.79 50.53L47.65 49.34H47.59C47.2559 49.7856 46.8204 50.1452 46.3195 50.3887C45.8185 50.6322 45.2668 50.7526 44.7099 50.74C44.3364 50.768 43.9612 50.7175 43.6084 50.5916C43.2557 50.4658 42.9332 50.2673 42.6618 50.0092C42.3905 49.751 42.1762 49.4388 42.033 49.0927C41.8897 48.7467 41.8205 48.3744 41.83 48C41.83 45.72 43.83 44.48 47.5 44.49V44.3C47.5271 44.0095 47.4904 43.7166 47.3924 43.4418C47.2944 43.167 47.1375 42.917 46.9326 42.7093C46.7278 42.5016 46.4799 42.3412 46.2065 42.2394C45.9331 42.1376 45.6408 42.0968 45.3499 42.12C44.4843 42.1222 43.6362 42.3645 42.9 42.82L42.5099 41.69C43.4443 41.1252 44.5184 40.8342 45.61 40.85C48.49 40.85 49.1899 42.85 49.1899 44.71V48.24C49.1777 48.9965 49.2312 49.7527 49.3499 50.5L47.79 50.53ZM47.54 45.71C45.67 45.71 43.54 46.01 43.54 47.84C43.522 48.0577 43.5514 48.2768 43.6263 48.482C43.7012 48.6873 43.8198 48.8738 43.9738 49.0288C44.1278 49.1838 44.3136 49.3035 44.5184 49.3797C44.7232 49.4558 44.9421 49.4866 45.16 49.47C45.6588 49.4842 46.1491 49.3385 46.5593 49.0542C46.9695 48.77 47.2781 48.362 47.4399 47.89C47.5022 47.7165 47.5359 47.5342 47.54 47.35V45.71Z" fill="white"/>
<path d="M51.9999 43.65C51.9999 42.65 51.9999 41.88 51.9199 41.1H53.3999L53.4899 42.65C53.8008 42.1029 54.2541 41.6503 54.8018 41.3404C55.3494 41.0305 55.9708 40.8748 56.5999 40.89C57.8999 40.89 59.9299 41.67 59.9299 44.89V50.52H58.2699V45.09C58.2699 43.57 57.6999 42.29 56.0899 42.29C55.5688 42.3034 55.0651 42.4806 54.6504 42.7966C54.2357 43.1125 53.9311 43.5511 53.7799 44.05C53.7042 44.3099 53.6672 44.5794 53.6699 44.85V50.53H51.9999V43.65ZM53.5899 39.48C53.5899 38.2 54.0799 37.48 54.9099 37.48C55.3469 37.5226 55.7664 37.6738 56.1299 37.92C56.374 38.092 56.6547 38.205 56.9499 38.25C57.2499 38.25 57.4399 38.07 57.4799 37.42H58.3899C58.3899 38.71 57.9799 39.42 57.0699 39.42C56.6413 39.3888 56.228 39.2476 55.8699 39.01C55.6189 38.8025 55.3197 38.6615 54.9999 38.6C54.6999 38.6 54.5299 38.93 54.4899 39.48H53.5899Z" fill="white"/>
<path d="M71.3098 45.73C71.3648 46.375 71.2833 47.0244 71.0706 47.6358C70.8579 48.2472 70.5188 48.807 70.0755 49.2787C69.6321 49.7504 69.0943 50.1234 68.4972 50.3734C67.9001 50.6235 67.257 50.745 66.6098 50.73C64.0598 50.73 62.0898 48.86 62.0898 45.88C62.0898 42.72 64.1498 40.88 66.7698 40.88C69.3898 40.88 71.3098 42.85 71.3098 45.73ZM63.8198 45.83C63.8198 47.89 65.0098 49.45 66.6898 49.45C68.3698 49.45 69.5498 47.91 69.5498 45.79C69.5498 44.19 68.7498 42.17 66.7298 42.17C64.7098 42.17 63.8198 44 63.8198 45.83Z" fill="white"/>
<path d="M73.4697 36.6899H75.1797V50.5299H73.4697V36.6899Z" fill="white"/>
</g>
<defs>
<clipPath id="clip0">
<rect width="89.4" height="89.62" fill="white"/>
</clipPath>
</defs>
</svg>
