<svg width="90" height="90" viewBox="0 0 90 90" fill="none" xmlns="http://www.w3.org/2000/svg">
<path d="M45 90C69.8528 90 90 69.8528 90 45C90 20.1472 69.8528 0 45 0C20.1472 0 0 20.1472 0 45C0 69.8528 20.1472 90 45 90Z" fill="#D80027"/>
<path d="M24.627 27.3867L28.5117 39.3398H41.0801L30.9199 46.7402L34.8047 58.6934L24.627 51.3105L14.4492 58.6934L18.3516 46.7402L8.17383 39.3398H20.7422L24.627 27.3867Z" fill="#FFDA44"/>
<path d="M53.3496 69.6973L50.3789 66.041L45.9844 67.7461L48.5332 63.791L45.5625 60.1172L50.1152 61.3301L52.6816 57.375L52.9277 62.0859L57.498 63.2988L53.0859 64.9863L53.3496 69.6973Z" fill="#FFDA44"/>
<path d="M59.2559 58.9746L60.6621 54.4746L56.8125 51.75L61.5234 51.6797L62.9121 47.1797L64.4414 51.6445L69.1523 51.5918L65.373 54.4043L66.8848 58.8691L63.0352 56.1445L59.2559 58.9746Z" fill="#FFDA44"/>
<path d="M67.2188 33.0293L65.1445 37.2656L68.5195 40.5527L63.8613 39.8848L61.7871 44.1035L60.9785 39.4629L56.3027 38.7949L60.4863 36.5977L59.6777 31.9395L63.0527 35.2266L67.2188 33.0293Z" fill="#FFDA44"/>
<path d="M53.4727 20.1973L53.1211 24.8906L57.4981 26.666L52.9102 27.791L52.5762 32.502L50.0977 28.4941L45.5098 29.6191L48.5508 26.0156L46.0547 22.0254L50.4316 23.8008L53.4727 20.1973Z" fill="#FFDA44"/>
</svg>
