<svg width="72" height="39" viewBox="0 0 72 39" fill="none" xmlns="http://www.w3.org/2000/svg">
<path d="M54.7 1.10002C47.2 0.20002 40.4 3.90001 36.8 9.70001C36.4 10.3 35.5 10.3 35.1 9.70001C31.5 3.90001 24.7 0.20002 17.2 1.10002C8.70004 2.10002 1.90005 8.90001 0.900053 17.4C-0.399947 28.6 8.40002 38.1 19.3 38.1C25.9 38.1 31.8 34.6 35.1 29.3C35.5 28.7 36.4 28.7 36.8 29.3C40.1 34.6 45.9 38.1 52.6 38.1C63.5 38.1 72.3 28.6 71 17.4C70 8.90001 63.1 2.10002 54.7 1.10002ZM54.2 36.2C47.2 36.9 40.9 33.3 37.8 27.6C37.4 26.9 36.6 26.5 35.8 26.5C35 26.5 34.2 26.9 33.8 27.6C30.7 33.2 24.4001 36.9 17.4001 36.2C9.70005 35.4 3.4 29.2 2.6 21.5C1.5 11.4 9.40004 2.90001 19.2 2.90001C25.5 2.90001 31 6.40002 33.8 11.6C34.2 12.3 35 12.7 35.8 12.7C36.6 12.7 37.4 12.3 37.8 11.6C40.6 6.40002 46.1001 2.90001 52.4001 2.90001C62.2001 2.90001 70.1 11.5 69 21.5C68.2 29.2 61.9 35.4 54.2 36.2Z" fill="#4360DF"/>
<path d="M60.2 24C59.9 24.7 59.6 25.2 59.2 25.8C58.7 26.6 58.2 27.1 57.9 27.4C57.4 27.9 56.8 28.1 56.2 28.1C55.8 28.1 55.3 28 54.7 27.7C54.1 27.5 53.6 27.3 53.1 27.3C52.6 27.3 52 27.4 51.4 27.7C50.8 27.9 50.3 28.1 49.9 28.1C49.3 28.1 48.8 27.9 48.2 27.4C47.8 27.1 47.4 26.5 46.9 25.8C46.3 25 45.8 24 45.5 23C45.1 21.8 44.9 20.7 44.9 19.6C44.9 18.4 45.2 17.3 45.7 16.4C46.1 15.7 46.7 15.1 47.4 14.7C48.1 14.3 48.9 14.1 49.7 14.1C50.1 14.1 50.7 14.2 51.5 14.5C52.2 14.8 52.7 14.9 52.9 14.9C53.1 14.9 53.6 14.7 54.5 14.4C55.3 14.1 56 14 56.6 14C58.2 14.1 59.3 14.7 60.1 15.9C58.7 16.7 58 17.9 58 19.5C58 20.7 58.4 21.7 59.3 22.5C59.7 22.9 60.1 23.1 60.6 23.3C60.5 23.4 60.4 23.7 60.2 24ZM56.7 9.80003C56.7 10.7 56.4 11.6 55.7 12.4C54.9 13.4 53.9 13.9 52.8 13.8C52.8 13.7 52.8 13.6 52.8 13.4C52.8 12.5 53.2 11.5 53.9 10.8C54.2 10.4 54.7 10.1 55.2 9.80003C55.7 9.50003 56.2 9.40002 56.7 9.40002C56.7 9.60002 56.7 9.70003 56.7 9.80003Z" fill="#4360DF"/>
<path d="M27.5 17.2C27.5 16.5 26.9 15.9 26.2 15.9C25.5 15.9 24.9 16.5 24.9 17.2V22.6C24.9 23.3 25.5 23.9 26.2 23.9C26.9 23.9 27.5 23.3 27.5 22.6V17.2Z" fill="#4360DF"/>
<path d="M12.5 17.2C12.5 16.5 11.9 15.9 11.2 15.9C10.5 15.9 9.90002 16.5 9.90002 17.2V22.6C9.90002 23.3 10.5 23.9 11.2 23.9C11.9 23.9 12.5 23.3 12.5 22.6V17.2Z" fill="#4360DF"/>
<path d="M21.6 11.1L22.5 9.50002C22.5 9.40002 22.5 9.30002 22.4 9.30002H22.3C22.2 9.30002 22.2 9.30001 22.1 9.40001L21.2 11.1C20.4 10.8 19.6 10.6 18.7 10.6C17.8 10.6 17 10.8 16.2 11.1L15.3 9.40001C15.3 9.30001 15.1 9.30002 15.1 9.30002C15 9.30002 15 9.50002 15 9.50002L15.9 11.1C14.2 12 13 13.7 13 15.7H24.5C24.5 13.7 23.3 12 21.6 11.1ZM16.1 13.6C15.8 13.6 15.6 13.4 15.6 13.1C15.6 12.8 15.8 12.6 16.1 12.6C16.4 12.6 16.6 12.8 16.6 13.1C16.6 13.4 16.4 13.6 16.1 13.6ZM21.4 13.6C21.1 13.6 20.9 13.4 20.9 13.1C20.9 12.8 21.1 12.6 21.4 12.6C21.7 12.6 21.9 12.8 21.9 13.1C21.9 13.4 21.7 13.6 21.4 13.6Z" fill="#4360DF"/>
<path d="M13 16.1V24.4C13 25.2 13.6 25.8 14.4 25.8H15.3V28.6C15.3 29.3 15.9 29.9 16.6 29.9C17.3 29.9 17.9 29.3 17.9 28.6V25.8H19.6V28.6C19.6 29.3 20.2 29.9 20.9 29.9C21.6 29.9 22.2 29.3 22.2 28.6V25.8H23.1C23.9 25.8 24.5 25.2 24.5 24.4V16.1H13Z" fill="#4360DF"/>
<path d="M36.5999 18V15.4C36.5999 15 36.3 14.7 35.9 14.7C35.5 14.7 35.2 15 35.2 15.4V18C35.2 18.4 34.8999 18.7 34.4999 18.7H31.9C31.5 18.7 31.2 19 31.2 19.4C31.2 19.8 31.5 20.1 31.9 20.1H34.4999C34.8999 20.1 35.2 20.4 35.2 20.8V23.4C35.2 23.8 35.5 24.1 35.9 24.1C36.3 24.1 36.5999 23.8 36.5999 23.4V21C36.5999 20.6 36.8999 20.3 37.2999 20.3H39.9C40.3 20.3 40.5999 20 40.5999 19.6C40.5999 19.2 40.3 18.9 39.9 18.9H37.2999C36.8999 18.8 36.5999 18.4 36.5999 18Z" fill="#4360DF"/>
</svg>
