<svg width="70" height="51" viewBox="0 0 70 51" fill="none" xmlns="http://www.w3.org/2000/svg">
<path d="M69.7 5.5V50.1H0.400024V5.5V2.89999C0.400024 1.29999 1.69995 0.100006 3.19995 0.100006H66.8C68.4 0.100006 69.6 1.39999 69.6 2.89999V5.5H69.7ZM68.8 49.2V6.5H1.40002V49.2H68.8ZM11.6 3.39999C11.6 2.79999 11.1 2.29999 10.5 2.29999C9.9 2.29999 9.40002 2.79999 9.40002 3.39999C9.40002 3.99999 9.9 4.5 10.5 4.5C11.2 4.5 11.6 3.99999 11.6 3.39999ZM7.90002 3.39999C7.90002 2.79999 7.40005 2.29999 6.80005 2.29999C6.20005 2.29999 5.69995 2.79999 5.69995 3.39999C5.69995 3.99999 6.20005 4.5 6.80005 4.5C7.40005 4.5 7.90002 3.99999 7.90002 3.39999ZM4.09998 3.39999C4.09998 2.79999 3.6 2.29999 3 2.29999C2.4 2.29999 1.90002 2.79999 1.90002 3.39999C1.90002 3.99999 2.4 4.5 3 4.5C3.6 4.5 4.09998 3.99999 4.09998 3.39999Z" fill="#4360DF"/>
<path d="M15.3 28.1V25.5L27.1 17.7V22.2L20 26.7V26.9L27.1 31.4V35.9L15.3 28.1Z" fill="#4360DF"/>
<path d="M28.8 40.4L37.7 13.7H41.4L32.5 40.4H28.8Z" fill="#4360DF"/>
<path d="M44.1 31.4L51.2 26.9V26.7L44.1 22.2V17.7L55.9 25.4V28L44.1 35.8V31.4Z" fill="#4360DF"/>
</svg>
