<svg width="70" height="51" viewBox="0 0 70 51" fill="none" xmlns="http://www.w3.org/2000/svg">
<path d="M41.3 26H28C28.9 23.2 31.5 21.1 34.7 21.1C37.7 21.1 40.4 23.1 41.3 26Z" fill="#4360DF"/>
<path d="M41.6 33.2C41.6 33.2 41.6 27.8 41.6 27.7H35.5V40.1C38.9 39.7 41.6 36.8 41.6 33.2ZM34.6 21.1C31.5 21.1 28.8 23.2 27.9 26H41.2C40.4 23.1 37.7 21.1 34.6 21.1ZM29.4 15.4C29.4 17.6 31.2 19.3 33.3 19.3H35.9C38.1 19.3 39.8 17.5 39.8 15.4C39.8 14.9 40.2 14.5 40.7 14.5C41.2 14.5 41.6 14.9 41.6 15.4C41.6 17.5 40.4 19.4 38.7 20.3C40.9 21.4 42.5 23.5 43.1 25.9H44.1C45.5 25.9 46.6 24.8 46.6 23.4V20.2C46.6 19.7 47 19.3 47.5 19.3C48 19.3 48.4 19.7 48.4 20.2V23.4C48.4 25.8 46.5 27.7 44.1 27.7H43.3C43.3 27.8 43.3 30.2 43.3 30.2H48.2C48.7 30.2 49.1 30.6 49.1 31.1C49.1 31.6 48.7 32 48.2 32H43.3V33.3C43.3 33.7 43.3 34.1 43.2 34.4H44C46.4 34.4 48.3 36.3 48.3 38.7V41.9C48.3 42.4 47.9 42.8 47.4 42.8C46.9 42.8 46.5 42.4 46.5 41.9V38.7C46.5 37.3 45.4 36.1 44 36.1H42.8C41.6 39.5 38.4 41.9 34.6 41.9C30.8 41.9 27.6 39.5 26.4 36.1H25.2C23.8 36.1 22.6 37.2 22.6 38.7V41.9C22.6 42.4 22.2 42.8 21.7 42.8C21.2 42.8 20.8 42.4 20.8 41.9V38.7C20.8 36.3 22.7 34.4 25.1 34.4H25.9C25.9 34 25.8 33.6 25.8 33.3V32H21C20.5 32 20.1 31.6 20.1 31.1C20.1 30.6 20.5 30.2 21 30.2H25.9C25.9 30.2 25.9 27.8 25.9 27.7H25.1C22.7 27.7 20.8 25.8 20.8 23.4V20.2C20.8 19.7 21.2 19.3 21.7 19.3C22.2 19.3 22.6 19.7 22.6 20.2V23.4C22.6 24.8 23.8 25.9 25.2 25.9H26.2C26.8 23.5 28.4 21.4 30.6 20.3C28.9 19.3 27.7 17.5 27.7 15.4C27.7 14.9 28.1 14.5 28.6 14.5C29 14.5 29.4 14.9 29.4 15.4ZM27.7 33.2C27.7 36.7 30.4 39.7 33.8 40.1V27.7H27.7C27.7 27.8 27.7 33.2 27.7 33.2Z" fill="#4360DF"/>
<path d="M4.09998 3.39999C4.09998 2.79999 3.6 2.29999 3 2.29999C2.4 2.29999 1.90002 2.79999 1.90002 3.39999C1.90002 3.99999 2.4 4.5 3 4.5C3.6 4.5 4.09998 3.99999 4.09998 3.39999ZM6.79999 4.5C7.39999 4.5 7.90002 3.99999 7.90002 3.39999C7.90002 2.79999 7.39999 2.29999 6.79999 2.29999C6.19999 2.29999 5.70001 2.79999 5.70001 3.39999C5.70001 3.99999 6.19999 4.5 6.79999 4.5ZM3.29999 0.100006H66.9C68.5 0.100006 69.7 1.39999 69.7 2.89999V5.5V50.1H0.400024V5.5V2.89999C0.400024 1.29999 1.69999 0.100006 3.29999 0.100006ZM68.8 6.5H1.40002V49.2H68.8V6.5ZM10.5 4.5C11.1 4.5 11.6 3.99999 11.6 3.39999C11.6 2.79999 11.1 2.29999 10.5 2.29999C9.9 2.29999 9.40002 2.79999 9.40002 3.39999C9.50002 3.99999 9.9 4.5 10.5 4.5Z" fill="#4360DF"/>
</svg>
