<svg width="90" height="89" viewBox="0 0 90 89" fill="none" xmlns="http://www.w3.org/2000/svg">
<path d="M36.2 0.299988H6.80005C3.60005 0.299988 0.900024 2.90001 0.900024 6.20001V35.6C0.900024 38.8 3.50005 41.5 6.80005 41.5H36.2C39.4 41.5 42.1 38.9 42.1 35.6V6.20001C42.1 3.00001 39.5 0.299988 36.2 0.299988ZM38.2 35.6C38.2 36.7 37.2999 37.6 36.2 37.6H6.80005C5.70005 37.6 4.80005 36.7 4.80005 35.6V6.20001C4.80005 5.10001 5.70005 4.20001 6.80005 4.20001H36.2C37.2999 4.20001 38.2 5.10001 38.2 6.20001V35.6ZM83.2 0.299988H53.8C50.6 0.299988 47.9 2.90001 47.9 6.20001V35.6C47.9 38.8 50.5 41.5 53.8 41.5H83.2C86.3999 41.5 89.1 38.9 89.1 35.6V6.20001C89.1 3.00001 86.5 0.299988 83.2 0.299988ZM85.2 35.6C85.2 36.7 84.2999 37.6 83.2 37.6H53.8C52.7001 37.6 51.8 36.7 51.8 35.6V6.20001C51.8 5.10001 52.7001 4.20001 53.8 4.20001H83.2C84.2999 4.20001 85.2 5.10001 85.2 6.20001V35.6ZM36.2 47.4H6.80005C3.60005 47.4 0.900024 50 0.900024 53.3V82.7C0.900024 85.9 3.50005 88.6 6.80005 88.6H36.2C39.4 88.6 42.1 86 42.1 82.7V53.3C42.1 50 39.5 47.4 36.2 47.4ZM38.2 82.6C38.2 83.7 37.2999 84.6 36.2 84.6H6.80005C5.70005 84.6 4.80005 83.7 4.80005 82.6V53.2C4.80005 52.1 5.70005 51.2 6.80005 51.2H36.2C37.2999 51.2 38.2 52.1 38.2 53.2V82.6ZM89.1 68C89.1 69.1 88.2 70 87.1 70H70.4V86.7C70.4 87.8 69.5 88.7 68.4 88.7C67.3 88.7 66.4 87.8 66.4 86.7V70H49.7C48.6 70 47.7 69.1 47.7 68C47.7 66.9 48.6 66 49.7 66H66.4V49.3C66.4 48.2 67.3 47.3 68.4 47.3C69.5 47.3 70.4 48.2 70.4 49.3V66H87.1C88.2 66 89.1 66.9 89.1 68Z" fill="#4360DF"/>
</svg>
