<svg width="60" height="110" viewBox="0 0 60 110" fill="none" xmlns="http://www.w3.org/2000/svg">
<path d="M48.6 0.900024H11.4C5.50002 0.900024 0.800049 5.70003 0.800049 11.5V99.3C0.800049 105.2 5.60002 109.9 11.4 109.9H48.6C54.5 109.9 59.2 105.1 59.2 99.3V11.5C59.2999 5.70003 54.5 0.900024 48.6 0.900024ZM56.6 99.3C56.6 103.7 53 107.3 48.6 107.3H11.4C7.00002 107.3 3.40002 103.7 3.40002 99.3V11.5C3.40002 7.10003 7.00002 3.50003 11.4 3.50003H14.1C14.8 3.50003 15.4 4.20003 15.4 4.80003V6.10004C15.4 7.60004 16.6 8.80003 18.1 8.80003H42C43.5 8.80003 44.7 7.60004 44.7 6.10004V4.80003C44.7 4.10003 45.4 3.50003 46 3.50003H48.7C53.1 3.50003 56.7 7.10003 56.7 11.5V99.3H56.6Z" fill="#4360DF"/>
</svg>
