<svg width="110" height="52" viewBox="0 0 110 52" fill="none" xmlns="http://www.w3.org/2000/svg">
<path d="M109.6 25.9C109.6 29.3 108.9 32.5 107.8 35.6C106.5 38.8 104.6 41.7 102.1 44.2C99.7 46.6 96.8 48.6 93.5 49.9C90.4 51.2 87.1 51.7 83.8 51.7C80.5 51.7 77.2 51 74.1 49.9C70.9 48.6 68 46.7 65.5 44.2L47 25.9L37.2 16.1C34.7 13.6 31.4 11.9 27.8 11.7C22.4 11.4 17.3 13.9 14.4 18.7C13.7 19.9 13.2 21 12.9 22.3C11.3 28.9 14.2 35.5 20.3 38.7C21 39 21.6 39.3 22.3 39.5C27.7 41.1 33 39.7 36.9 36L42.1 30.8L50.3 39L45.1 44.2C42.7 46.6 39.8 48.6 36.5 49.9C33.4 51.2 30.1 51.7 26.8 51.7C23.5 51.7 20.2 51 17.1 49.9C13.9 48.6 11 46.7 8.5 44.2C6.1 41.8 4.09999 38.9 2.79999 35.6C1.49999 32.3 0.799988 29.1 0.799988 25.8C0.799988 22.5 1.49998 19.2 2.59998 16.1C3.89998 12.9 5.79999 10 8.29999 7.5C10.7 5.1 13.6 3.09999 16.9 1.79999C20 0.499988 23.3 0 26.6 0C29.9 0 33.2 0.699988 36.3 1.79999C39.5 3.09999 42.4 5 44.9 7.5L69.2 31.8L73 35.6C75.5 38.1 78.8 39.8 82.4 40C87.8 40.3 92.9 37.8 95.8 33C96.5 31.8 97 30.7 97.3 29.4C98.9 22.8 96 16.2 89.9 13C89.2 12.7 88.6 12.4 87.9 12.2C82.5 10.6 77.2 12 73.3 15.7L67.9 21.4L59.7 13.2L65.2 7.70001C67.6 5.30001 70.5 3.3 73.8 2C76.9 0.7 80.2 0.200012 83.5 0.200012C86.8 0.200012 90.1 0.9 93.2 2C96.4 3.3 99.3 5.20001 101.8 7.70001C104.2 10.1 106.2 13 107.5 16.3C108.9 19.4 109.6 22.6 109.6 25.9Z" fill="#4360DF"/>
</svg>
