<svg width="112" height="40" viewBox="0 0 112 40" fill="none" xmlns="http://www.w3.org/2000/svg">
<path d="M0 9C0 6.20435 0 4.80653 0.456723 3.7039C1.06569 2.23373 2.23373 1.06569 3.7039 0.456723C4.80653 0 6.20435 0 9 0H103C105.796 0 107.193 0 108.296 0.456723C109.766 1.06569 110.934 2.23373 111.543 3.7039C112 4.80653 112 6.20435 112 9V31C112 33.7957 112 35.1935 111.543 36.2961C110.934 37.7663 109.766 38.9343 108.296 39.5433C107.193 40 105.796 40 103 40H9C6.20435 40 4.80653 40 3.7039 39.5433C2.23373 38.9343 1.06569 37.7663 0.456723 36.2961C0 35.1935 0 33.7957 0 31V9Z" fill="#4360DF"/>
<path fill-rule="evenodd" clip-rule="evenodd" d="M22.0636 19.8892C20.6213 19.9721 19.7174 19.6371 18.2749 19.7201C17.9171 19.7402 17.5618 19.7919 17.2132 19.8747C17.4261 17.2145 19.314 14.8875 21.8813 14.7396C23.4568 14.649 25.0314 15.6189 25.1168 17.1936C25.2009 18.7412 24.0173 19.7768 22.0636 19.8892ZM18.1904 25.3304C16.6812 25.4154 15.1729 24.5073 15.091 23.0338C15.0104 21.5854 16.1443 20.6164 18.016 20.5111C19.3975 20.4335 20.2635 20.7472 21.6451 20.6693C21.9877 20.6506 22.3279 20.6022 22.6621 20.5247C22.4585 23.0142 20.65 25.1922 18.1904 25.3304ZM20.0337 8.00024C13.3876 8.00005 8 13.3725 8 20.0001C8 26.6276 13.3876 32.0001 20.0337 32.0001C26.6799 32.0001 32.0675 26.6274 32.0675 20.0001C32.0675 13.3727 26.6799 8.00024 20.0337 8.00024Z" fill="white"/>
<path d="M46.2203 11.2117C46.2203 9.02369 44.8851 7.73467 43.1102 7.73467C41.332 7.73467 40 9.02369 40 11.2117C40 13.3964 41.332 14.6888 43.1102 14.6888C44.8851 14.6888 46.2203 13.3997 46.2203 11.2117ZM44.9875 11.2117C44.9875 12.7519 44.2141 13.5881 43.1102 13.5881C42.0095 13.5881 41.2328 12.7519 41.2328 11.2117C41.2328 9.6715 42.0095 8.83529 43.1102 8.83529C44.2141 8.83529 44.9875 9.6715 44.9875 11.2117Z" fill="white"/>
<path d="M47.4198 16.5H48.6163V13.7964H48.6659C48.8543 14.1665 49.2476 14.6855 50.1202 14.6855C51.3166 14.6855 52.2123 13.7369 52.2123 12.0645C52.2123 10.3722 51.2902 9.45336 50.1169 9.45336C49.2211 9.45336 48.8477 9.9921 48.6659 10.359H48.5965V9.51946H47.4198V16.5ZM48.5932 12.0578C48.5932 11.0729 49.0162 10.435 49.7863 10.435C50.5829 10.435 50.9927 11.1126 50.9927 12.0578C50.9927 13.0097 50.5763 13.7038 49.7863 13.7038C49.0228 13.7038 48.5932 13.0428 48.5932 12.0578Z" fill="white"/>
<path d="M55.5775 14.6954C56.7608 14.6954 57.5739 14.117 57.7854 13.2345L56.6682 13.1089C56.5063 13.5386 56.1097 13.7633 55.5941 13.7633C54.8206 13.7633 54.3083 13.2543 54.2984 12.3851H57.835V12.0182C57.835 10.2367 56.7641 9.45336 55.5147 9.45336C54.0605 9.45336 53.1119 10.5209 53.1119 12.0876C53.1119 13.6807 54.0472 14.6954 55.5775 14.6954ZM54.3017 11.5786C54.3381 10.9308 54.8173 10.3854 55.5313 10.3854C56.2187 10.3854 56.6815 10.8878 56.6881 11.5786H54.3017Z" fill="white"/>
<path d="M60.1367 11.6216C60.1367 10.8878 60.5796 10.4647 61.2109 10.4647C61.829 10.4647 62.1992 10.8713 62.1992 11.5488V14.5962H63.3956V11.3638C63.3989 10.1474 62.7049 9.45336 61.6571 9.45336C60.8969 9.45336 60.3747 9.81693 60.1433 10.3821H60.0838V9.51946H58.9403V14.5962H60.1367V11.6216Z" fill="white"/>
<path d="M68.1545 14.5962H69.4039L70.3557 11.1654H70.4252L71.3771 14.5962H72.6231L74.0609 9.51946H72.8379L71.9588 13.0692H71.9092L70.997 9.51946H69.7906L68.8783 13.0891H68.8321L67.9397 9.51946H66.7201L68.1545 14.5962Z" fill="white"/>
<path d="M74.9893 14.5962H76.1858V9.51946H74.9893V14.5962ZM75.5909 8.79894C75.971 8.79894 76.2816 8.50808 76.2816 8.15112C76.2816 7.79086 75.971 7.5 75.5909 7.5C75.2075 7.5 74.8968 7.79086 74.8968 8.15112C74.8968 8.50808 75.2075 8.79894 75.5909 8.79894Z" fill="white"/>
<path d="M80.0443 9.51946H79.0428V8.30316H77.8463V9.51946H77.1258V10.4449H77.8463V13.2675C77.8397 14.2227 78.5338 14.6921 79.4328 14.6656C79.7733 14.6557 80.0079 14.5896 80.1368 14.5466L79.9352 13.6113C79.8691 13.6278 79.7336 13.6575 79.5849 13.6575C79.2841 13.6575 79.0428 13.5518 79.0428 13.0692V10.4449H80.0443V9.51946Z" fill="white"/>
<path d="M82.4435 11.6216C82.4435 10.8878 82.8997 10.4647 83.5409 10.4647C84.1688 10.4647 84.539 10.8647 84.539 11.5488V14.5962H85.7355V11.3638C85.7355 10.1375 85.0414 9.45336 83.9871 9.45336C83.207 9.45336 82.7113 9.80701 82.4766 10.3821H82.4171V7.82721H81.2471V14.5962H82.4435V11.6216Z" fill="white"/>
<path fill-rule="evenodd" clip-rule="evenodd" d="M40 28.3292H42.9982C42.9982 28.7693 43.1414 29.0852 43.4278 29.2769C43.7145 29.4686 44.0823 29.5646 44.5316 29.5646C44.9029 29.5646 45.207 29.5018 45.4449 29.3757C45.6825 29.2496 45.8013 29.0431 45.8013 28.7554C45.8013 28.5855 45.7506 28.4461 45.6499 28.3378C45.5488 28.2294 45.3942 28.1325 45.1858 28.0476C44.9237 27.9435 44.6577 27.8496 44.3884 27.7662L43.213 27.3923C42.823 27.2669 42.4371 27.1291 42.0557 26.9792C41.6946 26.8366 41.3771 26.6585 41.1037 26.446C40.8343 26.2387 40.6155 25.9729 40.4638 25.6688C40.3108 25.3633 40.2344 24.9847 40.2344 24.5332C40.2344 24.0149 40.3355 23.5669 40.537 23.1879C40.7382 22.81 41.0303 22.4882 41.387 22.2514C41.7513 22.0055 42.1878 21.8211 42.6954 21.6985C43.2035 21.5756 43.7633 21.5141 44.3754 21.5141C45.1243 21.5141 45.7687 21.6003 46.3091 21.7729C46.8493 21.9459 47.2922 22.1817 47.6375 22.4804C47.9822 22.7795 48.2379 23.1315 48.4042 23.5368C48.5702 23.942 48.6532 24.377 48.6532 24.8421H45.6353C45.6353 24.4366 45.5327 24.1213 45.3274 23.8954C45.1224 23.6695 44.8116 23.5564 44.395 23.5564C44.076 23.5564 43.8026 23.628 43.5745 23.7709C43.3464 23.9135 43.2327 24.128 43.2327 24.4134C43.2327 24.6051 43.2865 24.7588 43.3942 24.8741C43.502 24.9895 43.66 25.0937 43.8685 25.1859C44.0776 25.2784 44.3348 25.3744 44.6415 25.4733L45.6952 25.8142C46.1245 25.927 46.5249 26.0518 46.8959 26.1896C47.2665 26.3275 47.5938 26.4951 47.8767 26.6921C48.1554 26.8841 48.386 27.1378 48.5505 27.4335C48.7165 27.7307 48.7995 28.1081 48.7995 28.5646C48.7995 29.1676 48.6823 29.6808 48.4479 30.1048C48.221 30.5202 47.8978 30.8752 47.5054 31.1399C47.1116 31.406 46.6542 31.5971 46.1333 31.7127C45.6125 31.8284 45.0657 31.886 44.4926 31.886C43.067 31.886 41.9613 31.5822 41.1769 30.9745C40.3922 30.3668 40 29.4847 40 28.3289V28.3292ZM49.1138 24.2297V21.9133H50.6028V19H53.6295V21.9133H55.7955V24.23H53.6295V27.7199C53.6295 28.0824 53.6619 28.3707 53.7262 28.5849C53.7905 28.7991 53.8824 28.9673 54.0018 29.089C54.1196 29.2103 54.2713 29.293 54.4371 29.3263C54.6264 29.3644 54.8193 29.3825 55.0124 29.3805C55.141 29.3805 55.3057 29.3757 55.5057 29.3656C55.7052 29.3561 55.8795 29.3377 56.0277 29.3111V31.7254C55.7472 31.7727 55.4649 31.8096 55.1816 31.836C54.8432 31.8695 54.445 31.8863 53.9872 31.8863C53.6112 31.8848 53.2357 31.8583 52.8632 31.8071C52.4704 31.7545 52.0951 31.6113 51.767 31.3889C51.4306 31.1639 51.1524 30.8173 50.9329 30.3503C50.7127 29.883 50.6028 29.2414 50.6028 28.4262V24.2297H49.1138ZM59.7974 27.0093C59.7974 27.3492 59.856 27.6743 59.9729 27.9845C60.0895 28.2944 60.2501 28.5611 60.4535 28.7845C60.6612 29.0108 60.9112 29.1944 61.1894 29.3247C61.4765 29.4616 61.7971 29.5297 62.1509 29.5297C62.5045 29.5297 62.827 29.4616 63.1172 29.3247C63.408 29.1878 63.6548 29.0079 63.8585 28.7845C64.0622 28.5615 64.2222 28.2966 64.3391 27.9893C64.4572 27.6761 64.5167 27.3439 64.5146 27.0093C64.5167 26.6811 64.4572 26.3555 64.3391 26.0493C64.2267 25.7565 64.0641 25.4857 63.8585 25.2489C63.6548 25.0156 63.404 24.8282 63.1226 24.6989C62.8352 24.5658 62.5111 24.499 62.1509 24.499C61.7971 24.499 61.4765 24.5655 61.1894 24.6986C60.908 24.828 60.6572 25.0156 60.4535 25.2489C60.2479 25.4857 60.0853 25.7566 59.9729 26.0493C59.8548 26.3555 59.7953 26.6811 59.7974 27.0093ZM56.6563 27.0093C56.6563 26.2692 56.7754 25.5823 57.014 24.9489C57.2522 24.3152 57.5842 23.7703 58.0109 23.3137C58.4347 22.8589 58.9425 22.4904 59.5063 22.2286C60.0771 21.9618 60.6949 21.8284 61.3599 21.8284C62.1009 21.8284 62.7437 21.9852 63.2876 22.2983C63.8319 22.6119 64.2409 23.0086 64.5146 23.4886V22.0784H67.6557V31.9503H64.5146V30.5597C64.2675 31.0128 63.8699 31.3997 63.3228 31.7197C62.7754 32.0397 62.1208 32.2 61.3599 32.2C60.7019 32.2 60.0857 32.0666 59.5116 31.7998C58.9447 31.5384 58.4348 31.168 58.0109 30.7096C57.5845 30.2496 57.2522 29.703 57.014 29.0693C56.7754 28.436 56.6563 27.7491 56.6563 27.009V27.0093ZM68.2843 24.2294V21.9133H69.7732V19H72.8V21.9133H74.966V24.23H72.8V27.7199C72.8 28.0824 72.8323 28.3707 72.8966 28.5849C72.9609 28.7991 73.0528 28.9673 73.1722 29.089C73.29 29.2103 73.4418 29.293 73.6075 29.3263C73.7969 29.3644 73.9897 29.3826 74.1828 29.3805C74.3114 29.3805 74.4762 29.3757 74.6761 29.3656C74.8757 29.3561 75.0499 29.3377 75.1982 29.3111V31.7254C74.9176 31.7727 74.6353 31.8096 74.352 31.836C74.0137 31.8695 73.6154 31.8863 73.1576 31.8863C72.7816 31.8848 72.4061 31.8583 72.0336 31.8071C71.6408 31.7545 71.2656 31.6113 70.9375 31.3889C70.601 31.1639 70.3229 30.8173 70.1033 30.3503C69.8832 29.883 69.7732 29.2414 69.7732 28.4262V24.2297H68.2843V24.2294ZM76.4553 27.9099V22.0865H79.5355V27.1153C79.5355 27.8177 79.6597 28.389 79.9084 28.8297C80.1568 29.2701 80.6016 29.4906 81.2428 29.4906C81.884 29.4906 82.357 29.2669 82.6611 28.8196C82.9653 28.3725 83.1173 27.768 83.1173 27.006V22.0865H86.1976V31.8957H83.1173V30.4944C82.8493 31.0111 82.4403 31.4154 81.8907 31.7069C81.3413 31.9984 80.6836 32.1441 79.9182 32.1441C79.2454 32.1441 78.6932 32.038 78.261 31.826C77.8289 31.6141 77.4776 31.346 77.207 31.0213C76.8972 30.6433 76.6944 30.206 76.5988 29.7096C76.5031 29.2121 76.4553 28.6127 76.4553 27.9103V27.9099ZM87.4547 28.3292H90.4529C90.4529 28.7693 90.5961 29.0852 90.8825 29.2769C91.1689 29.4686 91.537 29.5646 91.9863 29.5646C92.3576 29.5646 92.6617 29.5018 92.8993 29.3757C93.1369 29.2496 93.256 29.0431 93.256 28.7554C93.256 28.5855 93.2053 28.4461 93.1046 28.3378C93.0035 28.2294 92.8489 28.1325 92.6405 28.0476C92.3784 27.9435 92.1124 27.8496 91.8431 27.7662L90.6677 27.3923C90.2777 27.2668 89.8918 27.129 89.5104 26.9792C89.1493 26.8366 88.8315 26.6585 88.5584 26.446C88.289 26.2387 88.0702 25.9729 87.9185 25.6688C87.7655 25.3633 87.6891 24.9847 87.6891 24.5332C87.6891 24.0149 87.7899 23.5669 87.9917 23.1879C88.1929 22.81 88.485 22.4882 88.8417 22.2514C89.206 22.0055 89.6425 21.8211 90.1501 21.6985C90.6579 21.5756 91.2177 21.5141 91.8301 21.5141C92.5787 21.5141 93.2234 21.6003 93.7638 21.7729C94.304 21.9459 94.7469 22.1817 95.0922 22.4804C95.4369 22.7795 95.6926 23.1315 95.8589 23.5368C96.0246 23.942 96.1079 24.377 96.1079 24.8421H93.09C93.09 24.4366 92.9874 24.1213 92.7821 23.8954C92.5771 23.6695 92.266 23.5564 91.8494 23.5564C91.5304 23.5564 91.257 23.628 91.0289 23.7709C90.8011 23.9135 90.6874 24.128 90.6874 24.4134C90.6874 24.6051 90.7412 24.7588 90.8489 24.8741C90.9566 24.9895 91.1144 25.0937 91.3232 25.1859C91.5323 25.2784 91.7892 25.3744 92.0959 25.4733L93.1499 25.8142C93.556 25.9196 93.9567 26.0449 94.3506 26.1896C94.7212 26.3275 95.0485 26.4951 95.3314 26.6921C95.6101 26.8841 95.8407 27.1378 96.0052 27.4335C96.1712 27.7307 96.2542 28.1081 96.2542 28.5646C96.2542 29.1676 96.137 29.6808 95.9026 30.1048C95.6758 30.5203 95.3526 30.8752 94.9601 31.1399C94.5663 31.406 94.1088 31.5971 93.588 31.7127C93.0669 31.8284 92.5204 31.886 91.9473 31.886C90.5217 31.886 89.416 31.5822 88.6316 30.9745C87.8469 30.3668 87.4547 29.4847 87.4547 28.3289" fill="white"/>
</svg>
