<svg width="63" height="63" viewBox="0 0 63 63" fill="none" xmlns="http://www.w3.org/2000/svg">
<path d="M49.9 45.4C49.9 45.4 46.1 24.1 26.9 24.1V15.9L10.5 30.7L26.9 44.5V35C37.4 34.9 44.5 35.8 49.9 45.4Z" fill="#4360DF"/>
<path d="M31.4 62.5C14.4 62.5 0.599976 48.7 0.599976 31.7C0.599976 14.7 14.4 0.900024 31.4 0.900024C48.4 0.900024 62.2 14.7 62.2 31.7C62.3 48.7 48.4 62.5 31.4 62.5ZM31.4 4.90002C16.6 4.90002 4.59998 16.9 4.59998 31.7C4.59998 46.5 16.6 58.5 31.4 58.5C46.2 58.5 58.2 46.5 58.2 31.7C58.3 16.9 46.2 4.90002 31.4 4.90002Z" fill="#4360DF"/>
</svg>
