<svg width="30" height="31" viewBox="0 0 30 31" fill="none" xmlns="http://www.w3.org/2000/svg">
<path fill-rule="evenodd" clip-rule="evenodd" d="M15 0C6.7157 0 0 6.72291 0 15.0159C0 23.3089 6.7157 30.0318 15 30.0318C23.2843 30.0318 30 23.3089 30 15.0159C30 6.72291 23.2843 0 15 0Z" fill="#808080"/>
<path fill-rule="evenodd" clip-rule="evenodd" d="M15.5037 14.3579C16.2569 14.4364 17.0102 14.5149 17.9362 14.4632C20.4452 14.3232 21.965 13.0341 21.8571 11.1072C21.7472 9.14668 19.7253 7.9388 17.7022 8.05172C14.4052 8.23558 11.9808 11.1332 11.7078 14.4451C12.1555 14.3401 12.6268 14.2774 13.0712 14.2526C13.9973 14.201 14.7505 14.2794 15.5037 14.3579ZM9.04063 18.6439C9.14468 20.4411 11.0602 21.5483 12.9769 21.4448C16.1002 21.2762 18.3972 18.62 18.6558 15.5841C18.2316 15.6804 17.7852 15.7379 17.3641 15.7606C16.4868 15.808 15.7732 15.736 15.0595 15.6641C14.346 15.5922 13.6324 15.5202 12.755 15.5676C10.3782 15.6959 8.93833 16.8776 9.04063 18.6439Z" fill="black"/>
</svg>
