<svg width="27" height="27" viewBox="0 0 27 27" fill="none" xmlns="http://www.w3.org/2000/svg">
<path fill-rule="evenodd" clip-rule="evenodd" d="M0 9.25712C0 4.14457 4.02945 0 9 0H19.5C23.6423 0 27 3.45368 27 7.71427V13.8857C27 18.1463 23.6423 21.6 19.5 21.6H9.75435C8.6646 21.6 7.6113 22.007 6.79095 22.7452L2.4876 26.6182C2.04495 27.0169 1.41615 27.1123 0.88005 26.862C0.34425 26.6119 0 26.0624 0 25.4571V9.25712ZM9 3.08571C5.6862 3.08571 3 5.84881 3 9.25712V22.0571L4.8156 20.4229C6.1827 19.1925 7.93755 18.5142 9.75435 18.5142H19.5C21.9851 18.5142 24 16.442 24 13.8857V7.71427C24 5.15792 21.9851 3.08571 19.5 3.08571H9ZM9.375 13.1143C10.6176 13.1143 11.625 12.0781 11.625 10.8C11.625 9.52188 10.6176 8.4857 9.375 8.4857C8.1324 8.4857 7.125 9.52188 7.125 10.8C7.125 12.0781 8.1324 13.1143 9.375 13.1143ZM17.625 13.1143C18.8676 13.1143 19.875 12.0781 19.875 10.8C19.875 9.52188 18.8676 8.4857 17.625 8.4857C16.3824 8.4857 15.375 9.52188 15.375 10.8C15.375 12.0781 16.3824 13.1143 17.625 13.1143Z" fill="#939BA1"/>
</svg>
