<svg width="33" height="50" viewBox="0 0 33 50" fill="none" xmlns="http://www.w3.org/2000/svg">
<path fill-rule="evenodd" clip-rule="evenodd" d="M10.1975 14.6016V9.90137C10.1975 6.41506 13.0252 3.57864 16.5 3.57864C19.9755 3.57864 22.8032 6.41506 22.8032 9.90137V14.6016H23.2377C24.3222 14.6016 25.3675 14.7554 26.3707 15.0167V9.90137C26.3707 4.4418 21.9427 0 16.5 0C11.0573 0 6.62997 4.4418 6.62997 9.90137V15.0167C7.63245 14.7554 8.67918 14.6016 9.76372 14.6016H10.1975ZM10.7027 17.2562C4.79196 17.2562 0 22.063 0 27.9921V39.2641C0 45.1939 4.79196 50 10.7027 50H22.2973C28.208 50 33 45.1939 33 39.2641V27.9921C33 22.063 28.208 17.2562 22.2973 17.2562H10.7027ZM18.4622 38.7552V33.6013C19.2877 32.9929 19.83 32.0202 19.83 30.9144C19.83 29.07 18.3387 27.5741 16.5 27.5741C14.6613 27.5741 13.17 29.07 13.17 30.9144C13.17 32.0202 13.7123 32.9929 14.5378 33.6013V38.7552C14.5378 39.8431 15.4162 40.7235 16.5 40.7235C17.5838 40.7235 18.4622 39.8431 18.4622 38.7552Z" fill="black"/>
</svg>
