<svg width="34" height="39" viewBox="0 0 34 39" fill="none" xmlns="http://www.w3.org/2000/svg">
<path fill-rule="evenodd" clip-rule="evenodd" d="M1.619 6.78163L16.354 0.130678C16.7424 -0.04464 17.1887 -0.0435034 17.5762 0.133791L32.0108 6.73815C32.4435 6.93613 32.7519 7.33018 32.8377 7.79455C34.0223 14.2086 33.5242 20.161 31.3434 25.6518C29.0785 31.3543 24.3727 35.4913 17.226 38.0626C9.87383 36.2554 4.90753 31.9102 2.32714 25.0269C-0.145514 18.431 -0.647719 12.6534 0.82053 7.69391C0.940286 7.2894 1.2317 6.95644 1.619 6.78163ZM20.1354 10.4413L16.0844 14.5553L14.5369 13.0577C14.1926 12.7246 13.6316 12.7218 13.2837 13.0515C12.9359 13.3813 12.933 13.9187 13.2773 14.2519L15.47 16.3738C15.8226 16.7151 16.4004 16.7084 16.7444 16.3591L21.4247 11.606C21.7605 11.265 21.7441 10.7278 21.3881 10.4062C21.032 10.0845 20.4712 10.1002 20.1354 10.4413ZM23.432 15.4245C23.432 15.3277 23.393 15.2349 23.3236 15.1667C23.1799 15.0257 22.9479 15.0267 22.8055 15.1691L20.0205 17.9523C19.9525 18.0203 19.9144 18.1121 19.9144 18.2077V26.9774C19.9144 27.0655 19.9467 27.1506 20.0054 27.2167C20.1388 27.3674 20.3703 27.3823 20.5223 27.2501L23.3073 24.8297C23.3866 24.7608 23.432 24.6614 23.432 24.5569V15.4245ZM16.9686 20.9306C16.8355 21.0433 16.6405 21.0469 16.5032 20.9392L15.6375 20.2602C15.5728 20.2094 15.4927 20.1818 15.4101 20.1818C15.2078 20.1818 15.0438 20.3442 15.0438 20.5446V26.9781C15.0438 27.0666 15.0764 27.152 15.1355 27.2183C15.2694 27.3685 15.5009 27.3827 15.6525 27.2501L18.4375 24.815C18.5163 24.7461 18.5614 24.647 18.5614 24.543V20.3701C18.5614 20.2837 18.5303 20.2001 18.4736 20.1344C18.3422 19.982 18.111 19.964 17.9571 20.0942L16.9686 20.9306ZM10.4437 15.4237V26.9822C10.4437 27.1826 10.6078 27.345 10.8101 27.345C10.8943 27.345 10.976 27.3163 11.0414 27.2636L13.8264 25.0175C13.9118 24.9486 13.9614 24.8452 13.9614 24.7361V18.19C13.9614 18.0939 13.923 18.0018 13.8545 17.9338L11.0695 15.1675C10.9266 15.0256 10.6947 15.0253 10.5514 15.1668C10.4825 15.2349 10.4437 15.3273 10.4437 15.4237Z" fill="#808080"/>
</svg>
