<svg width="533" height="211" viewBox="0 0 533 211" fill="none" xmlns="http://www.w3.org/2000/svg">
<path fill-rule="evenodd" clip-rule="evenodd" d="M515 211C524.941 211 533 202.941 533 193C533 183.059 524.941 175 515 175C505.059 175 497 183.059 497 193C497 202.941 505.059 211 515 211Z" fill="#AAECA5"/>
<mask id="mask0" mask-type="alpha" maskUnits="userSpaceOnUse" x="497" y="175" width="36" height="36">
<path fill-rule="evenodd" clip-rule="evenodd" d="M515 211C524.941 211 533 202.941 533 193C533 183.059 524.941 175 515 175C505.059 175 497 183.059 497 193C497 202.941 505.059 211 515 211Z" fill="white"/>
</mask>
<g mask="url(#mask0)">
<path opacity="0.2" fill-rule="evenodd" clip-rule="evenodd" d="M515.5 196C519.09 196 522 193.09 522 189.5C522 185.91 519.09 183 515.5 183C511.91 183 509 185.91 509 189.5C509 193.09 511.91 196 515.5 196Z" fill="black"/>
<path opacity="0.2" fill-rule="evenodd" clip-rule="evenodd" d="M515 237C524.941 237 533 228.941 533 219C533 209.059 524.941 201 515 201C505.059 201 497 209.059 497 219C497 228.941 505.059 237 515 237Z" fill="black"/>
</g>
<path fill-rule="evenodd" clip-rule="evenodd" d="M366.44 109.703C366.44 110.09 366.123 110.406 365.737 110.406C365.35 110.406 365.034 110.09 365.034 109.703C365.034 109.317 365.35 109 365.737 109C366.123 109 366.44 109.317 366.44 109.703ZM355.984 118.006V111.549H356.055L358.721 117.947H359.611L362.277 111.549H362.348V118.006H363.332V109.551H362.107L359.213 116.547H359.119L356.225 109.551H355V118.006H355.984ZM365.233 118.006H366.241V111.69H365.233V118.006ZM373.239 113.623C373.063 112.498 372.126 111.578 370.591 111.578C368.821 111.578 367.696 112.856 367.696 114.824C367.696 116.834 368.827 118.117 370.597 118.117C372.114 118.117 373.057 117.262 373.239 116.102H372.22C372.032 116.817 371.44 117.209 370.591 117.209C369.466 117.209 368.739 116.283 368.739 114.824C368.739 113.395 369.454 112.486 370.591 112.486C371.499 112.486 372.056 112.996 372.22 113.623H373.239ZM375.644 118.006H374.636V109.182H375.644V112.686H375.737C376.054 111.988 376.775 111.578 377.741 111.578C379.177 111.578 379.98 112.434 379.98 113.916V118.006H378.972V114.162C378.972 113.043 378.48 112.486 377.454 112.486C376.323 112.486 375.644 113.201 375.644 114.268V118.006ZM383.615 117.233C382.882 117.233 382.337 116.858 382.337 116.213C382.337 115.58 382.759 115.246 383.72 115.182L385.42 115.07V115.651C385.42 116.553 384.652 117.233 383.615 117.233ZM385.373 117.074C384.962 117.748 384.271 118.117 383.427 118.117C382.203 118.117 381.295 117.391 381.295 116.236C381.295 115.106 382.127 114.455 383.597 114.367L385.42 114.256V113.682C385.42 112.902 384.933 112.475 383.99 112.475C383.234 112.475 382.707 112.762 382.566 113.26H381.546C381.681 112.246 382.677 111.578 384.025 111.578C385.566 111.578 386.427 112.369 386.427 113.682V118.006H385.466V117.074H385.373ZM390.66 112.469C391.662 112.469 392.33 113.207 392.354 114.326H388.873C388.949 113.207 389.652 112.469 390.66 112.469ZM390.695 117.227C391.51 117.227 392.061 116.928 392.324 116.371H393.332C393.027 117.455 392.055 118.117 390.672 118.117C388.92 118.117 387.824 116.852 387.824 114.854C387.824 112.867 388.938 111.578 390.672 111.578C392.377 111.578 393.414 112.791 393.414 114.754V115.141H388.873V115.188C388.926 116.436 389.623 117.227 390.695 117.227ZM394.905 118.006H395.913V109.182H394.905V118.006ZM412.007 114.127V115.082H400.007V114.127H412.007ZM419.424 118.006V110.5H422.149V109.551H415.645V110.5H418.369V118.006H419.424ZM424.565 118.006H423.557V109.182H424.565V112.686H424.659C424.975 111.988 425.696 111.578 426.663 111.578C428.098 111.578 428.901 112.434 428.901 113.916V118.006H427.893V114.162C427.893 113.043 427.401 112.486 426.376 112.486C425.245 112.486 424.565 113.201 424.565 114.268V118.006ZM433.11 112.469C434.112 112.469 434.78 113.207 434.804 114.326H431.323C431.399 113.207 432.102 112.469 433.11 112.469ZM433.145 117.227C433.96 117.227 434.511 116.928 434.774 116.371H435.782C435.477 117.455 434.505 118.117 433.122 118.117C431.37 118.117 430.274 116.852 430.274 114.854C430.274 112.867 431.388 111.578 433.122 111.578C434.827 111.578 435.864 112.791 435.864 114.754V115.141H431.323V115.188C431.376 116.436 432.073 117.227 433.145 117.227ZM440.533 118.006H441.541V114.092C441.541 113.201 442.238 112.557 443.199 112.557C443.398 112.557 443.761 112.592 443.843 112.615V111.608C443.715 111.59 443.504 111.578 443.34 111.578C442.502 111.578 441.775 112.012 441.588 112.627H441.494V111.69H440.533V118.006ZM448.99 114.326C448.967 113.207 448.299 112.469 447.297 112.469C446.289 112.469 445.586 113.207 445.51 114.326H448.99ZM448.961 116.371C448.697 116.928 448.147 117.227 447.332 117.227C446.26 117.227 445.563 116.436 445.51 115.188V115.141H450.051V114.754C450.051 112.791 449.014 111.578 447.309 111.578C445.574 111.578 444.461 112.867 444.461 114.854C444.461 116.852 445.557 118.117 447.309 118.117C448.692 118.117 449.664 117.455 449.969 116.371H448.961ZM454.061 111.578C455.596 111.578 456.534 112.498 456.709 113.623H455.69C455.526 112.996 454.969 112.486 454.061 112.486C452.924 112.486 452.209 113.395 452.209 114.824C452.209 116.283 452.936 117.209 454.061 117.209C454.911 117.209 455.502 116.817 455.69 116.102H456.709C456.528 117.262 455.584 118.117 454.067 118.117C452.297 118.117 451.167 116.834 451.167 114.824C451.167 112.856 452.292 111.578 454.061 111.578ZM458.071 111.69V118.006H459.079V111.69H458.071ZM459.278 109.703C459.278 110.09 458.962 110.406 458.575 110.406C458.188 110.406 457.872 110.09 457.872 109.703C457.872 109.317 458.188 109 458.575 109C458.962 109 459.278 109.317 459.278 109.703ZM463.927 111.578C463.066 111.578 462.31 112.018 461.906 112.744H461.812V111.69H460.851V120.115H461.859V117.057H461.952C462.298 117.725 463.025 118.117 463.927 118.117C465.533 118.117 466.581 116.822 466.581 114.848C466.581 112.861 465.538 111.578 463.927 111.578ZM461.829 114.848C461.829 116.295 462.55 117.209 463.687 117.209C464.847 117.209 465.538 116.324 465.538 114.848C465.538 113.371 464.847 112.486 463.693 112.486C462.55 112.486 461.829 113.395 461.829 114.848ZM468.037 118.006H469.045V111.69H468.037V118.006ZM469.244 109.703C469.244 110.09 468.927 110.406 468.541 110.406C468.154 110.406 467.838 110.09 467.838 109.703C467.838 109.317 468.154 109 468.541 109C468.927 109 469.244 109.317 469.244 109.703ZM473.336 112.469C474.338 112.469 475.006 113.207 475.029 114.326H471.549C471.625 113.207 472.328 112.469 473.336 112.469ZM473.371 117.227C474.186 117.227 474.736 116.928 475 116.371H476.008C475.703 117.455 474.731 118.117 473.348 118.117C471.596 118.117 470.5 116.852 470.5 114.854C470.5 112.867 471.613 111.578 473.348 111.578C475.053 111.578 476.09 112.791 476.09 114.754V115.141H471.549V115.188C471.602 116.436 472.299 117.227 473.371 117.227ZM477.522 118.006H478.53V114.268C478.53 113.16 479.198 112.486 480.305 112.486C481.313 112.486 481.793 113.026 481.793 114.162V118.006H482.801V113.916C482.801 112.416 482.01 111.578 480.592 111.578C479.626 111.578 478.893 111.988 478.577 112.686H478.483V111.69H477.522V118.006ZM484.919 111.69V110.113H485.927V111.69H487.392V112.533H485.927V116.108C485.927 116.852 486.208 117.168 486.864 117.168C487.046 117.168 487.134 117.162 487.321 117.145V117.994C487.122 118.029 486.94 118.053 486.741 118.053C485.44 118.053 484.919 117.572 484.919 116.365V112.533H483.858V111.69H484.919Z" fill="#939BA1"/>
<rect x="154" y="125" width="333" height="86" rx="8" fill="white"/>
<path d="M153 170H487C487 170.552 486.252 171 485.33 171H154.67C153.748 171 153 170.552 153 170Z" fill="#E8EBEC"/>
<path fill-rule="evenodd" clip-rule="evenodd" d="M333.745 196.169C334.836 196.169 335.774 195.649 336.272 194.77H336.389V196.03H337.59V185H336.33V189.38H336.221C335.774 188.515 334.844 187.995 333.745 187.995C331.738 187.995 330.427 189.607 330.427 192.082C330.427 194.565 331.723 196.169 333.745 196.169ZM307.926 196.279C305.684 196.279 304.139 195.092 304 193.269H305.333C305.494 194.375 306.549 195.078 308.05 195.078C309.471 195.078 310.518 194.309 310.518 193.261C310.518 192.361 309.859 191.789 308.402 191.423L307.047 191.072C305.135 190.588 304.307 189.724 304.307 188.222C304.307 186.428 305.809 185.212 308.043 185.212C310.086 185.212 311.61 186.428 311.72 188.134H310.394C310.211 187.051 309.317 186.406 307.999 186.406C306.593 186.406 305.662 187.109 305.662 188.178C305.662 189.006 306.241 189.482 307.699 189.856L308.805 190.149C310.994 190.698 311.873 191.548 311.873 193.1C311.873 195.041 310.343 196.279 307.926 196.279ZM318.988 191.43C318.959 190.031 318.124 189.109 316.871 189.109C315.612 189.109 314.733 190.031 314.638 191.43H318.988ZM318.952 193.987C318.622 194.682 317.933 195.056 316.915 195.056C315.575 195.056 314.703 194.067 314.638 192.507V192.448H320.314V191.965C320.314 189.511 319.017 187.995 316.886 187.995C314.718 187.995 313.327 189.607 313.327 192.09C313.327 194.587 314.696 196.169 316.886 196.169C318.615 196.169 319.83 195.342 320.211 193.987H318.952ZM323.364 196.03H322.104V188.134H323.305V189.38H323.422C323.818 188.508 324.733 187.995 325.942 187.995C327.714 187.995 328.703 189.043 328.703 190.918V196.03H327.443V191.225C327.443 189.804 326.843 189.131 325.583 189.131C324.199 189.131 323.364 189.973 323.364 191.357V196.03ZM336.36 192.082C336.36 190.273 335.466 189.131 334.038 189.131C332.602 189.131 331.731 190.244 331.731 192.082C331.731 193.928 332.595 195.034 334.038 195.034C335.473 195.034 336.36 193.906 336.36 192.082Z" fill="#4360DF"/>
<path d="M169.321 143.091H170.898L174.605 152.146H174.733L178.44 143.091H180.017V154H178.781V145.712H178.675L175.266 154H174.072L170.663 145.712H170.557V154H169.321V143.091ZM182.832 154V145.818H184.089V154H182.832ZM183.471 144.455C183.226 144.455 183.015 144.371 182.838 144.204C182.664 144.037 182.577 143.837 182.577 143.602C182.577 143.368 182.664 143.167 182.838 143C183.015 142.833 183.226 142.75 183.471 142.75C183.716 142.75 183.926 142.833 184.1 143C184.278 143.167 184.366 143.368 184.366 143.602C184.366 143.837 184.278 144.037 184.1 144.204C183.926 144.371 183.716 144.455 183.471 144.455ZM189.716 154.17C188.949 154.17 188.288 153.989 187.734 153.627C187.18 153.265 186.754 152.766 186.456 152.13C186.157 151.495 186.008 150.768 186.008 149.952C186.008 149.121 186.161 148.387 186.466 147.752C186.775 147.113 187.205 146.614 187.755 146.255C188.309 145.893 188.956 145.712 189.694 145.712C190.27 145.712 190.788 145.818 191.25 146.031C191.711 146.244 192.09 146.543 192.384 146.926C192.679 147.31 192.862 147.757 192.933 148.268H191.676C191.58 147.896 191.367 147.565 191.037 147.278C190.71 146.987 190.27 146.841 189.716 146.841C188.981 146.841 188.388 147.121 187.937 147.683C187.489 148.24 187.265 148.982 187.265 149.909C187.265 150.857 187.487 151.617 187.931 152.189C188.375 152.757 188.97 153.041 189.716 153.041C190.206 153.041 190.625 152.915 190.973 152.663C191.324 152.411 191.559 152.061 191.676 151.614H192.933C192.862 152.097 192.686 152.532 192.406 152.919C192.129 153.302 191.761 153.608 191.303 153.835C190.848 154.059 190.319 154.17 189.716 154.17ZM196.028 149.078V154H194.771V143.091H196.028V147.097H196.134C196.326 146.674 196.614 146.338 196.997 146.09C197.384 145.838 197.899 145.712 198.542 145.712C199.38 145.712 200.055 145.964 200.566 146.468C201.078 146.972 201.333 147.75 201.333 148.801V154H200.076V148.886C200.076 148.237 199.907 147.734 199.57 147.379C199.236 147.02 198.773 146.841 198.18 146.841C197.558 146.841 197.043 147.036 196.635 147.427C196.23 147.814 196.028 148.364 196.028 149.078ZM206.041 154.192C205.522 154.192 205.052 154.094 204.629 153.899C204.206 153.7 203.871 153.414 203.622 153.041C203.374 152.665 203.249 152.21 203.249 151.678C203.249 151.209 203.342 150.829 203.526 150.538C203.711 150.243 203.958 150.012 204.267 149.845C204.576 149.678 204.917 149.554 205.29 149.472C205.666 149.387 206.044 149.32 206.424 149.27C206.921 149.206 207.324 149.158 207.633 149.126C207.946 149.091 208.173 149.032 208.315 148.95C208.461 148.869 208.534 148.727 208.534 148.524V148.482C208.534 147.956 208.39 147.548 208.102 147.256C207.818 146.965 207.387 146.82 206.808 146.82C206.208 146.82 205.737 146.951 205.396 147.214C205.055 147.477 204.816 147.757 204.677 148.055L203.484 147.629C203.697 147.132 203.981 146.745 204.336 146.468C204.695 146.187 205.085 145.992 205.508 145.882C205.934 145.768 206.353 145.712 206.765 145.712C207.028 145.712 207.33 145.744 207.671 145.808C208.015 145.868 208.347 145.994 208.667 146.186C208.99 146.377 209.258 146.667 209.471 147.054C209.684 147.441 209.791 147.96 209.791 148.609V154H208.534V152.892H208.47C208.384 153.07 208.242 153.26 208.044 153.462C207.845 153.664 207.58 153.837 207.25 153.979C206.92 154.121 206.517 154.192 206.041 154.192ZM206.232 153.062C206.73 153.062 207.149 152.965 207.49 152.77C207.834 152.574 208.093 152.322 208.267 152.013C208.445 151.704 208.534 151.379 208.534 151.038V149.888C208.48 149.952 208.363 150.01 208.182 150.064C208.004 150.113 207.798 150.158 207.564 150.197C207.333 150.232 207.108 150.264 206.888 150.293C206.671 150.317 206.495 150.339 206.36 150.357C206.034 150.399 205.728 150.468 205.444 150.564C205.164 150.657 204.936 150.797 204.762 150.985C204.592 151.17 204.507 151.422 204.507 151.741C204.507 152.178 204.668 152.509 204.991 152.732C205.318 152.952 205.732 153.062 206.232 153.062ZM215.516 154.17C214.727 154.17 214.047 153.996 213.475 153.648C212.907 153.297 212.469 152.807 212.16 152.178C211.854 151.546 211.702 150.811 211.702 149.973C211.702 149.135 211.854 148.396 212.16 147.757C212.469 147.114 212.898 146.614 213.449 146.255C214.003 145.893 214.649 145.712 215.388 145.712C215.814 145.712 216.235 145.783 216.65 145.925C217.066 146.067 217.444 146.298 217.785 146.617C218.126 146.933 218.397 147.352 218.6 147.874C218.802 148.396 218.903 149.039 218.903 149.803V150.335H212.964C212.992 151.209 213.239 151.878 213.704 152.343C214.173 152.809 214.777 153.041 215.516 153.041C216.009 153.041 216.434 152.935 216.789 152.722C217.144 152.509 217.401 152.189 217.561 151.763L218.775 152.104C218.584 152.722 218.2 153.221 217.625 153.6C217.05 153.98 216.347 154.17 215.516 154.17ZM212.964 149.249H217.625C217.625 148.556 217.422 147.983 217.018 147.528C216.613 147.07 216.07 146.841 215.388 146.841C214.908 146.841 214.493 146.953 214.141 147.176C213.79 147.4 213.513 147.697 213.31 148.066C213.108 148.432 212.992 148.826 212.964 149.249ZM222.073 143.091V154H220.816V143.091H222.073ZM242.443 147.96V149.131H227.443V147.96H242.443ZM247.387 144.263V143.091H255.568V144.263H252.138V154H250.817V144.263H247.387ZM258.694 149.078V154H257.437V143.091H258.694V147.097H258.8C258.992 146.674 259.28 146.338 259.663 146.09C260.05 145.838 260.565 145.712 261.208 145.712C262.046 145.712 262.721 145.964 263.232 146.468C263.744 146.972 263.999 147.75 263.999 148.801V154H262.742V148.886C262.742 148.237 262.573 147.734 262.236 147.379C261.902 147.02 261.439 146.841 260.846 146.841C260.224 146.841 259.709 147.036 259.301 147.427C258.896 147.814 258.694 148.364 258.694 149.078ZM269.729 154.17C268.941 154.17 268.261 153.996 267.689 153.648C267.121 153.297 266.683 152.807 266.374 152.178C266.068 151.546 265.915 150.811 265.915 149.973C265.915 149.135 266.068 148.396 266.374 147.757C266.683 147.114 267.112 146.614 267.663 146.255C268.217 145.893 268.863 145.712 269.602 145.712C270.028 145.712 270.449 145.783 270.864 145.925C271.279 146.067 271.658 146.298 271.999 146.617C272.339 146.933 272.611 147.352 272.814 147.874C273.016 148.396 273.117 149.039 273.117 149.803V150.335H267.178C267.206 151.209 267.453 151.878 267.918 152.343C268.387 152.809 268.991 153.041 269.729 153.041C270.223 153.041 270.647 152.935 271.002 152.722C271.358 152.509 271.615 152.189 271.775 151.763L272.989 152.104C272.798 152.722 272.414 153.221 271.839 153.6C271.263 153.98 270.56 154.17 269.729 154.17ZM267.178 149.249H271.839C271.839 148.556 271.636 147.983 271.232 147.528C270.827 147.07 270.283 146.841 269.602 146.841C269.122 146.841 268.707 146.953 268.355 147.176C268.004 147.4 267.727 147.697 267.524 148.066C267.322 148.432 267.206 148.826 267.178 149.249ZM279.248 154V145.818H280.463V147.054H280.548C280.697 146.649 280.967 146.321 281.358 146.069C281.748 145.816 282.189 145.69 282.679 145.69C282.771 145.69 282.886 145.692 283.025 145.696C283.163 145.699 283.268 145.705 283.339 145.712V146.99C283.297 146.979 283.199 146.963 283.046 146.942C282.897 146.917 282.739 146.905 282.572 146.905C281.975 146.905 281.482 147.086 281.091 147.448C280.701 147.81 280.505 148.268 280.505 148.822V154H279.248ZM288.011 154.17C287.222 154.17 286.542 153.996 285.971 153.648C285.402 153.297 284.964 152.807 284.655 152.178C284.349 151.546 284.197 150.811 284.197 149.973C284.197 149.135 284.349 148.396 284.655 147.757C284.964 147.114 285.393 146.614 285.944 146.255C286.498 145.893 287.144 145.712 287.883 145.712C288.309 145.712 288.73 145.783 289.145 145.925C289.561 146.067 289.939 146.298 290.28 146.617C290.621 146.933 290.892 147.352 291.095 147.874C291.297 148.396 291.398 149.039 291.398 149.803V150.335H285.459C285.488 151.209 285.734 151.878 286.2 152.343C286.668 152.809 287.272 153.041 288.011 153.041C288.504 153.041 288.929 152.935 289.284 152.722C289.639 152.509 289.896 152.189 290.056 151.763L291.271 152.104C291.079 152.722 290.695 153.221 290.12 153.6C289.545 153.98 288.842 154.17 288.011 154.17ZM285.459 149.249H290.12C290.12 148.556 289.918 147.983 289.513 147.528C289.108 147.07 288.565 146.841 287.883 146.841C287.403 146.841 286.988 146.953 286.636 147.176C286.285 147.4 286.008 147.697 285.805 148.066C285.603 148.432 285.488 148.826 285.459 149.249ZM296.635 154.17C295.868 154.17 295.207 153.989 294.653 153.627C294.099 153.265 293.673 152.766 293.375 152.13C293.076 151.495 292.927 150.768 292.927 149.952C292.927 149.121 293.08 148.387 293.385 147.752C293.694 147.113 294.124 146.614 294.674 146.255C295.228 145.893 295.875 145.712 296.613 145.712C297.189 145.712 297.707 145.818 298.169 146.031C298.63 146.244 299.009 146.543 299.303 146.926C299.598 147.31 299.781 147.757 299.852 148.268H298.595C298.499 147.896 298.286 147.565 297.956 147.278C297.629 146.987 297.189 146.841 296.635 146.841C295.9 146.841 295.306 147.121 294.855 147.683C294.408 148.24 294.184 148.982 294.184 149.909C294.184 150.857 294.406 151.617 294.85 152.189C295.294 152.757 295.889 153.041 296.635 153.041C297.125 153.041 297.544 152.915 297.892 152.663C298.243 152.411 298.478 152.061 298.595 151.614H299.852C299.781 152.097 299.605 152.532 299.325 152.919C299.048 153.302 298.68 153.608 298.222 153.835C297.767 154.059 297.238 154.17 296.635 154.17ZM301.69 154V145.818H302.947V154H301.69ZM302.329 144.455C302.084 144.455 301.873 144.371 301.695 144.204C301.521 144.037 301.434 143.837 301.434 143.602C301.434 143.368 301.521 143.167 301.695 143C301.873 142.833 302.084 142.75 302.329 142.75C302.574 142.75 302.783 142.833 302.957 143C303.135 143.167 303.224 143.368 303.224 143.602C303.224 143.837 303.135 144.037 302.957 144.204C302.783 144.371 302.574 144.455 302.329 144.455ZM305.249 157.068V145.818H306.464V147.118H306.613C306.705 146.976 306.833 146.795 306.996 146.575C307.163 146.351 307.401 146.152 307.71 145.978C308.023 145.8 308.445 145.712 308.978 145.712C309.667 145.712 310.274 145.884 310.8 146.228C311.325 146.573 311.735 147.061 312.03 147.693C312.325 148.325 312.472 149.071 312.472 149.93C312.472 150.797 312.325 151.548 312.03 152.184C311.735 152.816 311.327 153.306 310.805 153.654C310.283 153.998 309.681 154.17 308.999 154.17C308.474 154.17 308.053 154.083 307.737 153.909C307.421 153.732 307.177 153.531 307.007 153.308C306.837 153.08 306.705 152.892 306.613 152.743H306.506V157.068H305.249ZM306.485 149.909C306.485 150.836 306.686 151.591 307.087 152.173C307.492 152.752 308.072 153.041 308.829 153.041C309.354 153.041 309.793 152.903 310.144 152.626C310.5 152.345 310.766 151.969 310.943 151.496C311.125 151.021 311.215 150.491 311.215 149.909C311.215 149.334 311.126 148.815 310.949 148.354C310.775 147.888 310.51 147.521 310.155 147.251C309.804 146.978 309.361 146.841 308.829 146.841C308.062 146.841 307.479 147.123 307.082 147.688C306.684 148.252 306.485 148.993 306.485 149.909ZM314.39 154V145.818H315.647V154H314.39ZM315.029 144.455C314.784 144.455 314.573 144.371 314.395 144.204C314.221 144.037 314.134 143.837 314.134 143.602C314.134 143.368 314.221 143.167 314.395 143C314.573 142.833 314.784 142.75 315.029 142.75C315.274 142.75 315.484 142.833 315.658 143C315.835 143.167 315.924 143.368 315.924 143.602C315.924 143.837 315.835 144.037 315.658 144.204C315.484 144.371 315.274 144.455 315.029 144.455ZM321.38 154.17C320.591 154.17 319.911 153.996 319.34 153.648C318.771 153.297 318.333 152.807 318.024 152.178C317.719 151.546 317.566 150.811 317.566 149.973C317.566 149.135 317.719 148.396 318.024 147.757C318.333 147.114 318.763 146.614 319.313 146.255C319.867 145.893 320.513 145.712 321.252 145.712C321.678 145.712 322.099 145.783 322.514 145.925C322.93 146.067 323.308 146.298 323.649 146.617C323.99 146.933 324.262 147.352 324.464 147.874C324.666 148.396 324.768 149.039 324.768 149.803V150.335H318.828C318.857 151.209 319.104 151.878 319.569 152.343C320.037 152.809 320.641 153.041 321.38 153.041C321.873 153.041 322.298 152.935 322.653 152.722C323.008 152.509 323.265 152.189 323.425 151.763L324.64 152.104C324.448 152.722 324.064 153.221 323.489 153.6C322.914 153.98 322.211 154.17 321.38 154.17ZM318.828 149.249H323.489C323.489 148.556 323.287 147.983 322.882 147.528C322.477 147.07 321.934 146.841 321.252 146.841C320.773 146.841 320.357 146.953 320.006 147.176C319.654 147.4 319.377 147.697 319.175 148.066C318.972 148.432 318.857 148.826 318.828 149.249ZM327.937 149.078V154H326.68V145.818H327.894V147.097H328.001C328.193 146.681 328.484 146.347 328.874 146.095C329.265 145.839 329.769 145.712 330.387 145.712C331.215 145.712 331.882 145.966 332.39 146.473C332.901 146.981 333.157 147.757 333.157 148.801V154H331.9V148.886C331.9 148.244 331.733 147.743 331.399 147.384C331.066 147.022 330.607 146.841 330.025 146.841C329.425 146.841 328.926 147.036 328.528 147.427C328.134 147.814 327.937 148.364 327.937 149.078ZM339.013 145.818V146.884H337.265V151.656C337.265 152.011 337.317 152.278 337.42 152.455C337.526 152.629 337.661 152.746 337.825 152.807C337.992 152.864 338.167 152.892 338.352 152.892C338.491 152.892 338.604 152.885 338.693 152.871C338.782 152.853 338.853 152.839 338.906 152.828L339.162 153.957C339.076 153.989 338.957 154.021 338.805 154.053C338.652 154.089 338.459 154.107 338.224 154.107C337.869 154.107 337.521 154.03 337.18 153.877C336.843 153.725 336.562 153.492 336.339 153.18C336.118 152.867 336.008 152.473 336.008 151.997V146.884H334.772V145.818H336.008V143.858H337.265V145.818H339.013ZM345.122 154V145.818H346.337V147.054H346.422C346.571 146.649 346.841 146.321 347.232 146.069C347.622 145.816 348.063 145.69 348.553 145.69C348.645 145.69 348.76 145.692 348.899 145.696C349.037 145.699 349.142 145.705 349.213 145.712V146.99C349.171 146.979 349.073 146.963 348.92 146.942C348.771 146.917 348.613 146.905 348.446 146.905C347.85 146.905 347.356 147.086 346.965 147.448C346.575 147.81 346.379 148.268 346.379 148.822V154H345.122ZM353.885 154.17C353.096 154.17 352.416 153.996 351.845 153.648C351.276 153.297 350.838 152.807 350.529 152.178C350.223 151.546 350.071 150.811 350.071 149.973C350.071 149.135 350.223 148.396 350.529 147.757C350.838 147.114 351.267 146.614 351.818 146.255C352.372 145.893 353.018 145.712 353.757 145.712C354.183 145.712 354.604 145.783 355.019 145.925C355.435 146.067 355.813 146.298 356.154 146.617C356.495 146.933 356.766 147.352 356.969 147.874C357.171 148.396 357.272 149.039 357.272 149.803V150.335H351.333C351.362 151.209 351.608 151.878 352.074 152.343C352.542 152.809 353.146 153.041 353.885 153.041C354.378 153.041 354.803 152.935 355.158 152.722C355.513 152.509 355.77 152.189 355.93 151.763L357.145 152.104C356.953 152.722 356.569 153.221 355.994 153.6C355.419 153.98 354.716 154.17 353.885 154.17ZM351.333 149.249H355.994C355.994 148.556 355.792 147.983 355.387 147.528C354.982 147.07 354.439 146.841 353.757 146.841C353.277 146.841 352.862 146.953 352.51 147.176C352.159 147.4 351.882 147.697 351.679 148.066C351.477 148.432 351.362 148.826 351.333 149.249ZM366.024 157.068V145.818H364.81V147.118H364.661C364.568 146.976 364.439 146.795 364.272 146.575C364.108 146.351 363.87 146.152 363.558 145.978C363.249 145.8 362.828 145.712 362.296 145.712C361.607 145.712 360.999 145.884 360.474 146.228C359.948 146.573 359.538 147.061 359.243 147.693C358.949 148.325 358.801 149.071 358.801 149.93C358.801 150.797 358.949 151.548 359.243 152.184C359.538 152.816 359.946 153.306 360.468 153.654C360.991 153.998 361.592 154.17 362.274 154.17C362.8 154.17 363.221 154.083 363.537 153.909C363.853 153.732 364.096 153.531 364.266 153.308C364.437 153.08 364.568 152.892 364.661 152.743H364.767V157.068H366.024ZM364.788 149.909C364.788 150.836 364.586 151.591 364.181 152.173C363.78 152.752 363.201 153.041 362.445 153.041C361.919 153.041 361.479 152.903 361.124 152.626C360.772 152.345 360.506 151.969 360.325 151.496C360.147 151.021 360.058 150.491 360.058 149.909C360.058 149.334 360.145 148.815 360.319 148.354C360.497 147.888 360.761 147.521 361.113 147.251C361.468 146.978 361.912 146.841 362.445 146.841C363.212 146.841 363.794 147.123 364.192 147.688C364.59 148.252 364.788 148.993 364.788 149.909ZM373.482 150.655V145.818H374.739V154H373.482V152.615H373.396C373.205 153.031 372.906 153.384 372.502 153.675C372.097 153.963 371.585 154.107 370.967 154.107C370.2 154.107 369.568 153.853 369.071 153.345C368.574 152.837 368.325 152.061 368.325 151.017V145.818H369.582V150.932C369.582 151.528 369.749 152.004 370.083 152.359C370.421 152.714 370.85 152.892 371.372 152.892C371.685 152.892 372.003 152.812 372.326 152.652C372.652 152.493 372.926 152.248 373.146 151.917C373.37 151.587 373.482 151.166 373.482 150.655ZM380.472 154.17C379.683 154.17 379.003 153.996 378.431 153.648C377.863 153.297 377.425 152.807 377.116 152.178C376.81 151.546 376.658 150.811 376.658 149.973C376.658 149.135 376.81 148.396 377.116 147.757C377.425 147.114 377.854 146.614 378.405 146.255C378.959 145.893 379.605 145.712 380.344 145.712C380.77 145.712 381.191 145.783 381.606 145.925C382.022 146.067 382.4 146.298 382.741 146.617C383.082 146.933 383.353 147.352 383.556 147.874C383.758 148.396 383.859 149.039 383.859 149.803V150.335H377.92C377.949 151.209 378.195 151.878 378.661 152.343C379.129 152.809 379.733 153.041 380.472 153.041C380.965 153.041 381.39 152.935 381.745 152.722C382.1 152.509 382.357 152.189 382.517 151.763L383.732 152.104C383.54 152.722 383.156 153.221 382.581 153.6C382.006 153.98 381.303 154.17 380.472 154.17ZM377.92 149.249H382.581C382.581 148.556 382.379 147.983 381.974 147.528C381.569 147.07 381.026 146.841 380.344 146.841C379.864 146.841 379.449 146.953 379.097 147.176C378.746 147.4 378.469 147.697 378.266 148.066C378.064 148.432 377.949 148.826 377.92 149.249ZM391.567 147.651L390.438 147.97C390.328 147.686 390.143 147.42 389.884 147.171C389.625 146.923 389.22 146.798 388.669 146.798C388.169 146.798 387.751 146.914 387.418 147.145C387.087 147.372 386.922 147.661 386.922 148.013C386.922 148.325 387.036 148.572 387.263 148.753C387.49 148.934 387.846 149.085 388.328 149.206L389.543 149.504C390.992 149.859 391.716 150.598 391.716 151.72C391.716 152.189 391.581 152.608 391.311 152.977C391.045 153.347 390.672 153.638 390.193 153.851C389.713 154.064 389.156 154.17 388.52 154.17C387.686 154.17 386.995 153.989 386.448 153.627C385.901 153.265 385.555 152.736 385.409 152.04L386.603 151.741C386.826 152.622 387.458 153.062 388.499 153.062C389.085 153.062 389.55 152.938 389.895 152.69C390.243 152.437 390.417 152.136 390.417 151.784C390.417 151.205 390.012 150.822 389.202 150.634L387.838 150.314C387.089 150.136 386.539 149.861 386.187 149.488C385.839 149.112 385.665 148.641 385.665 148.077C385.665 147.615 385.795 147.207 386.054 146.852C386.317 146.496 386.674 146.218 387.125 146.015C387.579 145.813 388.094 145.712 388.669 145.712C389.479 145.712 390.115 145.889 390.576 146.244C391.042 146.599 391.372 147.068 391.567 147.651ZM397.167 145.818V146.884H395.42V151.656C395.42 152.011 395.471 152.278 395.574 152.455C395.681 152.629 395.816 152.746 395.979 152.807C396.146 152.864 396.322 152.892 396.506 152.892C396.645 152.892 396.758 152.885 396.847 152.871C396.936 152.853 397.007 152.839 397.06 152.828L397.316 153.957C397.231 153.989 397.112 154.021 396.959 154.053C396.806 154.089 396.613 154.107 396.378 154.107C396.023 154.107 395.675 154.03 395.334 153.877C394.997 153.725 394.717 153.492 394.493 153.18C394.273 152.867 394.163 152.473 394.163 151.997V146.884H392.927V145.818H394.163V143.858H395.42V145.818H397.167ZM402.4 154.17C401.612 154.17 400.932 153.996 400.36 153.648C399.792 153.297 399.353 152.807 399.044 152.178C398.739 151.546 398.586 150.811 398.586 149.973C398.586 149.135 398.739 148.396 399.044 147.757C399.353 147.114 399.783 146.614 400.334 146.255C400.888 145.893 401.534 145.712 402.272 145.712C402.699 145.712 403.119 145.783 403.535 145.925C403.95 146.067 404.329 146.298 404.669 146.617C405.01 146.933 405.282 147.352 405.484 147.874C405.687 148.396 405.788 149.039 405.788 149.803V150.335H399.849C399.877 151.209 400.124 151.878 400.589 152.343C401.058 152.809 401.662 153.041 402.4 153.041C402.894 153.041 403.318 152.935 403.673 152.722C404.028 152.509 404.286 152.189 404.446 151.763L405.66 152.104C405.468 152.722 405.085 153.221 404.51 153.6C403.934 153.98 403.231 154.17 402.4 154.17ZM399.849 149.249H404.51C404.51 148.556 404.307 147.983 403.902 147.528C403.498 147.07 402.954 146.841 402.272 146.841C401.793 146.841 401.378 146.953 401.026 147.176C400.674 147.4 400.397 147.697 400.195 148.066C399.993 148.432 399.877 148.826 399.849 149.249ZM410.79 154.17C410.108 154.17 409.506 153.998 408.984 153.654C408.462 153.306 408.054 152.816 407.759 152.184C407.464 151.548 407.317 150.797 407.317 149.93C407.317 149.071 407.464 148.325 407.759 147.693C408.054 147.061 408.464 146.573 408.989 146.228C409.515 145.884 410.122 145.712 410.811 145.712C411.344 145.712 411.765 145.8 412.074 145.978C412.386 146.152 412.624 146.351 412.787 146.575C412.954 146.795 413.084 146.976 413.176 147.118H413.283V143.091H414.54V154H413.325V152.743H413.176C413.084 152.892 412.953 153.08 412.782 153.308C412.612 153.531 412.368 153.732 412.052 153.909C411.736 154.083 411.315 154.17 410.79 154.17ZM410.96 153.041C411.717 153.041 412.296 152.752 412.697 152.173C413.102 151.591 413.304 150.836 413.304 149.909C413.304 148.993 413.105 148.252 412.707 147.688C412.31 147.123 411.727 146.841 410.96 146.841C410.428 146.841 409.984 146.978 409.629 147.251C409.277 147.521 409.013 147.888 408.835 148.354C408.661 148.815 408.574 149.334 408.574 149.909C408.574 150.491 408.663 151.021 408.84 151.496C409.021 151.969 409.288 152.345 409.639 152.626C409.994 152.903 410.435 153.041 410.96 153.041ZM424.623 154.149C423.998 154.149 423.435 154.025 422.935 153.776C422.434 153.528 422.033 153.187 421.731 152.754C421.429 152.32 421.264 151.827 421.236 151.273H422.514C422.564 151.766 422.787 152.175 423.185 152.498C423.586 152.817 424.066 152.977 424.623 152.977C425.071 152.977 425.468 152.873 425.816 152.663C426.168 152.453 426.443 152.166 426.642 151.8C426.845 151.431 426.946 151.013 426.946 150.548C426.946 150.072 426.841 149.648 426.631 149.275C426.426 148.899 426.141 148.602 425.779 148.386C425.417 148.169 425.003 148.059 424.538 148.055C424.204 148.052 423.862 148.103 423.51 148.21C423.158 148.313 422.869 148.446 422.642 148.609L421.406 148.46L422.066 143.091H427.734V144.263H423.174L422.791 147.48H422.855C423.079 147.303 423.359 147.155 423.696 147.038C424.034 146.921 424.385 146.862 424.751 146.862C425.419 146.862 426.014 147.022 426.536 147.342C427.061 147.658 427.473 148.091 427.771 148.641C428.073 149.192 428.224 149.82 428.224 150.527C428.224 151.223 428.068 151.844 427.755 152.391C427.446 152.935 427.02 153.364 426.477 153.68C425.934 153.993 425.316 154.149 424.623 154.149ZM433.749 154.149C433.124 154.149 432.561 154.025 432.061 153.776C431.56 153.528 431.159 153.187 430.857 152.754C430.555 152.32 430.39 151.827 430.362 151.273H431.64C431.69 151.766 431.913 152.175 432.311 152.498C432.712 152.817 433.192 152.977 433.749 152.977C434.197 152.977 434.594 152.873 434.942 152.663C435.294 152.453 435.569 152.166 435.768 151.8C435.971 151.431 436.072 151.013 436.072 150.548C436.072 150.072 435.967 149.648 435.757 149.275C435.551 148.899 435.267 148.602 434.905 148.386C434.543 148.169 434.129 148.059 433.664 148.055C433.33 148.052 432.988 148.103 432.636 148.21C432.284 148.313 431.995 148.446 431.768 148.609L430.532 148.46L431.192 143.091H436.86V144.263H432.3L431.917 147.48H431.981C432.205 147.303 432.485 147.155 432.822 147.038C433.16 146.921 433.511 146.862 433.877 146.862C434.545 146.862 435.14 147.022 435.662 147.342C436.187 147.658 436.599 148.091 436.897 148.641C437.199 149.192 437.35 149.82 437.35 150.527C437.35 151.223 437.194 151.844 436.881 152.391C436.572 152.935 436.146 153.364 435.603 153.68C435.06 153.993 434.442 154.149 433.749 154.149ZM449.843 145.818C449.779 145.278 449.519 144.859 449.065 144.561C448.61 144.263 448.053 144.114 447.392 144.114C446.668 144.114 446.085 144.286 445.645 144.63C445.205 144.971 444.985 145.403 444.985 145.925C444.985 146.315 445.104 146.631 445.342 146.873C445.583 147.111 445.867 147.297 446.194 147.432C446.524 147.564 446.824 147.665 447.094 147.736L448.202 148.034C448.486 148.109 448.802 148.212 449.15 148.343C449.502 148.474 449.837 148.654 450.157 148.881C450.48 149.105 450.746 149.392 450.956 149.744C451.165 150.096 451.27 150.527 451.27 151.038C451.27 151.628 451.116 152.161 450.807 152.636C450.501 153.112 450.054 153.49 449.464 153.771C448.878 154.051 448.166 154.192 447.328 154.192C446.157 154.192 445.226 153.915 444.537 153.361C443.848 152.807 443.472 152.082 443.408 151.188H444.772C444.807 151.599 444.946 151.94 445.187 152.21C445.432 152.477 445.741 152.675 446.114 152.807C446.49 152.935 446.895 152.999 447.328 152.999C447.833 152.999 448.285 152.917 448.687 152.754C449.088 152.587 449.406 152.356 449.64 152.061C449.875 151.763 449.992 151.415 449.992 151.017C449.992 150.655 449.891 150.36 449.688 150.133C449.486 149.906 449.219 149.721 448.889 149.579C448.559 149.437 448.202 149.312 447.818 149.206L446.476 148.822C445.624 148.577 444.949 148.228 444.452 147.773C443.955 147.319 443.706 146.724 443.706 145.989C443.706 145.378 443.871 144.845 444.202 144.391C444.535 143.933 444.983 143.577 445.544 143.325C446.109 143.07 446.739 142.942 447.435 142.942C448.138 142.942 448.763 143.068 449.31 143.32C449.857 143.569 450.29 143.909 450.61 144.343C450.933 144.776 451.103 145.268 451.121 145.818H449.843ZM462.093 143.091V154H460.814L454.87 145.435H454.763V154H453.442V143.091H454.721L460.686 151.678H460.793V143.091H462.093ZM464.139 144.263V143.091H472.321V144.263H468.891V154H467.57V144.263H464.139Z" fill="black"/>
<path d="M18 84C27.9411 84 36 75.941 36 66C36 56.0589 27.9411 48 18 48C8.05887 48 0 56.0589 0 66C0 75.941 8.05887 84 18 84Z" fill="#4360DF"/>
<path fill-rule="evenodd" clip-rule="evenodd" d="M24.9938 61.7122C25.1186 64.048 23.3502 65.6109 20.4289 65.7798C19.3525 65.8426 18.476 65.7476 17.5992 65.6526C16.722 65.5576 15.8444 65.4625 14.7659 65.5253C14.231 65.5552 13.6999 65.6333 13.1789 65.7587C13.4967 61.7439 16.3193 58.2317 20.1573 58.0089C22.5121 57.8716 24.8658 59.3362 24.9938 61.7122ZM10.0059 70.5264C9.88639 68.3406 11.5814 66.878 14.3788 66.7196C15.4115 66.661 16.2514 66.75 17.0913 66.839C17.9312 66.9279 18.7711 67.0169 19.8038 66.9583C20.3161 66.9298 20.825 66.8567 21.3247 66.7397C21.0195 70.4969 18.3112 73.781 14.64 73.992C12.3838 74.117 10.1287 72.7503 10.0059 70.5264Z" fill="white"/>
<path fill-rule="evenodd" clip-rule="evenodd" d="M47.8145 9.1992C46.0215 9.1992 44.7852 8.25 44.6738 6.79102H45.7402C45.8691 7.67578 46.7129 8.2383 47.9141 8.2383C49.0508 8.2383 49.8887 7.62305 49.8887 6.78516C49.8887 6.06445 49.3613 5.60742 48.1953 5.31445L47.1113 5.0332C45.582 4.64648 44.9199 3.95508 44.9199 2.75391C44.9199 1.31836 46.1211 0.345703 47.9082 0.345703C49.543 0.345703 50.7617 1.31836 50.8496 2.68359H49.7891C49.6426 1.81641 48.9277 1.30078 47.873 1.30078C46.748 1.30078 46.0039 1.86328 46.0039 2.71875C46.0039 3.38086 46.4668 3.76172 47.6328 4.06055L48.5176 4.29492C50.2695 4.73438 50.9727 5.41406 50.9727 6.65625C50.9727 8.209 49.748 9.1992 47.8145 9.1992ZM55.1527 9.3867C54.6137 10.8516 54.1098 11.291 52.9906 11.291C52.8559 11.291 52.6801 11.2793 52.5395 11.2559V10.3945C52.6625 10.418 52.8207 10.4238 52.9613 10.4238C53.5414 10.4238 53.8578 10.1426 54.1215 9.3809L54.2387 9.0059L51.9008 2.68359H52.9906L54.725 7.88086H54.8187L56.5473 2.68359H57.6195L55.1527 9.3867ZM58.4949 4.41211C58.4949 5.32617 59.034 5.83594 60.2176 6.12305L61.3016 6.38672C61.9754 6.55078 62.3035 6.84375 62.3035 7.27734C62.3035 7.85742 61.6941 8.2617 60.8445 8.2617C60.0359 8.2617 59.532 7.92188 59.3621 7.38867H58.325C58.4363 8.4375 59.4031 9.1113 60.8094 9.1113C62.2449 9.1113 63.3406 8.332 63.3406 7.20117C63.3406 6.29297 62.7664 5.77734 61.577 5.49023L60.6043 5.25586C59.8602 5.07422 59.5086 4.80469 59.5086 4.37109C59.5086 3.80859 60.0945 3.42773 60.8445 3.42773C61.6062 3.42773 62.0984 3.76172 62.2332 4.26562H63.2293C63.0945 3.22852 62.1746 2.57227 60.8504 2.57227C59.5086 2.57227 58.4949 3.36328 58.4949 4.41211ZM65.1359 2.68359V1.10742H66.1437V2.68359H67.6086V3.52734H66.1437V7.10156C66.1437 7.8457 66.425 8.1621 67.0812 8.1621C67.2629 8.1621 67.3508 8.1562 67.5383 8.1387V8.9883C67.3391 9.0234 67.1574 9.0469 66.9582 9.0469C65.6574 9.0469 65.1359 8.5664 65.1359 7.35938V3.52734H64.0754V2.68359H65.1359ZM71.3492 3.46289C72.3512 3.46289 73.0191 4.20117 73.0426 5.32031H69.5621C69.6383 4.20117 70.3414 3.46289 71.3492 3.46289ZM71.3844 8.2207C72.1988 8.2207 72.7496 7.92188 73.0133 7.36523H74.0211C73.7164 8.4492 72.7437 9.1113 71.3609 9.1113C69.609 9.1113 68.5133 7.8457 68.5133 5.84766C68.5133 3.86133 69.6266 2.57227 71.3609 2.57227C73.066 2.57227 74.1031 3.78516 74.1031 5.74805V6.13477H69.5621V6.18164C69.6148 7.42969 70.3121 8.2207 71.3844 8.2207ZM75.5352 9H76.543V5.08594C76.543 4.19531 77.1816 3.48047 78.0078 3.48047C78.8047 3.48047 79.3262 3.96094 79.3262 4.71094V9H80.334V4.93945C80.334 4.13672 80.9199 3.48047 81.7988 3.48047C82.6895 3.48047 83.1289 3.9375 83.1289 4.86914V9H84.1367V4.63477C84.1367 3.31055 83.416 2.57227 82.127 2.57227C81.2539 2.57227 80.5332 3.01172 80.1934 3.67969H80.0996C79.8066 3.02344 79.209 2.57227 78.3535 2.57227C77.5098 2.57227 76.877 2.97656 76.5898 3.67969H76.4961V2.68359H75.5352V9ZM90.0711 9H89.0633V2.68359H90.0242V3.67969H90.118C90.4051 2.97656 91.0379 2.57227 91.8816 2.57227C92.7371 2.57227 93.3348 3.02344 93.6277 3.67969H93.7215C94.0613 3.01172 94.782 2.57227 95.6551 2.57227C96.9441 2.57227 97.6648 3.31055 97.6648 4.63477V9H96.657V4.86914C96.657 3.9375 96.2176 3.48047 95.327 3.48047C94.448 3.48047 93.8621 4.13672 93.8621 4.93945V9H92.8543V4.71094C92.8543 3.96094 92.3328 3.48047 91.5359 3.48047C90.7098 3.48047 90.0711 4.19531 90.0711 5.08594V9ZM101.874 3.46289C102.876 3.46289 103.544 4.20117 103.568 5.32031H100.087C100.163 4.20117 100.866 3.46289 101.874 3.46289ZM101.909 8.2207C102.724 8.2207 103.275 7.92188 103.538 7.36523H104.546C104.241 8.4492 103.269 9.1113 101.886 9.1113C100.134 9.1113 99.0383 7.8457 99.0383 5.84766C99.0383 3.86133 100.152 2.57227 101.886 2.57227C103.591 2.57227 104.628 3.78516 104.628 5.74805V6.13477H100.087V6.18164C100.14 7.42969 100.837 8.2207 101.909 8.2207ZM105.914 4.41211C105.914 5.32617 106.453 5.83594 107.636 6.12305L108.72 6.38672C109.394 6.55078 109.722 6.84375 109.722 7.27734C109.722 7.85742 109.113 8.2617 108.263 8.2617C107.455 8.2617 106.951 7.92188 106.781 7.38867H105.744C105.855 8.4375 106.822 9.1113 108.228 9.1113C109.664 9.1113 110.759 8.332 110.759 7.20117C110.759 6.29297 110.185 5.77734 108.996 5.49023L108.023 5.25586C107.279 5.07422 106.927 4.80469 106.927 4.37109C106.927 3.80859 107.513 3.42773 108.263 3.42773C109.025 3.42773 109.517 3.76172 109.652 4.26562H110.648C110.513 3.22852 109.593 2.57227 108.269 2.57227C106.927 2.57227 105.914 3.36328 105.914 4.41211ZM113.65 6.12305C112.467 5.83594 111.928 5.32617 111.928 4.41211C111.928 3.36328 112.941 2.57227 114.283 2.57227C115.607 2.57227 116.527 3.22852 116.662 4.26562H115.666C115.531 3.76172 115.039 3.42773 114.277 3.42773C113.527 3.42773 112.941 3.80859 112.941 4.37109C112.941 4.80469 113.293 5.07422 114.037 5.25586L115.01 5.49023C116.199 5.77734 116.773 6.29297 116.773 7.20117C116.773 8.332 115.678 9.1113 114.242 9.1113C112.836 9.1113 111.869 8.4375 111.758 7.38867H112.795C112.965 7.92188 113.469 8.2617 114.277 8.2617C115.127 8.2617 115.736 7.85742 115.736 7.27734C115.736 6.84375 115.408 6.55078 114.734 6.38672L113.65 6.12305ZM120.151 8.2266C119.418 8.2266 118.873 7.85156 118.873 7.20703C118.873 6.57422 119.295 6.24023 120.256 6.17578L121.955 6.06445V6.64453C121.955 7.54688 121.188 8.2266 120.151 8.2266ZM121.909 8.0684C121.498 8.7422 120.807 9.1113 119.963 9.1113C118.739 9.1113 117.83 8.3848 117.83 7.23047C117.83 6.09961 118.662 5.44922 120.133 5.36133L121.955 5.25V4.67578C121.955 3.89648 121.469 3.46875 120.526 3.46875C119.77 3.46875 119.243 3.75586 119.102 4.25391H118.082C118.217 3.24023 119.213 2.57227 120.561 2.57227C122.102 2.57227 122.963 3.36328 122.963 4.67578V9H122.002V8.0684H121.909ZM129.106 5.74805C129.106 7.125 128.403 8.0156 127.231 8.0156C126.059 8.0156 125.403 7.125 125.403 5.74805C125.403 4.37109 126.059 3.48047 127.231 3.48047C128.397 3.48047 129.106 4.37109 129.106 5.74805ZM130.091 9.1113C130.091 10.5234 129.001 11.4258 127.278 11.4258C125.755 11.4258 124.782 10.7402 124.63 9.6973H125.696C125.807 10.2129 126.37 10.5469 127.278 10.5469C128.409 10.5469 129.083 9.9902 129.083 9.0586V7.81641H128.989C128.591 8.5137 127.876 8.9062 127.009 8.9062C125.374 8.9062 124.36 7.64062 124.36 5.74805C124.36 3.85547 125.386 2.57227 127.009 2.57227C127.893 2.57227 128.673 3.00586 129.036 3.68555H129.13V2.68359H130.091V9.1113ZM134.359 3.46289C135.361 3.46289 136.029 4.20117 136.052 5.32031H132.571C132.648 4.20117 133.351 3.46289 134.359 3.46289ZM134.394 8.2207C135.208 8.2207 135.759 7.92188 136.023 7.36523H137.03C136.726 8.4492 135.753 9.1113 134.37 9.1113C132.618 9.1113 131.523 7.8457 131.523 5.84766C131.523 3.86133 132.636 2.57227 134.37 2.57227C136.075 2.57227 137.113 3.78516 137.113 5.74805V6.13477H132.571V6.18164C132.624 7.42969 133.321 8.2207 134.394 8.2207Z" fill="#939BA1"/>
<rect x="44" y="16" width="353" height="68" rx="8" fill="#DBE1E5"/>
<path d="M58.076 32.0909H60.4943L63.733 39.9957H63.8608L67.0994 32.0909H69.5178V43H67.6214V35.5053H67.5202L64.5053 42.968H63.0884L60.0735 35.4893H59.9723V43H58.076V32.0909ZM71.7896 43V34.8182H73.7179V43H71.7896ZM72.7591 33.657C72.4501 33.657 72.1855 33.5558 71.9654 33.3533C71.7488 33.1474 71.6404 32.9006 71.6404 32.6129C71.6404 32.3217 71.7488 32.0749 71.9654 31.8725C72.1855 31.6665 72.4501 31.5636 72.7591 31.5636C73.0645 31.5636 73.3255 31.6665 73.5421 31.8725C73.7623 32.0749 73.8723 32.3217 73.8723 32.6129C73.8723 32.9006 73.7623 33.1474 73.5421 33.3533C73.3255 33.5558 73.0645 33.657 72.7591 33.657ZM79.2696 43.1598C78.4564 43.1598 77.7568 42.9805 77.1709 42.6218C76.585 42.2631 76.134 41.766 75.8179 41.1303C75.5054 40.4947 75.3492 39.7649 75.3492 38.9411C75.3492 38.1065 75.509 37.3732 75.8286 36.7411C76.1482 36.1055 76.5992 35.6083 77.1816 35.2496C77.7675 34.891 78.46 34.7116 79.259 34.7116C79.9266 34.7116 80.5161 34.8342 81.0274 35.0792C81.5388 35.3207 81.9472 35.6616 82.2526 36.1019C82.558 36.5423 82.732 37.0589 82.7746 37.652H80.9316C80.857 37.2578 80.6794 36.9293 80.3989 36.6665C80.1219 36.4002 79.7508 36.267 79.2856 36.267C78.6926 36.267 78.2132 36.5014 77.8474 36.9702C77.4852 37.4354 77.3041 38.0817 77.3041 38.9091C77.3041 39.7436 77.4834 40.3988 77.8421 40.8746C78.2043 41.3505 78.6855 41.5884 79.2856 41.5884C79.7082 41.5884 80.0669 41.4677 80.3616 41.2262C80.6599 40.9847 80.8499 40.6438 80.9316 40.2035H82.7746C82.7284 40.7823 82.558 41.2937 82.2632 41.7376C81.9685 42.1815 81.5672 42.5295 81.0594 42.7816C80.5516 43.0337 79.955 43.1598 79.2696 43.1598ZM86.2862 38.206V43H84.358V32.0909H86.2436V36.2085H86.3395C86.5277 35.7433 86.8224 35.3775 87.2237 35.1112C87.6286 34.8448 88.1452 34.7116 88.7738 34.7116C89.6225 34.7116 90.3043 34.978 90.8192 35.5107C91.3342 36.0433 91.5916 36.8033 91.5916 37.7905V43H89.6634V38.0888C89.6634 37.5384 89.5213 37.1104 89.2372 36.805C88.9567 36.4961 88.5625 36.3416 88.0547 36.3416C87.5398 36.3416 87.1154 36.505 86.7816 36.8317C86.4513 37.1548 86.2862 37.6129 86.2862 38.206ZM95.9116 43.1651C95.1303 43.1651 94.4787 42.9556 93.9567 42.5366C93.4347 42.1175 93.1737 41.5067 93.1737 40.7042C93.1737 40.0898 93.321 39.614 93.6158 39.2766C93.9141 38.9357 94.2994 38.6889 94.7717 38.5362C95.2475 38.38 95.75 38.2734 96.2791 38.2166C97 38.1385 97.5167 38.0657 97.8292 37.9982C98.1452 37.9308 98.3033 37.7585 98.3033 37.4815V37.4496C98.3033 37.0483 98.1843 36.7376 97.9464 36.5174C97.7085 36.2972 97.3658 36.1871 96.9183 36.1871C96.446 36.1871 96.0714 36.2901 95.7944 36.4961C95.521 36.7021 95.3363 36.9453 95.2404 37.2259L93.44 36.9702C93.6531 36.2244 94.0685 35.6616 94.6864 35.2816C95.3079 34.9016 96.0483 34.7116 96.9077 34.7116C97.2983 34.7116 97.6889 34.7578 98.0795 34.8501C98.4702 34.9425 98.8271 35.0952 99.1502 35.3082C99.4769 35.5213 99.7379 35.8089 99.9332 36.1712C100.132 36.5334 100.232 36.9844 100.232 37.5241V43H98.3778V41.8761H98.3139C98.1399 42.2205 97.8558 42.5224 97.4616 42.7816C97.071 43.0373 96.5543 43.1651 95.9116 43.1651ZM96.4123 41.7482C96.9947 41.7482 97.4563 41.5813 97.7972 41.2475C98.1381 40.9137 98.3086 40.5195 98.3086 40.065V39.1009C98.2269 39.1683 98.076 39.2287 97.8558 39.282C97.6392 39.3317 97.4084 39.3743 97.1634 39.4098C96.9183 39.4453 96.7106 39.4755 96.5401 39.5004C96.1104 39.5607 95.7518 39.6797 95.4641 39.8572C95.1765 40.0312 95.0327 40.3029 95.0327 40.6722C95.0327 41.0273 95.1623 41.2955 95.4215 41.4766C95.6808 41.6577 96.011 41.7482 96.4123 41.7482ZM105.793 43.1598C104.972 43.1598 104.264 42.9876 103.667 42.6431C103.074 42.2987 102.618 41.8121 102.298 41.1836C101.979 40.555 101.819 39.8129 101.819 38.957C101.819 38.1154 101.979 37.3768 102.298 36.7411C102.618 36.1019 103.067 35.6048 103.646 35.2496C104.228 34.891 104.91 34.7116 105.691 34.7116C106.363 34.7116 106.982 34.8572 107.55 35.1484C108.119 35.4361 108.573 35.8853 108.914 36.4961C109.259 37.1033 109.431 37.8864 109.431 38.8452V39.4364H103.731C103.742 40.136 103.935 40.6811 104.312 41.0717C104.692 41.4624 105.194 41.6577 105.819 41.6577C106.235 41.6577 106.593 41.5689 106.895 41.3913C107.201 41.2102 107.419 40.9474 107.55 40.603L109.351 40.8054C109.18 41.5156 108.783 42.0856 108.158 42.5153C107.536 42.945 106.748 43.1598 105.793 43.1598ZM103.737 38.1367H107.582C107.579 37.5792 107.405 37.1193 107.06 36.7571C106.719 36.3949 106.272 36.2138 105.718 36.2138C105.143 36.2138 104.676 36.4038 104.317 36.7837C103.958 37.1637 103.765 37.6147 103.737 38.1367ZM112.99 32.0909V43H111.062V32.0909H112.99ZM132.703 36.7518V38.3391H117.703V36.7518H132.703ZM137.02 33.7475V32.0909H145.724V33.7475H142.352V43H140.392V33.7475H137.02ZM149.245 38.206V43H147.317V32.0909H149.203V36.2085H149.298C149.487 35.7433 149.781 35.3775 150.183 35.1112C150.588 34.8448 151.104 34.7116 151.733 34.7116C152.581 34.7116 153.263 34.978 153.778 35.5107C154.293 36.0433 154.551 36.8033 154.551 37.7905V43H152.622V38.0888C152.622 37.5384 152.48 37.1104 152.196 36.805C151.916 36.4961 151.521 36.3416 151.014 36.3416C150.499 36.3416 150.074 36.505 149.741 36.8317C149.41 37.1548 149.245 37.6129 149.245 38.206ZM160.138 43.1598C159.318 43.1598 158.61 42.9876 158.013 42.6431C157.42 42.2987 156.964 41.8121 156.644 41.1836C156.324 40.555 156.165 39.8129 156.165 38.957C156.165 38.1154 156.324 37.3768 156.644 36.7411C156.964 36.1019 157.413 35.6048 157.992 35.2496C158.574 34.891 159.256 34.7116 160.037 34.7116C160.708 34.7116 161.328 34.8572 161.896 35.1484C162.464 35.4361 162.919 35.8853 163.26 36.4961C163.604 37.1033 163.776 37.8864 163.776 38.8452V39.4364H158.077C158.088 40.136 158.281 40.6811 158.657 41.0717C159.037 41.4624 159.54 41.6577 160.165 41.6577C160.58 41.6577 160.939 41.5689 161.241 41.3913C161.546 41.2102 161.765 40.9474 161.896 40.603L163.697 40.8054C163.526 41.5156 163.128 42.0856 162.503 42.5153C161.882 42.945 161.094 43.1598 160.138 43.1598ZM158.082 38.1367H161.928C161.925 37.5792 161.751 37.1193 161.406 36.7571C161.065 36.3949 160.618 36.2138 160.064 36.2138C159.488 36.2138 159.021 36.4038 158.663 36.7837C158.304 37.1637 158.111 37.6147 158.082 38.1367ZM169.128 43V34.8182H170.998V36.1818H171.083C171.233 35.706 171.488 35.3402 171.85 35.0845C172.216 34.8288 172.633 34.701 173.102 34.701C173.209 34.701 173.328 34.7063 173.459 34.717C173.594 34.7241 173.706 34.7365 173.795 34.7543V36.5281C173.713 36.4996 173.583 36.4748 173.406 36.4535C173.232 36.4286 173.063 36.4162 172.9 36.4162C172.371 36.4162 171.93 36.5831 171.579 36.9169C171.231 37.2472 171.057 37.6715 171.057 38.19V43H169.128ZM178.361 43.1598C177.541 43.1598 176.832 42.9876 176.236 42.6431C175.643 42.2987 175.186 41.8121 174.867 41.1836C174.547 40.555 174.387 39.8129 174.387 38.957C174.387 38.1154 174.547 37.3768 174.867 36.7411C175.186 36.1019 175.635 35.6048 176.214 35.2496C176.797 34.891 177.479 34.7116 178.26 34.7116C178.931 34.7116 179.551 34.8572 180.119 35.1484C180.687 35.4361 181.142 35.8853 181.482 36.4961C181.827 37.1033 181.999 37.8864 181.999 38.8452V39.4364H176.3C176.31 40.136 176.504 40.6811 176.88 41.0717C177.26 41.4624 177.763 41.6577 178.388 41.6577C178.803 41.6577 179.162 41.5689 179.464 41.3913C179.769 41.2102 179.987 40.9474 180.119 40.603L181.919 40.8054C181.749 41.5156 181.351 42.0856 180.726 42.5153C180.105 42.945 179.316 43.1598 178.361 43.1598ZM176.305 38.1367H180.151C180.147 37.5792 179.973 37.1193 179.629 36.7571C179.288 36.3949 178.84 36.2138 178.286 36.2138C177.711 36.2138 177.244 36.4038 176.885 36.7837C176.527 37.1637 176.333 37.6147 176.305 38.1367ZM187.199 43.1598C186.386 43.1598 185.687 42.9805 185.101 42.6218C184.515 42.2631 184.064 41.766 183.748 41.1303C183.435 40.4947 183.279 39.7649 183.279 38.9411C183.279 38.1065 183.439 37.3732 183.758 36.7411C184.078 36.1055 184.529 35.6083 185.111 35.2496C185.697 34.891 186.39 34.7116 187.189 34.7116C187.856 34.7116 188.446 34.8342 188.957 35.0792C189.468 35.3207 189.877 35.6616 190.182 36.1019C190.488 36.5423 190.662 37.0589 190.704 37.652H188.861C188.787 37.2578 188.609 36.9293 188.329 36.6665C188.052 36.4002 187.68 36.267 187.215 36.267C186.622 36.267 186.143 36.5014 185.777 36.9702C185.415 37.4354 185.234 38.0817 185.234 38.9091C185.234 39.7436 185.413 40.3988 185.772 40.8746C186.134 41.3505 186.615 41.5884 187.215 41.5884C187.638 41.5884 187.997 41.4677 188.291 41.2262C188.59 40.9847 188.78 40.6438 188.861 40.2035H190.704C190.658 40.7823 190.488 41.2937 190.193 41.7376C189.898 42.1815 189.497 42.5295 188.989 42.7816C188.481 43.0337 187.885 43.1598 187.199 43.1598ZM192.288 43V34.8182H194.216V43H192.288ZM193.257 33.657C192.948 33.657 192.684 33.5558 192.463 33.3533C192.247 33.1474 192.138 32.9006 192.138 32.6129C192.138 32.3217 192.247 32.0749 192.463 31.8725C192.684 31.6665 192.948 31.5636 193.257 31.5636C193.563 31.5636 193.824 31.6665 194.04 31.8725C194.26 32.0749 194.37 32.3217 194.37 32.6129C194.37 32.9006 194.26 33.1474 194.04 33.3533C193.824 33.5558 193.563 33.657 193.257 33.657ZM196.199 46.0682V34.8182H198.095V36.1712H198.207C198.306 35.9723 198.445 35.761 198.622 35.5373C198.804 35.31 199.049 35.1165 199.358 34.9567C199.67 34.7933 200.066 34.7116 200.545 34.7116C201.177 34.7116 201.747 34.8732 202.255 35.1964C202.767 35.5195 203.171 35.9936 203.47 36.6186C203.772 37.2436 203.922 38.0107 203.922 38.9197C203.922 39.8182 203.775 40.5817 203.48 41.2102C203.186 41.8388 202.784 42.3182 202.277 42.6484C201.769 42.9787 201.193 43.1438 200.551 43.1438C200.082 43.1438 199.693 43.0657 199.384 42.9094C199.075 42.7532 198.827 42.565 198.638 42.3448C198.454 42.1211 198.31 41.9098 198.207 41.7109H198.127V46.0682H196.199ZM198.09 38.9091C198.09 39.701 198.257 40.342 198.59 40.832C198.924 41.3185 199.398 41.5618 200.013 41.5618C200.648 41.5618 201.131 41.3114 201.462 40.8107C201.792 40.31 201.957 39.6761 201.957 38.9091C201.957 38.1456 201.794 37.5188 201.467 37.0288C201.14 36.5387 200.655 36.2937 200.013 36.2937C199.391 36.2937 198.915 36.5316 198.585 37.0075C198.255 37.4798 198.09 38.1136 198.09 38.9091ZM205.574 43V34.8182H207.502V43H205.574ZM206.543 33.657C206.234 33.657 205.97 33.5558 205.75 33.3533C205.533 33.1474 205.425 32.9006 205.425 32.6129C205.425 32.3217 205.533 32.0749 205.75 31.8725C205.97 31.6665 206.234 31.5636 206.543 31.5636C206.849 31.5636 207.11 31.6665 207.326 31.8725C207.546 32.0749 207.657 32.3217 207.657 32.6129C207.657 32.9006 207.546 33.1474 207.326 33.3533C207.11 33.5558 206.849 33.657 206.543 33.657ZM213.107 43.1598C212.287 43.1598 211.578 42.9876 210.982 42.6431C210.389 42.2987 209.932 41.8121 209.613 41.1836C209.293 40.555 209.133 39.8129 209.133 38.957C209.133 38.1154 209.293 37.3768 209.613 36.7411C209.932 36.1019 210.382 35.6048 210.96 35.2496C211.543 34.891 212.225 34.7116 213.006 34.7116C213.677 34.7116 214.297 34.8572 214.865 35.1484C215.433 35.4361 215.888 35.8853 216.229 36.4961C216.573 37.1033 216.745 37.8864 216.745 38.8452V39.4364H211.046C211.056 40.136 211.25 40.6811 211.626 41.0717C212.006 41.4624 212.509 41.6577 213.134 41.6577C213.549 41.6577 213.908 41.5689 214.21 41.3913C214.515 41.2102 214.733 40.9474 214.865 40.603L216.665 40.8054C216.495 41.5156 216.097 42.0856 215.472 42.5153C214.851 42.945 214.062 43.1598 213.107 43.1598ZM211.051 38.1367H214.897C214.893 37.5792 214.719 37.1193 214.375 36.7571C214.034 36.3949 213.586 36.2138 213.032 36.2138C212.457 36.2138 211.99 36.4038 211.632 36.7837C211.273 37.1637 211.079 37.6147 211.051 38.1367ZM220.305 38.206V43H218.377V34.8182H220.22V36.2085H220.315C220.504 35.7539 220.804 35.3917 221.216 35.1218C221.631 34.8484 222.144 34.7116 222.755 34.7116C223.6 34.7116 224.278 34.9798 224.79 35.516C225.305 36.0522 225.56 36.8104 225.557 37.7905V43H223.629V38.0888C223.629 37.5419 223.487 37.114 223.203 36.805C222.922 36.4961 222.533 36.3416 222.036 36.3416C221.528 36.3416 221.113 36.505 220.79 36.8317C220.466 37.1548 220.305 37.6129 220.305 38.206ZM231.603 34.8182V36.3097H229.989V40.5391C229.989 40.9261 230.074 41.1818 230.244 41.3061C230.415 41.4268 230.621 41.4872 230.862 41.4872C230.983 41.4872 231.093 41.4783 231.193 41.4606C231.296 41.4428 231.374 41.4268 231.427 41.4126L231.752 42.9201C231.649 42.9556 231.502 42.9947 231.31 43.0373C231.122 43.0799 230.891 43.1048 230.617 43.1119C229.893 43.1332 229.284 42.9556 228.79 42.5792C228.3 42.2028 228.057 41.6293 228.06 40.8587V36.3097H226.899V34.8182H228.06V32.858H229.989V34.8182H231.603ZM237.594 43V34.8182H238.808V36.054H238.894C239.043 35.6491 239.313 35.3207 239.703 35.0685C240.094 34.8164 240.534 34.6903 241.024 34.6903C241.117 34.6903 241.232 34.6921 241.371 34.6957C241.509 34.6992 241.614 34.7045 241.685 34.7116V35.9901C241.642 35.9794 241.545 35.9634 241.392 35.9421C241.243 35.9173 241.085 35.9048 240.918 35.9048C240.321 35.9048 239.828 36.0859 239.437 36.4482C239.046 36.8104 238.851 37.2685 238.851 37.8224V43H237.594ZM246.356 43.1705C245.568 43.1705 244.888 42.9964 244.316 42.6484C243.748 42.2969 243.309 41.8068 243.001 41.1783C242.695 40.5462 242.542 39.8111 242.542 38.973C242.542 38.1349 242.695 37.3963 243.001 36.7571C243.309 36.1143 243.739 35.6136 244.29 35.255C244.844 34.8928 245.49 34.7116 246.229 34.7116C246.655 34.7116 247.075 34.7827 247.491 34.9247C247.906 35.0668 248.285 35.2976 248.626 35.6172C248.966 35.9332 249.238 36.3523 249.441 36.8743C249.643 37.3963 249.744 38.0391 249.744 38.8026V39.3352H243.805C243.833 40.2088 244.08 40.8782 244.545 41.3434C245.014 41.8086 245.618 42.0412 246.356 42.0412C246.85 42.0412 247.274 41.9347 247.629 41.7216C247.985 41.5085 248.242 41.1889 248.402 40.7628L249.616 41.1037C249.425 41.7216 249.041 42.2205 248.466 42.6005C247.89 42.9805 247.187 43.1705 246.356 43.1705ZM243.805 38.2486H248.466C248.466 37.5561 248.263 36.9826 247.858 36.5281C247.454 36.07 246.91 35.8409 246.229 35.8409C245.749 35.8409 245.334 35.9528 244.982 36.1765C244.631 36.4002 244.354 36.6967 244.151 37.0661C243.949 37.4318 243.833 37.826 243.805 38.2486ZM258.496 46.0682V34.8182H257.281V36.1179H257.132C257.04 35.9759 256.91 35.7947 256.743 35.5746C256.58 35.3509 256.342 35.152 256.03 34.978C255.721 34.8004 255.3 34.7116 254.767 34.7116C254.078 34.7116 253.471 34.8839 252.945 35.2283C252.42 35.5728 252.01 36.0611 251.715 36.6932C251.42 37.3253 251.273 38.071 251.273 38.9304C251.273 39.7969 251.42 40.5479 251.715 41.1836C252.01 41.8157 252.418 42.3058 252.94 42.6538C253.462 42.9982 254.064 43.1705 254.746 43.1705C255.271 43.1705 255.692 43.0835 256.008 42.9094C256.324 42.7319 256.568 42.5312 256.738 42.3075C256.909 42.0803 257.04 41.892 257.132 41.7429H257.239V46.0682H258.496ZM257.26 38.9091C257.26 39.8359 257.058 40.5906 256.653 41.1729C256.252 41.7518 255.673 42.0412 254.916 42.0412C254.391 42.0412 253.95 41.9027 253.595 41.6257C253.244 41.3452 252.977 40.9687 252.796 40.4964C252.619 40.0206 252.53 39.4915 252.53 38.9091C252.53 38.3338 252.617 37.8153 252.791 37.3537C252.969 36.8885 253.233 36.521 253.585 36.2511C253.94 35.9776 254.384 35.8409 254.916 35.8409C255.683 35.8409 256.266 36.1232 256.664 36.6879C257.061 37.2525 257.26 37.9929 257.26 38.9091ZM265.953 39.6548V34.8182H267.21V43H265.953V41.6151H265.868C265.676 42.0305 265.378 42.3839 264.973 42.6751C264.568 42.9627 264.057 43.1065 263.439 43.1065C262.672 43.1065 262.04 42.8526 261.543 42.3448C261.046 41.837 260.797 41.0611 260.797 40.017V34.8182H262.054V39.9318C262.054 40.5284 262.221 41.0043 262.555 41.3594C262.892 41.7145 263.322 41.892 263.844 41.892C264.156 41.892 264.474 41.8121 264.797 41.6523C265.124 41.4925 265.398 41.2475 265.618 40.9173C265.841 40.587 265.953 40.1662 265.953 39.6548ZM269.513 43V34.8182H270.77V43H269.513ZM270.152 33.4545C269.907 33.4545 269.696 33.3711 269.518 33.2042C269.344 33.0373 269.257 32.8366 269.257 32.6023C269.257 32.3679 269.344 32.1673 269.518 32.0004C269.696 31.8335 269.907 31.75 270.152 31.75C270.397 31.75 270.607 31.8335 270.781 32.0004C270.958 32.1673 271.047 32.3679 271.047 32.6023C271.047 32.8366 270.958 33.0373 270.781 33.2042C270.607 33.3711 270.397 33.4545 270.152 33.4545ZM273.072 43V34.8182H274.287V36.054H274.372C274.521 35.6491 274.791 35.3207 275.182 35.0685C275.572 34.8164 276.013 34.6903 276.503 34.6903C276.595 34.6903 276.711 34.6921 276.849 34.6957C276.988 34.6992 277.092 34.7045 277.163 34.7116V35.9901C277.121 35.9794 277.023 35.9634 276.87 35.9421C276.721 35.9173 276.563 35.9048 276.396 35.9048C275.8 35.9048 275.306 36.0859 274.915 36.4482C274.525 36.8104 274.33 37.2685 274.33 37.8224V43H273.072ZM281.835 43.1705C281.047 43.1705 280.366 42.9964 279.795 42.6484C279.227 42.2969 278.788 41.8068 278.479 41.1783C278.174 40.5462 278.021 39.8111 278.021 38.973C278.021 38.1349 278.174 37.3963 278.479 36.7571C278.788 36.1143 279.218 35.6136 279.768 35.255C280.322 34.8928 280.968 34.7116 281.707 34.7116C282.133 34.7116 282.554 34.7827 282.969 34.9247C283.385 35.0668 283.763 35.2976 284.104 35.6172C284.445 35.9332 284.717 36.3523 284.919 36.8743C285.121 37.3963 285.223 38.0391 285.223 38.8026V39.3352H279.283C279.312 40.2088 279.559 40.8782 280.024 41.3434C280.493 41.8086 281.096 42.0412 281.835 42.0412C282.328 42.0412 282.753 41.9347 283.108 41.7216C283.463 41.5085 283.721 41.1889 283.88 40.7628L285.095 41.1037C284.903 41.7216 284.52 42.2205 283.944 42.6005C283.369 42.9805 282.666 43.1705 281.835 43.1705ZM279.283 38.2486H283.944C283.944 37.5561 283.742 36.9826 283.337 36.5281C282.932 36.07 282.389 35.8409 281.707 35.8409C281.228 35.8409 280.812 35.9528 280.461 36.1765C280.109 36.4002 279.832 36.6967 279.63 37.0661C279.427 37.4318 279.312 37.826 279.283 38.2486ZM292.93 36.6506L291.801 36.9702C291.691 36.6861 291.506 36.4197 291.247 36.1712C290.988 35.9226 290.583 35.7983 290.033 35.7983C289.532 35.7983 289.115 35.9137 288.781 36.1445C288.451 36.3718 288.286 36.6612 288.286 37.0128C288.286 37.3253 288.399 37.5721 288.626 37.7532C288.854 37.9343 289.209 38.0852 289.692 38.206L290.906 38.5043C292.355 38.8594 293.08 39.598 293.08 40.7202C293.08 41.1889 292.945 41.608 292.675 41.9773C292.408 42.3466 292.036 42.6378 291.556 42.8509C291.077 43.0639 290.519 43.1705 289.884 43.1705C289.049 43.1705 288.358 42.9893 287.811 42.6271C287.265 42.2649 286.918 41.7358 286.773 41.0398L287.966 40.7415C288.19 41.6222 288.822 42.0625 289.862 42.0625C290.448 42.0625 290.913 41.9382 291.258 41.6896C291.606 41.4375 291.78 41.1357 291.78 40.7841C291.78 40.2053 291.375 39.8217 290.565 39.6335L289.202 39.3139C288.452 39.1364 287.902 38.8612 287.55 38.4883C287.202 38.1119 287.028 37.6413 287.028 37.0767C287.028 36.6151 287.158 36.2067 287.417 35.8516C287.68 35.4964 288.037 35.2177 288.488 35.0153C288.942 34.8129 289.457 34.7116 290.033 34.7116C290.842 34.7116 291.478 34.8892 291.94 35.2443C292.405 35.5994 292.735 36.0682 292.93 36.6506ZM301.598 43.1918C301.08 43.1918 300.609 43.0941 300.187 42.8988C299.764 42.6999 299.429 42.4141 299.18 42.0412C298.931 41.6648 298.807 41.2102 298.807 40.6776C298.807 40.2088 298.899 39.8288 299.084 39.5376C299.269 39.2429 299.516 39.0121 299.824 38.8452C300.133 38.6783 300.474 38.554 300.847 38.4723C301.224 38.3871 301.602 38.3196 301.982 38.2699C302.479 38.206 302.882 38.158 303.191 38.1261C303.503 38.0906 303.731 38.032 303.873 37.9503C304.018 37.8686 304.091 37.7266 304.091 37.5241V37.4815C304.091 36.956 303.947 36.5476 303.66 36.2564C303.376 35.9652 302.944 35.8196 302.365 35.8196C301.765 35.8196 301.295 35.951 300.954 36.2138C300.613 36.4766 300.373 36.7571 300.235 37.0554L299.041 36.6293C299.255 36.1321 299.539 35.745 299.894 35.468C300.252 35.1875 300.643 34.9922 301.066 34.8821C301.492 34.7685 301.911 34.7116 302.323 34.7116C302.585 34.7116 302.887 34.7436 303.228 34.8075C303.573 34.8679 303.905 34.994 304.224 35.1857C304.547 35.3775 304.816 35.6669 305.029 36.054C305.242 36.4411 305.348 36.9595 305.348 37.6094V43H304.091V41.892H304.027C303.942 42.0696 303.8 42.2596 303.601 42.462C303.402 42.6644 303.138 42.8366 302.807 42.9787C302.477 43.1207 302.074 43.1918 301.598 43.1918ZM301.79 42.0625C302.287 42.0625 302.706 41.9648 303.047 41.7695C303.392 41.5742 303.651 41.3221 303.825 41.0131C304.002 40.7042 304.091 40.3793 304.091 40.0384V38.8878C304.038 38.9517 303.921 39.0103 303.74 39.0636C303.562 39.1133 303.356 39.1577 303.122 39.1967C302.891 39.2322 302.665 39.2642 302.445 39.2926C302.229 39.3175 302.053 39.3388 301.918 39.3565C301.591 39.3991 301.286 39.4684 301.002 39.5643C300.721 39.6566 300.494 39.7969 300.32 39.9851C300.149 40.1697 300.064 40.4219 300.064 40.7415C300.064 41.1783 300.226 41.5085 300.549 41.7322C300.876 41.9524 301.289 42.0625 301.79 42.0625ZM311.862 43V34.8182H313.076V36.0966H313.183C313.353 35.6598 313.628 35.3207 314.008 35.0792C314.388 34.8342 314.844 34.7116 315.377 34.7116C315.917 34.7116 316.366 34.8342 316.725 35.0792C317.087 35.3207 317.369 35.6598 317.572 36.0966H317.657C317.866 35.674 318.181 35.3384 318.6 35.0898C319.019 34.8377 319.521 34.7116 320.107 34.7116C320.839 34.7116 321.437 34.9407 321.902 35.3988C322.368 35.8533 322.6 36.5618 322.6 37.5241V43H321.343V37.5241C321.343 36.9205 321.178 36.489 320.848 36.2298C320.517 35.9705 320.129 35.8409 319.681 35.8409C319.106 35.8409 318.66 36.0149 318.344 36.3629C318.028 36.7074 317.87 37.1442 317.87 37.6733V43H316.592V37.3963C316.592 36.9311 316.441 36.5565 316.139 36.2724C315.837 35.9847 315.448 35.8409 314.972 35.8409C314.646 35.8409 314.34 35.9279 314.056 36.1019C313.776 36.2759 313.548 36.5174 313.374 36.8263C313.204 37.1317 313.119 37.4851 313.119 37.8864V43H311.862ZM324.899 43V34.8182H326.156V43H324.899ZM325.538 33.4545C325.293 33.4545 325.081 33.3711 324.904 33.2042C324.73 33.0373 324.643 32.8366 324.643 32.6023C324.643 32.3679 324.73 32.1673 324.904 32.0004C325.081 31.8335 325.293 31.75 325.538 31.75C325.783 31.75 325.992 31.8335 326.166 32.0004C326.344 32.1673 326.433 32.3679 326.433 32.6023C326.433 32.8366 326.344 33.0373 326.166 33.2042C325.992 33.3711 325.783 33.4545 325.538 33.4545ZM329.715 38.0781V43H328.458V34.8182H329.673V36.0966H329.779C329.971 35.6811 330.262 35.3473 330.653 35.0952C331.043 34.8395 331.548 34.7116 332.166 34.7116C332.993 34.7116 333.661 34.9656 334.168 35.4734C334.68 35.9812 334.935 36.7571 334.935 37.8011V43H333.678V37.8864C333.678 37.2436 333.511 36.7429 333.178 36.3842C332.844 36.022 332.386 35.8409 331.803 35.8409C331.203 35.8409 330.704 36.0362 330.307 36.4268C329.912 36.8139 329.715 37.3643 329.715 38.0781ZM337.233 43V34.8182H338.49V43H337.233ZM337.872 33.4545C337.627 33.4545 337.415 33.3711 337.238 33.2042C337.064 33.0373 336.977 32.8366 336.977 32.6023C336.977 32.3679 337.064 32.1673 337.238 32.0004C337.415 31.8335 337.627 31.75 337.872 31.75C338.117 31.75 338.326 31.8335 338.5 32.0004C338.678 32.1673 338.767 32.3679 338.767 32.6023C338.767 32.8366 338.678 33.0373 338.5 33.2042C338.326 33.3711 338.117 33.4545 337.872 33.4545ZM340.792 43V34.8182H342.007V36.0966H342.113C342.284 35.6598 342.559 35.3207 342.939 35.0792C343.319 34.8342 343.775 34.7116 344.308 34.7116C344.848 34.7116 345.297 34.8342 345.655 35.0792C346.018 35.3207 346.3 35.6598 346.502 36.0966H346.588C346.797 35.674 347.111 35.3384 347.53 35.0898C347.949 34.8377 348.452 34.7116 349.038 34.7116C349.769 34.7116 350.368 34.9407 350.833 35.3988C351.298 35.8533 351.531 36.5618 351.531 37.5241V43H350.274V37.5241C350.274 36.9205 350.109 36.489 349.778 36.2298C349.448 35.9705 349.059 35.8409 348.612 35.8409C348.036 35.8409 347.591 36.0149 347.275 36.3629C346.959 36.7074 346.801 37.1442 346.801 37.6733V43H345.522V37.3963C345.522 36.9311 345.371 36.5565 345.07 36.2724C344.768 35.9847 344.379 35.8409 343.903 35.8409C343.576 35.8409 343.271 35.9279 342.987 36.1019C342.706 36.2759 342.479 36.5174 342.305 36.8263C342.134 37.1317 342.049 37.4851 342.049 37.8864V43H340.792ZM358.986 39.6548V34.8182H360.243V43H358.986V41.6151H358.9C358.709 42.0305 358.41 42.3839 358.005 42.6751C357.601 42.9627 357.089 43.1065 356.471 43.1065C355.704 43.1065 355.072 42.8526 354.575 42.3448C354.078 41.837 353.829 41.0611 353.829 40.017V34.8182H355.086V39.9318C355.086 40.5284 355.253 41.0043 355.587 41.3594C355.924 41.7145 356.354 41.892 356.876 41.892C357.189 41.892 357.506 41.8121 357.83 41.6523C358.156 41.4925 358.43 41.2475 358.65 40.9173C358.874 40.587 358.986 40.1662 358.986 39.6548ZM362.545 43V34.8182H363.76V36.0966H363.866C364.037 35.6598 364.312 35.3207 364.692 35.0792C365.072 34.8342 365.528 34.7116 366.061 34.7116C366.6 34.7116 367.05 34.8342 367.408 35.0792C367.771 35.3207 368.053 35.6598 368.255 36.0966H368.341C368.55 35.674 368.864 35.3384 369.283 35.0898C369.702 34.8377 370.205 34.7116 370.791 34.7116C371.522 34.7116 372.121 34.9407 372.586 35.3988C373.051 35.8533 373.284 36.5618 373.284 37.5241V43H372.027V37.5241C372.027 36.9205 371.862 36.489 371.531 36.2298C371.201 35.9705 370.812 35.8409 370.365 35.8409C369.789 35.8409 369.344 36.0149 369.028 36.3629C368.712 36.7074 368.554 37.1442 368.554 37.6733V43H367.275V37.3963C367.275 36.9311 367.124 36.5565 366.822 36.2724C366.521 35.9847 366.132 35.8409 365.656 35.8409C365.329 35.8409 365.024 35.9279 364.74 36.1019C364.459 36.2759 364.232 36.5174 364.058 36.8263C363.887 37.1317 363.802 37.4851 363.802 37.8864V43H362.545ZM61.2401 66.1705C60.5582 66.1705 59.9563 65.9982 59.4343 65.6538C58.9123 65.3058 58.5039 64.8157 58.2092 64.1836C57.9144 63.5479 57.767 62.7969 57.767 61.9304C57.767 61.071 57.9144 60.3253 58.2092 59.6932C58.5039 59.0611 58.9141 58.5728 59.4396 58.2283C59.9652 57.8839 60.5724 57.7116 61.2614 57.7116C61.794 57.7116 62.2148 57.8004 62.5238 57.978C62.8363 58.152 63.0742 58.3509 63.2376 58.5746C63.4045 58.7947 63.5341 58.9759 63.6264 59.1179H63.733V55.0909H64.9901V66H63.7756V64.7429H63.6264C63.5341 64.892 63.4027 65.0803 63.2322 65.3075C63.0618 65.5312 62.8185 65.7319 62.5025 65.9094C62.1864 66.0835 61.7656 66.1705 61.2401 66.1705ZM61.4105 65.0412C62.1669 65.0412 62.7457 64.7518 63.147 64.1729C63.5518 63.5906 63.7543 62.8359 63.7543 61.9091C63.7543 60.9929 63.5554 60.2525 63.1577 59.6879C62.7599 59.1232 62.1776 58.8409 61.4105 58.8409C60.8778 58.8409 60.4339 58.9776 60.0788 59.2511C59.7273 59.521 59.4627 59.8885 59.2852 60.3537C59.1112 60.8153 59.0241 61.3338 59.0241 61.9091C59.0241 62.4915 59.1129 63.0206 59.2905 63.4964C59.4716 63.9687 59.7379 64.3452 60.0895 64.6257C60.4446 64.9027 60.8849 65.0412 61.4105 65.0412ZM70.8974 66.1705C70.109 66.1705 69.429 65.9964 68.8572 65.6484C68.2891 65.2969 67.8505 64.8068 67.5415 64.1783C67.2362 63.5462 67.0835 62.8111 67.0835 61.973C67.0835 61.1349 67.2362 60.3963 67.5415 59.7571C67.8505 59.1143 68.2802 58.6136 68.8306 58.255C69.3846 57.8928 70.0309 57.7116 70.7695 57.7116C71.1957 57.7116 71.6165 57.7827 72.032 57.9247C72.4474 58.0668 72.8256 58.2976 73.1665 58.6172C73.5075 58.9332 73.7791 59.3523 73.9815 59.8743C74.1839 60.3963 74.2852 61.0391 74.2852 61.8026V62.3352H68.3459C68.3743 63.2088 68.6211 63.8782 69.0863 64.3434C69.555 64.8086 70.1587 65.0412 70.8974 65.0412C71.391 65.0412 71.8153 64.9347 72.1705 64.7216C72.5256 64.5085 72.783 64.1889 72.9428 63.7628L74.1573 64.1037C73.9656 64.7216 73.582 65.2205 73.0067 65.6005C72.4315 65.9805 71.7283 66.1705 70.8974 66.1705ZM68.3459 61.2486H73.0067C73.0067 60.5561 72.8043 59.9826 72.3995 59.5281C71.9947 59.07 71.4513 58.8409 70.7695 58.8409C70.2901 58.8409 69.8746 58.9528 69.5231 59.1765C69.1715 59.4002 68.8945 59.6967 68.6921 60.0661C68.4897 60.4318 68.3743 60.826 68.3459 61.2486ZM76.1974 69.0682V57.8182H77.4119V59.1179H77.5611C77.6534 58.9759 77.7813 58.7947 77.9446 58.5746C78.1115 58.3509 78.3494 58.152 78.6584 57.978C78.9709 57.8004 79.3935 57.7116 79.9261 57.7116C80.6151 57.7116 81.2223 57.8839 81.7479 58.2283C82.2734 58.5728 82.6836 59.0611 82.9783 59.6932C83.2731 60.3253 83.4205 61.071 83.4205 61.9304C83.4205 62.7969 83.2731 63.5479 82.9783 64.1836C82.6836 64.8157 82.2752 65.3058 81.7532 65.6538C81.2312 65.9982 80.6293 66.1705 79.9474 66.1705C79.4219 66.1705 79.0011 66.0835 78.685 65.9094C78.369 65.7319 78.1257 65.5312 77.9553 65.3075C77.7848 65.0803 77.6534 64.892 77.5611 64.7429H77.4545V69.0682H76.1974ZM77.4332 61.9091C77.4332 62.8359 77.6339 63.5906 78.0352 64.1729C78.44 64.7518 79.0206 65.0412 79.777 65.0412C80.3026 65.0412 80.7411 64.9027 81.0927 64.6257C81.4478 64.3452 81.7141 63.9687 81.8917 63.4964C82.0728 63.0206 82.1634 62.4915 82.1634 61.9091C82.1634 61.3338 82.0746 60.8153 81.897 60.3537C81.723 59.8885 81.4585 59.521 81.1033 59.2511C80.7518 58.9776 80.3097 58.8409 79.777 58.8409C79.0099 58.8409 78.4276 59.1232 78.0298 59.6879C77.6321 60.2525 77.4332 60.9929 77.4332 61.9091ZM88.6619 66.1705C87.9233 66.1705 87.2752 65.9947 86.7177 65.6431C86.1637 65.2915 85.7305 64.7997 85.418 64.1676C85.109 63.5355 84.9545 62.7969 84.9545 61.9517C84.9545 61.0994 85.109 60.3555 85.418 59.7198C85.7305 59.0842 86.1637 58.5906 86.7177 58.239C87.2752 57.8874 87.9233 57.7116 88.6619 57.7116C89.4006 57.7116 90.0469 57.8874 90.6009 58.239C91.1584 58.5906 91.5916 59.0842 91.9006 59.7198C92.2131 60.3555 92.3693 61.0994 92.3693 61.9517C92.3693 62.7969 92.2131 63.5355 91.9006 64.1676C91.5916 64.7997 91.1584 65.2915 90.6009 65.6431C90.0469 65.9947 89.4006 66.1705 88.6619 66.1705ZM88.6619 65.0412C89.223 65.0412 89.6847 64.8974 90.0469 64.6097C90.4091 64.3221 90.6772 63.9439 90.8512 63.4751C91.0252 63.0064 91.1122 62.4986 91.1122 61.9517C91.1122 61.4048 91.0252 60.8952 90.8512 60.4229C90.6772 59.9506 90.4091 59.5689 90.0469 59.2777C89.6847 58.9865 89.223 58.8409 88.6619 58.8409C88.1009 58.8409 87.6392 58.9865 87.277 59.2777C86.9148 59.5689 86.6467 59.9506 86.4727 60.4229C86.2987 60.8952 86.2116 61.4048 86.2116 61.9517C86.2116 62.4986 86.2987 63.0064 86.4727 63.4751C86.6467 63.9439 86.9148 64.3221 87.277 64.6097C87.6392 64.8974 88.1009 65.0412 88.6619 65.0412ZM100.084 59.6506L98.9545 59.9702C98.8444 59.6861 98.6597 59.4197 98.4005 59.1712C98.1412 58.9226 97.7364 58.7983 97.186 58.7983C96.6853 58.7983 96.268 58.9137 95.9342 59.1445C95.604 59.3718 95.4388 59.6612 95.4388 60.0128C95.4388 60.3253 95.5525 60.5721 95.7797 60.7532C96.007 60.9343 96.3621 61.0852 96.8451 61.206L98.0596 61.5043C99.5084 61.8594 100.233 62.598 100.233 63.7202C100.233 64.1889 100.098 64.608 99.828 64.9773C99.5617 65.3466 99.1888 65.6378 98.7094 65.8509C98.23 66.0639 97.6725 66.1705 97.0368 66.1705C96.2023 66.1705 95.5116 65.9893 94.9648 65.6271C94.4179 65.2649 94.0716 64.7358 93.926 64.0398L95.1192 63.7415C95.343 64.6222 95.9751 65.0625 97.0155 65.0625C97.6015 65.0625 98.0667 64.9382 98.4111 64.6896C98.7591 64.4375 98.9332 64.1357 98.9332 63.7841C98.9332 63.2053 98.5283 62.8217 97.7187 62.6335L96.355 62.3139C95.6057 62.1364 95.0553 61.8612 94.7037 61.4883C94.3557 61.1119 94.1817 60.6413 94.1817 60.0767C94.1817 59.6151 94.3113 59.2067 94.5706 58.8516C94.8334 58.4964 95.1903 58.2177 95.6412 58.0153C96.0958 57.8129 96.6107 57.7116 97.186 57.7116C97.9956 57.7116 98.6313 57.8892 99.093 58.2443C99.5581 58.5994 99.8884 59.0682 100.084 59.6506ZM102.125 66V57.8182H103.382V66H102.125ZM102.764 56.4545C102.519 56.4545 102.308 56.3711 102.131 56.2042C101.956 56.0373 101.869 55.8366 101.869 55.6023C101.869 55.3679 101.956 55.1673 102.131 55.0004C102.308 54.8335 102.519 54.75 102.764 54.75C103.009 54.75 103.219 54.8335 103.393 55.0004C103.57 55.1673 103.659 55.3679 103.659 55.6023C103.659 55.8366 103.57 56.0373 103.393 56.2042C103.219 56.3711 103.009 56.4545 102.764 56.4545ZM109.243 57.8182V58.8835H107.496V63.6562C107.496 64.0114 107.547 64.2777 107.65 64.4553C107.757 64.6293 107.892 64.7464 108.055 64.8068C108.222 64.8636 108.398 64.892 108.582 64.892C108.721 64.892 108.835 64.8849 108.923 64.8707C109.012 64.853 109.083 64.8388 109.136 64.8281L109.392 65.9574C109.307 65.9893 109.188 66.0213 109.035 66.0533C108.883 66.0888 108.689 66.1065 108.455 66.1065C108.1 66.1065 107.752 66.0302 107.411 65.8775C107.073 65.7248 106.793 65.4922 106.569 65.1797C106.349 64.8672 106.239 64.473 106.239 63.9972V58.8835H105.003V57.8182H106.239V55.858H107.496V57.8182H109.243ZM118.677 66.1705C117.938 66.1705 117.29 65.9947 116.732 65.6431C116.178 65.2915 115.745 64.7997 115.433 64.1676C115.124 63.5355 114.969 62.7969 114.969 61.9517C114.969 61.0994 115.124 60.3555 115.433 59.7198C115.745 59.0842 116.178 58.5906 116.732 58.239C117.29 57.8874 117.938 57.7116 118.677 57.7116C119.415 57.7116 120.062 57.8874 120.616 58.239C121.173 58.5906 121.606 59.0842 121.915 59.7198C122.228 60.3555 122.384 61.0994 122.384 61.9517C122.384 62.7969 122.228 63.5355 121.915 64.1676C121.606 64.7997 121.173 65.2915 120.616 65.6431C120.062 65.9947 119.415 66.1705 118.677 66.1705ZM118.677 65.0412C119.238 65.0412 119.699 64.8974 120.062 64.6097C120.424 64.3221 120.692 63.9439 120.866 63.4751C121.04 63.0064 121.127 62.4986 121.127 61.9517C121.127 61.4048 121.04 60.8952 120.866 60.4229C120.692 59.9506 120.424 59.5689 120.062 59.2777C119.699 58.9865 119.238 58.8409 118.677 58.8409C118.116 58.8409 117.654 58.9865 117.292 59.2777C116.929 59.5689 116.661 59.9506 116.487 60.4229C116.313 60.8952 116.226 61.4048 116.226 61.9517C116.226 62.4986 116.313 63.0064 116.487 63.4751C116.661 63.9439 116.929 64.3221 117.292 64.6097C117.654 64.8974 118.116 65.0412 118.677 65.0412ZM127.946 57.8182V58.8835H126.114V66H124.857V58.8835H123.536V57.8182H124.857V56.6889C124.857 56.2202 124.967 55.8295 125.187 55.517C125.407 55.2045 125.693 54.9702 126.045 54.8139C126.396 54.6577 126.767 54.5795 127.158 54.5795C127.467 54.5795 127.719 54.6044 127.914 54.6541C128.11 54.7038 128.255 54.75 128.351 54.7926L127.989 55.8793C127.925 55.858 127.836 55.8313 127.723 55.7994C127.613 55.7674 127.467 55.7514 127.286 55.7514C126.87 55.7514 126.57 55.8562 126.386 56.0657C126.205 56.2752 126.114 56.5824 126.114 56.9872V57.8182H127.946ZM137.315 66.1491C136.69 66.1491 136.127 66.0249 135.626 65.7763C135.125 65.5277 134.724 65.1868 134.422 64.7536C134.12 64.3203 133.955 63.8267 133.927 63.2727H135.205C135.255 63.7663 135.479 64.1747 135.877 64.4979C136.278 64.8175 136.757 64.9773 137.315 64.9773C137.762 64.9773 138.16 64.8725 138.508 64.663C138.859 64.4535 139.135 64.1658 139.334 63.8001C139.536 63.4308 139.637 63.0135 139.637 62.5483C139.637 62.0724 139.532 61.6481 139.323 61.2752C139.117 60.8988 138.833 60.6023 138.471 60.3857C138.108 60.169 137.695 60.0589 137.229 60.0554C136.896 60.0518 136.553 60.1033 136.201 60.2099C135.85 60.3129 135.56 60.446 135.333 60.6094L134.097 60.4602L134.758 55.0909H140.426V56.2628H135.866L135.482 59.4801H135.546C135.77 59.3026 136.051 59.1552 136.388 59.038C136.725 58.9208 137.077 58.8622 137.443 58.8622C138.11 58.8622 138.705 59.022 139.227 59.3416C139.753 59.6577 140.165 60.0909 140.463 60.6413C140.765 61.1918 140.916 61.8203 140.916 62.527C140.916 63.223 140.759 63.8445 140.447 64.3913C140.138 64.9347 139.712 65.3643 139.168 65.6804C138.625 65.9929 138.007 66.1491 137.315 66.1491ZM146.441 66.1491C145.816 66.1491 145.253 66.0249 144.752 65.7763C144.251 65.5277 143.85 65.1868 143.548 64.7536C143.246 64.3203 143.081 63.8267 143.053 63.2727H144.331C144.381 63.7663 144.605 64.1747 145.002 64.4979C145.404 64.8175 145.883 64.9773 146.441 64.9773C146.888 64.9773 147.286 64.8725 147.634 64.663C147.985 64.4535 148.261 64.1658 148.46 63.8001C148.662 63.4308 148.763 63.0135 148.763 62.5483C148.763 62.0724 148.658 61.6481 148.449 61.2752C148.243 60.8988 147.959 60.6023 147.597 60.3857C147.234 60.169 146.821 60.0589 146.355 60.0554C146.022 60.0518 145.679 60.1033 145.327 60.2099C144.976 60.3129 144.686 60.446 144.459 60.6094L143.223 60.4602L143.884 55.0909H149.551V56.2628H144.992L144.608 59.4801H144.672C144.896 59.3026 145.176 59.1552 145.514 59.038C145.851 58.9208 146.203 58.8622 146.569 58.8622C147.236 58.8622 147.831 59.022 148.353 59.3416C148.879 59.6577 149.29 60.0909 149.589 60.6413C149.891 61.1918 150.042 61.8203 150.042 62.527C150.042 63.223 149.885 63.8445 149.573 64.3913C149.264 64.9347 148.838 65.3643 148.294 65.6804C147.751 65.9929 147.133 66.1491 146.441 66.1491ZM162.534 57.8182C162.47 57.2784 162.211 56.8594 161.756 56.5611C161.302 56.2628 160.744 56.1136 160.084 56.1136C159.359 56.1136 158.777 56.2859 158.337 56.6303C157.896 56.9712 157.676 57.4027 157.676 57.9247C157.676 58.3153 157.795 58.6314 158.033 58.8729C158.274 59.1108 158.559 59.2972 158.885 59.4322C159.215 59.5636 159.516 59.6648 159.785 59.7358L160.893 60.0341C161.177 60.1087 161.494 60.2116 161.842 60.343C162.193 60.4744 162.529 60.6538 162.848 60.881C163.171 61.1048 163.438 61.3924 163.647 61.744C163.857 62.0955 163.962 62.527 163.962 63.0384C163.962 63.6278 163.807 64.1605 163.498 64.6364C163.193 65.1122 162.745 65.4904 162.156 65.771C161.57 66.0515 160.858 66.1918 160.02 66.1918C158.848 66.1918 157.918 65.9148 157.229 65.3608C156.54 64.8068 156.163 64.0824 156.099 63.1875H157.463C157.498 63.5994 157.637 63.9403 157.878 64.2102C158.123 64.4766 158.432 64.6754 158.805 64.8068C159.182 64.9347 159.587 64.9986 160.02 64.9986C160.524 64.9986 160.977 64.9169 161.378 64.7536C161.779 64.5866 162.097 64.3558 162.332 64.0611C162.566 63.7628 162.683 63.4148 162.683 63.017C162.683 62.6548 162.582 62.3601 162.38 62.1328C162.177 61.9055 161.911 61.7209 161.581 61.5788C161.25 61.4368 160.893 61.3125 160.51 61.206L159.168 60.8224C158.315 60.5774 157.641 60.2276 157.143 59.7731C156.646 59.3185 156.398 58.7237 156.398 57.9886C156.398 57.3778 156.563 56.8452 156.893 56.3906C157.227 55.9325 157.674 55.5774 158.235 55.3253C158.8 55.0696 159.43 54.9418 160.126 54.9418C160.829 54.9418 161.454 55.0678 162.001 55.32C162.548 55.5685 162.981 55.9094 163.301 56.3427C163.624 56.7759 163.795 57.2678 163.812 57.8182H162.534ZM174.784 55.0909V66H173.506L167.561 57.4347H167.455V66H166.134V55.0909H167.412L173.378 63.6776H173.484V55.0909H174.784ZM176.831 56.2628V55.0909H185.013V56.2628H181.582V66H180.261V56.2628H176.831ZM194.658 57.8182V58.8835H192.911V63.6562C192.911 64.0114 192.962 64.2777 193.065 64.4553C193.172 64.6293 193.307 64.7464 193.47 64.8068C193.637 64.8636 193.813 64.892 193.998 64.892C194.136 64.892 194.25 64.8849 194.338 64.8707C194.427 64.853 194.498 64.8388 194.551 64.8281L194.807 65.9574C194.722 65.9893 194.603 66.0213 194.45 66.0533C194.298 66.0888 194.104 66.1065 193.87 66.1065C193.515 66.1065 193.167 66.0302 192.826 65.8775C192.488 65.7248 192.208 65.4922 191.984 65.1797C191.764 64.8672 191.654 64.473 191.654 63.9972V58.8835H190.418V57.8182H191.654V55.858H192.911V57.8182H194.658ZM199.785 66.1705C199.046 66.1705 198.398 65.9947 197.841 65.6431C197.287 65.2915 196.854 64.7997 196.541 64.1676C196.232 63.5355 196.078 62.7969 196.078 61.9517C196.078 61.0994 196.232 60.3555 196.541 59.7198C196.854 59.0842 197.287 58.5906 197.841 58.239C198.398 57.8874 199.046 57.7116 199.785 57.7116C200.524 57.7116 201.17 57.8874 201.724 58.239C202.281 58.5906 202.715 59.0842 203.024 59.7198C203.336 60.3555 203.492 61.0994 203.492 61.9517C203.492 62.7969 203.336 63.5355 203.024 64.1676C202.715 64.7997 202.281 65.2915 201.724 65.6431C201.17 65.9947 200.524 66.1705 199.785 66.1705ZM199.785 65.0412C200.346 65.0412 200.808 64.8974 201.17 64.6097C201.532 64.3221 201.8 63.9439 201.974 63.4751C202.148 63.0064 202.235 62.4986 202.235 61.9517C202.235 61.4048 202.148 60.8952 201.974 60.4229C201.8 59.9506 201.532 59.5689 201.17 59.2777C200.808 58.9865 200.346 58.8409 199.785 58.8409C199.224 58.8409 198.762 58.9865 198.4 59.2777C198.038 59.5689 197.77 59.9506 197.596 60.4229C197.422 60.8952 197.335 61.4048 197.335 61.9517C197.335 62.4986 197.422 63.0064 197.596 63.4751C197.77 63.9439 198.038 64.3221 198.4 64.6097C198.762 64.8974 199.224 65.0412 199.785 65.0412ZM209.63 66V57.8182H210.845V59.054H210.93C211.079 58.6491 211.349 58.3207 211.739 58.0685C212.13 57.8164 212.57 57.6903 213.06 57.6903C213.153 57.6903 213.268 57.6921 213.407 57.6957C213.545 57.6992 213.65 57.7045 213.721 57.7116V58.9901C213.678 58.9794 213.581 58.9634 213.428 58.9421C213.279 58.9173 213.121 58.9048 212.954 58.9048C212.357 58.9048 211.864 59.0859 211.473 59.4482C211.082 59.8104 210.887 60.2685 210.887 60.8224V66H209.63ZM218.392 66.1705C217.604 66.1705 216.924 65.9964 216.352 65.6484C215.784 65.2969 215.346 64.8068 215.037 64.1783C214.731 63.5462 214.579 62.8111 214.579 61.973C214.579 61.1349 214.731 60.3963 215.037 59.7571C215.346 59.1143 215.775 58.6136 216.326 58.255C216.88 57.8928 217.526 57.7116 218.265 57.7116C218.691 57.7116 219.112 57.7827 219.527 57.9247C219.943 58.0668 220.321 58.2976 220.662 58.6172C221.003 58.9332 221.274 59.3523 221.477 59.8743C221.679 60.3963 221.78 61.0391 221.78 61.8026V62.3352H215.841C215.869 63.2088 216.116 63.8782 216.581 64.3434C217.05 64.8086 217.654 65.0412 218.392 65.0412C218.886 65.0412 219.31 64.9347 219.666 64.7216C220.021 64.5085 220.278 64.1889 220.438 63.7628L221.652 64.1037C221.461 64.7216 221.077 65.2205 220.502 65.6005C219.927 65.9805 219.223 66.1705 218.392 66.1705ZM215.841 61.2486H220.502C220.502 60.5561 220.299 59.9826 219.895 59.5281C219.49 59.07 218.946 58.8409 218.265 58.8409C217.785 58.8409 217.37 58.9528 217.018 59.1765C216.667 59.4002 216.39 59.6967 216.187 60.0661C215.985 60.4318 215.869 60.826 215.841 61.2486ZM227.016 66.1705C226.249 66.1705 225.589 65.9893 225.035 65.6271C224.481 65.2649 224.055 64.766 223.756 64.1303C223.458 63.4947 223.309 62.7685 223.309 61.9517C223.309 61.1207 223.462 60.3874 223.767 59.7518C224.076 59.1126 224.506 58.6136 225.056 58.255C225.61 57.8928 226.256 57.7116 226.995 57.7116C227.57 57.7116 228.089 57.8182 228.551 58.0312C229.012 58.2443 229.39 58.5426 229.685 58.9261C229.98 59.3097 230.163 59.7571 230.234 60.2685H228.977C228.881 59.8956 228.668 59.5653 228.337 59.2777C228.011 58.9865 227.57 58.8409 227.016 58.8409C226.281 58.8409 225.688 59.1214 225.237 59.6825C224.79 60.2401 224.566 60.9822 224.566 61.9091C224.566 62.8572 224.788 63.6172 225.232 64.1889C225.676 64.7571 226.271 65.0412 227.016 65.0412C227.506 65.0412 227.926 64.9151 228.274 64.663C228.625 64.4109 228.859 64.0611 228.977 63.6136H230.234C230.163 64.0966 229.987 64.5316 229.706 64.9187C229.429 65.3022 229.062 65.6076 228.604 65.8349C228.149 66.0586 227.62 66.1705 227.016 66.1705ZM235.502 66.1705C234.714 66.1705 234.033 65.9964 233.462 65.6484C232.894 65.2969 232.455 64.8068 232.146 64.1783C231.841 63.5462 231.688 62.8111 231.688 61.973C231.688 61.1349 231.841 60.3963 232.146 59.7571C232.455 59.1143 232.885 58.6136 233.435 58.255C233.989 57.8928 234.635 57.7116 235.374 57.7116C235.8 57.7116 236.221 57.7827 236.636 57.9247C237.052 58.0668 237.43 58.2976 237.771 58.6172C238.112 58.9332 238.384 59.3523 238.586 59.8743C238.788 60.3963 238.89 61.0391 238.89 61.8026V62.3352H232.95C232.979 63.2088 233.226 63.8782 233.691 64.3434C234.16 64.8086 234.763 65.0412 235.502 65.0412C235.995 65.0412 236.42 64.9347 236.775 64.7216C237.13 64.5085 237.388 64.1889 237.547 63.7628L238.762 64.1037C238.57 64.7216 238.187 65.2205 237.611 65.6005C237.036 65.9805 236.333 66.1705 235.502 66.1705ZM232.95 61.2486H237.611C237.611 60.5561 237.409 59.9826 237.004 59.5281C236.599 59.07 236.056 58.8409 235.374 58.8409C234.895 58.8409 234.479 58.9528 234.128 59.1765C233.776 59.4002 233.499 59.6967 233.297 60.0661C233.094 60.4318 232.979 60.826 232.95 61.2486ZM240.802 66V57.8182H242.059V66H240.802ZM241.441 56.4545C241.196 56.4545 240.985 56.3711 240.807 56.2042C240.633 56.0373 240.546 55.8366 240.546 55.6023C240.546 55.3679 240.633 55.1673 240.807 55.0004C240.985 54.8335 241.196 54.75 241.441 54.75C241.686 54.75 241.896 54.8335 242.07 55.0004C242.247 55.1673 242.336 55.3679 242.336 55.6023C242.336 55.8366 242.247 56.0373 242.07 56.2042C241.896 56.3711 241.686 56.4545 241.441 56.4545ZM251.052 57.8182L248.026 66H246.748L243.722 57.8182H245.086L247.344 64.3381H247.43L249.688 57.8182H251.052ZM255.849 66.1705C255.06 66.1705 254.38 65.9964 253.808 65.6484C253.24 65.2969 252.802 64.8068 252.493 64.1783C252.187 63.5462 252.035 62.8111 252.035 61.973C252.035 61.1349 252.187 60.3963 252.493 59.7571C252.802 59.1143 253.231 58.6136 253.782 58.255C254.336 57.8928 254.982 57.7116 255.721 57.7116C256.147 57.7116 256.568 57.7827 256.983 57.9247C257.399 58.0668 257.777 58.2976 258.118 58.6172C258.459 58.9332 258.73 59.3523 258.933 59.8743C259.135 60.3963 259.236 61.0391 259.236 61.8026V62.3352H253.297C253.325 63.2088 253.572 63.8782 254.037 64.3434C254.506 64.8086 255.11 65.0412 255.849 65.0412C256.342 65.0412 256.767 64.9347 257.122 64.7216C257.477 64.5085 257.734 64.1889 257.894 63.7628L259.108 64.1037C258.917 64.7216 258.533 65.2205 257.958 65.6005C257.383 65.9805 256.68 66.1705 255.849 66.1705ZM253.297 61.2486H257.958C257.958 60.5561 257.756 59.9826 257.351 59.5281C256.946 59.07 256.403 58.8409 255.721 58.8409C255.241 58.8409 254.826 58.9528 254.474 59.1765C254.123 59.4002 253.846 59.6967 253.643 60.0661C253.441 60.4318 253.325 60.826 253.297 61.2486ZM266.624 61.0781V66H265.367V57.8182H266.582V59.0966H266.688C266.88 58.6811 267.171 58.3473 267.562 58.0952C267.953 57.8395 268.457 57.7116 269.075 57.7116C269.902 57.7116 270.57 57.9656 271.078 58.4734C271.589 58.9812 271.845 59.7571 271.845 60.8011V66H270.588V60.8864C270.588 60.2436 270.421 59.7429 270.087 59.3842C269.753 59.022 269.295 58.8409 268.713 58.8409C268.112 58.8409 267.613 59.0362 267.216 59.4268C266.822 59.8139 266.624 60.3643 266.624 61.0781ZM277.572 66.1705C276.784 66.1705 276.104 65.9964 275.532 65.6484C274.964 65.2969 274.525 64.8068 274.216 64.1783C273.911 63.5462 273.758 62.8111 273.758 61.973C273.758 61.1349 273.911 60.3963 274.216 59.7571C274.525 59.1143 274.955 58.6136 275.505 58.255C276.059 57.8928 276.706 57.7116 277.444 57.7116C277.87 57.7116 278.291 57.7827 278.707 57.9247C279.122 58.0668 279.5 58.2976 279.841 58.6172C280.182 58.9332 280.454 59.3523 280.656 59.8743C280.859 60.3963 280.96 61.0391 280.96 61.8026V62.3352H275.021C275.049 63.2088 275.296 63.8782 275.761 64.3434C276.23 64.8086 276.834 65.0412 277.572 65.0412C278.066 65.0412 278.49 64.9347 278.845 64.7216C279.2 64.5085 279.458 64.1889 279.618 63.7628L280.832 64.1037C280.64 64.7216 280.257 65.2205 279.682 65.6005C279.106 65.9805 278.403 66.1705 277.572 66.1705ZM275.021 61.2486H279.682C279.682 60.5561 279.479 59.9826 279.074 59.5281C278.669 59.07 278.126 58.8409 277.444 58.8409C276.965 58.8409 276.549 58.9528 276.198 59.1765C275.846 59.4002 275.569 59.6967 275.367 60.0661C275.165 60.4318 275.049 60.826 275.021 61.2486ZM284.726 66L282.233 57.8182H283.554L285.323 64.0824H285.408L287.155 57.8182H288.497L290.223 64.0611H290.308L292.077 57.8182H293.398L290.905 66H289.669L287.879 59.7145H287.752L285.962 66H284.726ZM299.278 66V57.8182H300.493V59.0966H300.6C300.77 58.6598 301.045 58.3207 301.425 58.0792C301.805 57.8342 302.261 57.7116 302.794 57.7116C303.334 57.7116 303.783 57.8342 304.142 58.0792C304.504 58.3207 304.786 58.6598 304.989 59.0966H305.074C305.283 58.674 305.598 58.3384 306.017 58.0898C306.436 57.8377 306.938 57.7116 307.524 57.7116C308.256 57.7116 308.854 57.9407 309.319 58.3988C309.785 58.8533 310.017 59.5618 310.017 60.5241V66H308.76V60.5241C308.76 59.9205 308.595 59.489 308.265 59.2298C307.934 58.9705 307.546 58.8409 307.098 58.8409C306.523 58.8409 306.077 59.0149 305.761 59.3629C305.445 59.7074 305.287 60.1442 305.287 60.6733V66H304.009V60.3963C304.009 59.9311 303.858 59.5565 303.556 59.2724C303.254 58.9847 302.865 58.8409 302.389 58.8409C302.063 58.8409 301.757 58.9279 301.473 59.1019C301.193 59.2759 300.965 59.5174 300.791 59.8263C300.621 60.1317 300.536 60.4851 300.536 60.8864V66H299.278ZM315.746 66.1705C314.958 66.1705 314.278 65.9964 313.706 65.6484C313.138 65.2969 312.699 64.8068 312.39 64.1783C312.085 63.5462 311.932 62.8111 311.932 61.973C311.932 61.1349 312.085 60.3963 312.39 59.7571C312.699 59.1143 313.129 58.6136 313.679 58.255C314.233 57.8928 314.88 57.7116 315.618 57.7116C316.044 57.7116 316.465 57.7827 316.881 57.9247C317.296 58.0668 317.674 58.2976 318.015 58.6172C318.356 58.9332 318.628 59.3523 318.83 59.8743C319.033 60.3963 319.134 61.0391 319.134 61.8026V62.3352H313.195C313.223 63.2088 313.47 63.8782 313.935 64.3434C314.404 64.8086 315.007 65.0412 315.746 65.0412C316.24 65.0412 316.664 64.9347 317.019 64.7216C317.374 64.5085 317.632 64.1889 317.791 63.7628L319.006 64.1037C318.814 64.7216 318.431 65.2205 317.855 65.6005C317.28 65.9805 316.577 66.1705 315.746 66.1705ZM313.195 61.2486H317.855C317.855 60.5561 317.653 59.9826 317.248 59.5281C316.843 59.07 316.3 58.8409 315.618 58.8409C315.139 58.8409 314.723 58.9528 314.372 59.1765C314.02 59.4002 313.743 59.6967 313.541 60.0661C313.338 60.4318 313.223 60.826 313.195 61.2486ZM326.842 59.6506L325.712 59.9702C325.602 59.6861 325.418 59.4197 325.158 59.1712C324.899 58.9226 324.494 58.7983 323.944 58.7983C323.443 58.7983 323.026 58.9137 322.692 59.1445C322.362 59.3718 322.197 59.6612 322.197 60.0128C322.197 60.3253 322.31 60.5721 322.538 60.7532C322.765 60.9343 323.12 61.0852 323.603 61.206L324.817 61.5043C326.266 61.8594 326.991 62.598 326.991 63.7202C326.991 64.1889 326.856 64.608 326.586 64.9773C326.32 65.3466 325.947 65.6378 325.467 65.8509C324.988 66.0639 324.43 66.1705 323.795 66.1705C322.96 66.1705 322.269 65.9893 321.723 65.6271C321.176 65.2649 320.829 64.7358 320.684 64.0398L321.877 63.7415C322.101 64.6222 322.733 65.0625 323.773 65.0625C324.359 65.0625 324.824 64.9382 325.169 64.6896C325.517 64.4375 325.691 64.1357 325.691 63.7841C325.691 63.2053 325.286 62.8217 324.476 62.6335L323.113 62.3139C322.364 62.1364 321.813 61.8612 321.462 61.4883C321.114 61.1119 320.94 60.6413 320.94 60.0767C320.94 59.6151 321.069 59.2067 321.328 58.8516C321.591 58.4964 321.948 58.2177 322.399 58.0153C322.854 57.8129 323.369 57.7116 323.944 57.7116C324.753 57.7116 325.389 57.8892 325.851 58.2443C326.316 58.5994 326.646 59.0682 326.842 59.6506ZM334.678 59.6506L333.549 59.9702C333.439 59.6861 333.254 59.4197 332.995 59.1712C332.736 58.9226 332.331 58.7983 331.781 58.7983C331.28 58.7983 330.863 58.9137 330.529 59.1445C330.199 59.3718 330.034 59.6612 330.034 60.0128C330.034 60.3253 330.147 60.5721 330.374 60.7532C330.602 60.9343 330.957 61.0852 331.44 61.206L332.654 61.5043C334.103 61.8594 334.828 62.598 334.828 63.7202C334.828 64.1889 334.693 64.608 334.423 64.9773C334.156 65.3466 333.784 65.6378 333.304 65.8509C332.825 66.0639 332.267 66.1705 331.632 66.1705C330.797 66.1705 330.106 65.9893 329.559 65.6271C329.013 65.2649 328.666 64.7358 328.521 64.0398L329.714 63.7415C329.938 64.6222 330.57 65.0625 331.61 65.0625C332.196 65.0625 332.661 64.9382 333.006 64.6896C333.354 64.4375 333.528 64.1357 333.528 63.7841C333.528 63.2053 333.123 62.8217 332.313 62.6335L330.95 62.3139C330.2 62.1364 329.65 61.8612 329.298 61.4883C328.95 61.1119 328.776 60.6413 328.776 60.0767C328.776 59.6151 328.906 59.2067 329.165 58.8516C329.428 58.4964 329.785 58.2177 330.236 58.0153C330.691 57.8129 331.205 57.7116 331.781 57.7116C332.59 57.7116 333.226 57.8892 333.688 58.2443C334.153 58.5994 334.483 59.0682 334.678 59.6506ZM339.128 66.1918C338.609 66.1918 338.139 66.0941 337.716 65.8988C337.293 65.6999 336.958 65.4141 336.709 65.0412C336.461 64.6648 336.336 64.2102 336.336 63.6776C336.336 63.2088 336.429 62.8288 336.613 62.5376C336.798 62.2429 337.045 62.0121 337.354 61.8452C337.663 61.6783 338.004 61.554 338.377 61.4723C338.753 61.3871 339.131 61.3196 339.511 61.2699C340.008 61.206 340.411 61.158 340.72 61.1261C341.033 61.0906 341.26 61.032 341.402 60.9503C341.548 60.8686 341.62 60.7266 341.62 60.5241V60.4815C341.62 59.956 341.477 59.5476 341.189 59.2564C340.905 58.9652 340.473 58.8196 339.895 58.8196C339.294 58.8196 338.824 58.951 338.483 59.2138C338.142 59.4766 337.902 59.7571 337.764 60.0554L336.571 59.6293C336.784 59.1321 337.068 58.745 337.423 58.468C337.782 58.1875 338.172 57.9922 338.595 57.8821C339.021 57.7685 339.44 57.7116 339.852 57.7116C340.115 57.7116 340.417 57.7436 340.758 57.8075C341.102 57.8679 341.434 57.994 341.754 58.1857C342.077 58.3775 342.345 58.6669 342.558 59.054C342.771 59.4411 342.878 59.9595 342.878 60.6094V66H341.62V64.892H341.557C341.471 65.0696 341.329 65.2596 341.13 65.462C340.932 65.6644 340.667 65.8366 340.337 65.9787C340.006 66.1207 339.603 66.1918 339.128 66.1918ZM339.319 65.0625C339.816 65.0625 340.236 64.9648 340.576 64.7695C340.921 64.5742 341.18 64.3221 341.354 64.0131C341.532 63.7042 341.62 63.3793 341.62 63.0384V61.8878C341.567 61.9517 341.45 62.0103 341.269 62.0636C341.091 62.1133 340.885 62.1577 340.651 62.1967C340.42 62.2322 340.195 62.2642 339.975 62.2926C339.758 62.3175 339.582 62.3388 339.447 62.3565C339.12 62.3991 338.815 62.4684 338.531 62.5643C338.25 62.6566 338.023 62.7969 337.849 62.9851C337.679 63.1697 337.593 63.4219 337.593 63.7415C337.593 64.1783 337.755 64.5085 338.078 64.7322C338.405 64.9524 338.819 65.0625 339.319 65.0625ZM348.475 69.2386C347.562 69.2386 346.839 69.0717 346.307 68.7379C345.778 68.4077 345.385 68.0277 345.129 67.598L346.131 66.8949C346.244 67.044 346.388 67.2145 346.562 67.4062C346.736 67.6016 346.974 67.7702 347.276 67.9123C347.581 68.0579 347.981 68.1307 348.475 68.1307C349.135 68.1307 349.68 67.9709 350.11 67.6513C350.54 67.3317 350.754 66.831 350.754 66.1491V64.4872H350.648C350.556 64.6364 350.424 64.821 350.254 65.0412C350.087 65.2578 349.845 65.4513 349.529 65.6218C349.217 65.7887 348.794 65.8722 348.262 65.8722C347.601 65.8722 347.008 65.7159 346.482 65.4034C345.96 65.0909 345.547 64.6364 345.241 64.0398C344.939 63.4432 344.789 62.7187 344.789 61.8665C344.789 61.0284 344.936 60.2987 345.231 59.6772C345.525 59.0522 345.936 58.5692 346.461 58.2283C346.987 57.8839 347.594 57.7116 348.283 57.7116C348.816 57.7116 349.238 57.8004 349.551 57.978C349.867 58.152 350.108 58.3509 350.275 58.5746C350.445 58.7947 350.577 58.9759 350.669 59.1179H350.797V57.8182H352.012V66.2344C352.012 66.9375 351.852 67.5092 351.532 67.9496C351.216 68.3935 350.79 68.7184 350.254 68.9244C349.721 69.1339 349.128 69.2386 348.475 69.2386ZM348.432 64.7429C349.188 64.7429 349.767 64.4872 350.169 63.9759C350.573 63.4609 350.776 62.7507 350.776 61.8452C350.776 60.9609 350.577 60.2401 350.179 59.6825C349.781 59.1214 349.199 58.8409 348.432 58.8409C347.899 58.8409 347.455 58.9759 347.1 59.2457C346.749 59.5156 346.484 59.8778 346.307 60.3324C346.133 60.7869 346.046 61.2912 346.046 61.8452C346.046 62.6974 346.246 63.3935 346.648 63.9332C347.049 64.473 347.644 64.7429 348.432 64.7429ZM357.743 66.1705C356.955 66.1705 356.275 65.9964 355.703 65.6484C355.135 65.2969 354.696 64.8068 354.387 64.1783C354.082 63.5462 353.929 62.8111 353.929 61.973C353.929 61.1349 354.082 60.3963 354.387 59.7571C354.696 59.1143 355.126 58.6136 355.676 58.255C356.23 57.8928 356.877 57.7116 357.615 57.7116C358.041 57.7116 358.462 57.7827 358.878 57.9247C359.293 58.0668 359.671 58.2976 360.012 58.6172C360.353 58.9332 360.625 59.3523 360.827 59.8743C361.03 60.3963 361.131 61.0391 361.131 61.8026V62.3352H355.192C355.22 63.2088 355.467 63.8782 355.932 64.3434C356.401 64.8086 357.004 65.0412 357.743 65.0412C358.237 65.0412 358.661 64.9347 359.016 64.7216C359.371 64.5085 359.629 64.1889 359.789 63.7628L361.003 64.1037C360.811 64.7216 360.428 65.2205 359.852 65.6005C359.277 65.9805 358.574 66.1705 357.743 66.1705ZM355.192 61.2486H359.852C359.852 60.5561 359.65 59.9826 359.245 59.5281C358.84 59.07 358.297 58.8409 357.615 58.8409C357.136 58.8409 356.72 58.9528 356.369 59.1765C356.017 59.4002 355.74 59.6967 355.538 60.0661C355.335 60.4318 355.22 60.826 355.192 61.2486ZM368.839 59.6506L367.709 59.9702C367.599 59.6861 367.415 59.4197 367.155 59.1712C366.896 58.9226 366.491 58.7983 365.941 58.7983C365.44 58.7983 365.023 58.9137 364.689 59.1445C364.359 59.3718 364.194 59.6612 364.194 60.0128C364.194 60.3253 364.307 60.5721 364.535 60.7532C364.762 60.9343 365.117 61.0852 365.6 61.206L366.814 61.5043C368.263 61.8594 368.988 62.598 368.988 63.7202C368.988 64.1889 368.853 64.608 368.583 64.9773C368.317 65.3466 367.944 65.6378 367.464 65.8509C366.985 66.0639 366.427 66.1705 365.792 66.1705C364.957 66.1705 364.267 65.9893 363.72 65.6271C363.173 65.2649 362.827 64.7358 362.681 64.0398L363.874 63.7415C364.098 64.6222 364.73 65.0625 365.77 65.0625C366.356 65.0625 366.822 64.9382 367.166 64.6896C367.514 64.4375 367.688 64.1357 367.688 63.7841C367.688 63.2053 367.283 62.8217 366.474 62.6335L365.11 62.3139C364.361 62.1364 363.81 61.8612 363.459 61.4883C363.111 61.1119 362.937 60.6413 362.937 60.0767C362.937 59.6151 363.066 59.2067 363.325 58.8516C363.588 58.4964 363.945 58.2177 364.396 58.0153C364.851 57.8129 365.366 57.7116 365.941 57.7116C366.751 57.7116 367.386 57.8892 367.848 58.2443C368.313 58.5994 368.643 59.0682 368.839 59.6506Z" fill="black"/>
</svg>
