<svg width="45" height="45" viewBox="0 0 45 45" fill="none" xmlns="http://www.w3.org/2000/svg">
<path d="M28 0C25.2504 0 23 2.25042 23 5C23 6.7382 23.8937 8.27508 25.25 9.17187L22.7969 17.375C22.0701 17.1391 21.3035 17 20.5 17C18.7642 17 17.1641 17.5971 15.8906 18.5937L8.17188 12.0937C8.69316 11.3594 9 10.4631 9 9.49999C9 7.02656 6.97343 5 4.5 5C2.02656 5 0 7.02656 0 9.49999C0 11.9734 2.02656 14 4.5 14C5.28056 14 6.01435 13.7915 6.65625 13.4375L14.4844 20.0312C13.5527 21.281 13 22.8276 13 24.5C13 26.2035 13.5835 27.7696 14.5469 29.0313L9.46875 34.125C8.4864 33.4226 7.29367 33 6 33C2.69813 33 0 35.6982 0 39C0 42.3019 2.69813 45 6 45C9.30186 45 12 42.3019 12 39C12 37.7064 11.5774 36.5136 10.875 35.5313L15.9531 30.4531C17.2165 31.4211 18.792 32 20.5 32C23.2798 32 25.7046 30.4604 27 28.2031L34.0781 30.5625C34.0256 30.8665 34 31.1816 34 31.5C34 34.5257 36.4743 37 39.5 37C42.5257 37 45 34.5257 45 31.5C45 28.4743 42.5257 26 39.5 26C37.498 26 35.7434 27.0936 34.7812 28.7031L27.75 26.3594C27.9033 25.7634 28 25.1427 28 24.5C28 23.7713 27.883 23.0733 27.6875 22.4062L35.125 17.4531C35.9517 18.3961 37.1562 19 38.5 19C40.9734 19 43 16.9734 43 14.5C43 12.0266 40.9734 9.99999 38.5 9.99999C36.0266 9.99999 34 12.0266 34 14.5C34 14.9059 34.0541 15.297 34.1562 15.6719L26.8594 20.5469C26.2837 19.6263 25.515 18.8314 24.6094 18.2344L27.1094 9.90624C27.3997 9.95924 27.695 9.99999 28 9.99999C30.7496 9.99999 33 7.74958 33 5C33 2.25042 30.7496 0 28 0Z" fill="black"/>
</svg>
